<mxfile host="65bd71144e" scale="3" border="17">
    <diagram id="Msd5GeR0sOdflBlq__wE" name="Page-1">
        <mxGraphModel dx="1128" dy="980" grid="1" gridSize="10" guides="1" tooltips="1" connect="1" arrows="1" fold="1" page="1" pageScale="1" pageWidth="1169" pageHeight="827" background="#ffffff" math="0" shadow="0">
            <root>
                <mxCell id="0"/>
                <mxCell id="1" parent="0"/>
                <mxCell id="4" value="" style="shape=image;imageAspect=0;aspect=fixed;verticalLabelPosition=bottom;verticalAlign=top;fillStyle=auto;image=data:image/png,iVBORw0KGgoAAAANSUhEUgAAAPMAAAEYCAYAAACJAsDKAAAAAXNSR0IArs4c6QAAAAlwSFlzAAAN1wAADdcBQiibeAAAActpVFh0WE1MOmNvbS5hZG9iZS54bXAAAAAAADx4OnhtcG1ldGEgeG1sbnM6eD0iYWRvYmU6bnM6bWV0YS8iIHg6eG1wdGs9IlhNUCBDb3JlIDUuNC4wIj4KICAgPHJkZjpSREYgeG1sbnM6cmRmPSJodHRwOi8vd3d3LnczLm9yZy8xOTk5LzAyLzIyLXJkZi1zeW50YXgtbnMjIj4KICAgICAgPHJkZjpEZXNjcmlwdGlvbiByZGY6YWJvdXQ9IiIKICAgICAgICAgICAgeG1sbnM6eG1wPSJodHRwOi8vbnMuYWRvYmUuY29tL3hhcC8xLjAvIgogICAgICAgICAgICB4bWxuczp0aWZmPSJodHRwOi8vbnMuYWRvYmUuY29tL3RpZmYvMS4wLyI+CiAgICAgICAgIDx4bXA6Q3JlYXRvclRvb2w+d3d3Lmlua3NjYXBlLm9yZzwveG1wOkNyZWF0b3JUb29sPgogICAgICAgICA8dGlmZjpPcmllbnRhdGlvbj4xPC90aWZmOk9yaWVudGF0aW9uPgogICAgICA8L3JkZjpEZXNjcmlwdGlvbj4KICAgPC9yZGY6UkRGPgo8L3g6eG1wbWV0YT4KGMtVWAAAQABJREFUeAHsXQecFEX2/jbM5szusrDsskvOIFFyEMWcFczp1DOdf7Oed2ZPPc8zomeWE3M6MWFAQZQoSM55gYVNsDnNbP+/r4caekeQtESnfr+e7ulQXf2qvnqv3nv1CgikI4kCLn5MuOODso866qgxPXr0qOjevfubPN/KXGvVqpXu0/2BFKBAgAKHEAVCWJZIR3nie/XqdWvPnj3X8pxlNoJ6Xe/eve/g/0THvXpOzwdSgAIBChxECgTx3RHctLdTmzZtRg0YMGAq/9ggPuGEE6znnnvOc+qpp9aZc7resWPHUd4nfL/18vGdDRwEKBCgwH6nQBgBGeZ4S99Bgwa937x5cx8nHj16dOW6des8dXV11vr16z3/+c9/qni/fb1p06YWQf1RaGjoQJMHObe/mG4uBfYBCgQosB8oEMo8nSJ11tFHH/0EgVjI8zZQ77rrrqq5c+e6BWJn0v+FCxe677nnHh+oOabeyuef4bMtHWUVl9Z7AilAgQAF9gMFgpmnE8SRXbp0+Uv//v2X8rwN4nPOOadm4sSJNeXl5T4Mu91uy2zmZGVlpTV58uSa888/v8Y8269fv5UE9i38H8PNJL1P7w2kAAUCFGggCkQMGTLExykpIp9GkXpSZGSkDeLo6Oi6Dz74oCo/P9/Hij0ejw1iA2DtdU6bSQUFBdbHH39c3aJFCw/Laec1cODAnzMzM8825WYHIeWYOHUgBSgQoMA+UMCVlZXlBFJ3cuK3OnXq5OOoTz31VNWqVau2I5RIFSf+veR/fc2aNR4qyXyid7t27dwcT7/PcvcxZd9mynKO0c2lwD5AgQAFfocC/qamxhwTP9q3b9/NfMbmoP/3f/9XPXv27FomH24FUv9xsu+i34Huc4Jaxxxn1952223V5h19+vQp4Hv/xf/pjrJK9A6YshwECRwGKLAjCsjEJLAYU1NQ69atryaXXMBzNoiPOeYY93fffVdTWlrqg6e/+Oy7sBsH/s+WlZVZ33//fc1JJ53kNu/k+5eQW9/A/04nE2c5eSmQAhQIUMBQINzP1HQ8QfSt09Q0duzY6k2bNvnGxf7cdTewu9NbBGonV9f4+9133/Vx6SZNmsiU9UNUVNTJpsABU5ahRGAfoICXAv6mpg4Ub18jUCp42ebGjz76aM2KFSt+My52gm+nKN2DCzvqHFauXOl54oknfKCmxruKpqyxLFsXRwWKS/sUdI7zgcMABf4QFPA3NSWQMz9ABddGfr0N4quuuqp25syZtTU1NT5I+nNQ34UGPBCo9R6TNC7X+Py6666rNWWjKWsTy/sI/yc7akugDpiyHAQJHB75FKhnakpLS7uMIuzcoKAgG8Rdu3atGz9+fE1xcbHBky0COwHmu7AfD/w7Do3Tv/nmmxoC2ekaurBZs2ZXmSoLmLIMJQL7I50C/qamIRSpx5PD2SDmx1uvvvpqTW5u7na2SLAeaBD79w/+79+8eXPdmDFjfOYxKscsit7fsfzHmgrcZlILmLIMQQL7I4YCMuVEOb6mJb23XiKQy3jOBvLf//732mXLltUzEPtzRn+QHcj//qK33s1xvPvBBx/0id6ckVXRrVu31/lNbRzfKtE7YMpyECRweHhSwJiaTOkjybHuopiawxM2iCmWeqZOnVpbVVXlw+ahBGJfobYd+IO6urra0rj+ggsu8HmR8fs20qvsHn5jrPlw7gOmLAcxAoeHFwX8ZzWNpCg6i66SPpH6008/rd26dWs9U5O/SOsPpkPlv3+HU1JSUvfFF1/Ucvxsf59MWfzeuREREReaattmenMGTzCXAvsABQ5JCvibmnrTnDOOm09pxKmJtRs2bPjNuFhc73BL/p2PxvsvvviiT/SmMs/it3/JmurvqK2AKctBjMDhoUcBf5G6KQMFPEfuVMyi2tzq5ptv9ixatKje1ER/Dne4gVnl9Re99X/p0qXuO++80+dFRv1Aadu2bf9DWjR3VF3AlOUgRuDw0KBA+DaTjEoTkpCQcBNBvIbHNoiPPfZYTTl0a+qhSWrwhyMnNuXf0d7/m6QHmDJlipuuoT6phHRZn5KSotBFRtMt5ZhzMgn/BlKAAgeeAvJVdjbE0+i5Nb19+/Y2iHnNev/9991btmypJz/7i6Y7AsbhfM7/+6QX4FRLH5emxGKRTrNIH99USx4HAgySCIF04Cng773VmbbWDxlAz8eBHn/8cU9OTk69cbE/5zqcAbursu/oW6UnePrpp32gJqCtDh06fMrq6+6owoApy0GMwOH+pYCTEycyUMC/aF/dylfa3JgumHWcSkjmtB3HO2rYuwLDkXLd/9v1f8GCBZ4bbrjB1/FxPF1COj5NGqY4qk50NrPHHKcDhwEK7DsFNMYz4zzldjVjUa9MT0+3QUxnCYtTEzUuridSq/EGkldJ5qQFx9N1P/zwg5uRTWz6paamSvReS7pqqqVJGsY4aW7OB/YBCuwVBfwVNMNpL/1JJhfmZm9vvPGGp7CwsB5qnQ03AObtFPCni/QJb731ls/hpHPnzhY3hQo+wVFb4tKBWVkOggQO94wCEvGcInVrzi0ey3Gxr+Hdd999HoXc2d5Uf8uBnNcCx14KCND+oFZI4H/84x8+2pLOVnZ29nusg/aOaguI3g5iBA53jwLSrBp/4mh6MT1AkXoLz9mcmK6LdbNmzfI4w+7sqIEGwPv7FPCnmfQMc+bM8Vx++eW+8TRF7+LY2NjHSPu4bVUn5WPAi2wbMQK7nVNAopyzoVzM4HnLGLrHBnHjxo0tuix6KioqAiL17+N0j676c2npHTgF1GNmk9HPW6L3KtbNFY6q01g6IHo7CBI49FJAvb1TpO7HBvS9lFo8b290UfTk5eUFQLxHMN2zm/1BLT0Ep4T6RG/pKVq2bDmZdTKEm0mqN9VfIAUoUI8TZyQlJb1CX2KfLZTRKuuWL1/+GxD7N7w9a7aBu3dGAX/RW/cxlHDd3Xff7RO92cnW0YtsDNtulqP9OiUqx+nA4R+BAjJ7GDFNx7dTpC5ITk62OTEXXKujK2Kdc1yshhUAsaiw/5M/nTWenjFjRt1pp51mg5qBBSV6S4/xd25GqlJ9qi4D6Q9CAYlkTtvlmRwTz3e4YNZ99NFHdQw56+PGO+IW+785B94gCvjTXvqKcePGCdA2qDl5w6J76GL+H+lov6pfo8B0nA4cHikUkKnJKYp1ZeytzxnxwzcufvLJJ+tyc3N9IDaNaV9hpQYpDm82cRl/zmPe5bzXeY+O9ZzycJ7f17IdLs/7f7NCFz377LM+0Vv2aXqRfcM67ulosKpv1XsgHUEUkOhlKrWRy+V6mppSXwyra6+91sPVERscxAagvwcYL0h/a3fd/oyKVa9o9qWddQjbnzsyj/xBvWTJkjqu7uFTknGo5OYaXM+zvhs72q9TEnOcPrIOTQM/sr5q+9dI1NI3SqGldD1F6r9ShG5CDgwu91L3yCOPBDG8bRDXKbZvIATAKJn28b7+sOEhODgYFA2xcOECVFa6qRoPQnKjRGRnZyAqKrreK+rqPCgqLML6DRuQu6kACxasxq9zlyAuLgxpqano3Lkd2rTOQJs2LREeHmk/a95RL6M/wB9nPbFjA0MvWffee69W4wim3gNUZOYzptqjJIV8vgV2ox8xbeGIo1LDtNpDjyz6LlWeIl4ojcjIyHiYSpMenDSv/3VcHSLolFNOCYqL8/oiOBuHbtjXZEBWVlaKG2+8Ba+9NhkPPTCAhcqD22qKzYUJSGyUgfj4SII11gbxYpatqCgfcTFBaN+yDO3axCAjIwthLg/KqxKxds1STJ7mRlBoBs46fQiGDh3EjicE5l37WubD8XlnvbGTxpdffmmNHDlSQ6dgjqXZgVbO5ew1Kck+2/Z9ktIEbonoR1Q6EsGsyjIgbkPvoYcZl+rsxYulI0HdQw89hIsvvjiY4LYr0tkY7BMN8GPy5LgOT/z7JUz68TOM//BUJMZ9QjmhJ/K2dEV1dTQKN01GYcF4Hm+AK6wNmqYPQKPkRMRGVSE6pg5bS7Ix9ZdirFxVSFA3xnGDKxAZVoAlq7vjjXfXYsPGMnYQt6F58xY2oCVRNJRU0QBkOKBZGJrrpZxqibfffrvu9ttv199gKjdBSexTzqu+m/8X6iSTs514zwR+DxkKiBObzklRIf/BZUh9y5QSwO5ff/2Vde5N5GYNrkhy5jlt2jRbsfbwfWdYj//zb9bc6fdbW3L+ao1+5m/WmDHPWzX5F1rufFhWyUWWVTnCssp5XAyrroD7IlirF1xpIe1SO48//elqK7LZadZD919luYv+YllbYdVsfdZ6+aV/8Xpza/5873f9UcfRO6vTefPmWVdeeaXhwhbbg/Qkj3NL5KZkJDjvv8DvQaeATE1OM8Ql5MRrqam2gUDThfurr76qU0hYkwS6hk7OPJctW2q/e8yYF62S3L9Zxeuvsh5/7C8WUs6xxn/1jmWV3WtVb4I1e9rT1oRv3rF+nvgva/6s/1g5Sx+yStefTDB3tao29bXGvHyunQ+/z97fd+91VnXB7VbVRoK+MMSqKXrEuvPOG+1rq1evsD/J3y7e0N95OOTnrAst7fPtt9/Wcc657QikqZaUyjaQplc6Wq7az2HvRWY4meO7DptDlV2VYBQaA6j4eCQmJmYAZzLpI9wvvfRSyFlnnRVEZYj+7/exJRsOVq1aiaeefhYF+bm446bj2ELWIDMjEXER0/H2+AtwzvFbERNyJWpqO8MKikXBllQO3hI4iOuIraUpKKlIgad2M5o3rUJMbDoWrQzH55+ORedOTXHi0M1ISfwMVdWpZCm5CI8Iwoa8S9Gs+1e44PQBeOmlp6hUiwEBDaPQsz/8D/pDUNsKSH0+l/oBQxdZnMQhTh3KGXBSTE7japd/5f8fdA+TpDtdVwd52CUnRzucCq9yG8eB5lRsPcUgAc9s3Lgxk+MiD6NCgsunhAwfPjyIZgobxPo4aZYbMpFL+caoNJHghx++R1lpKd7/3yy88HgndOpwG5JiYhAeuhLhrm9RuLUnYqKCEBf1JYJC2mBD0cVYmz+CLacRthRtQHbGerRKn4SURuEoKknF6lxqZRPjcfqIrehz1NuIdK1HTU0IQkP06bHweCqRmFCEUaf1xdU3vErwN8KA/n0QEhLKa54G/96GpN2ByEv6A9WRNrUDuukGXXbZZcFUetqOJwRzJhcluIQL47XmNodlKtxWLrWvww7QhxuYhUZbrKQoHcnKuJWOAm/TIb8PQYzTTz/d/frrr4deeumlQYmJiXYlqnIE4oZWDDmBzMXUUFBQAEbhRKdOnbFi+WL07JaM1avbYsGqo9EqMwd17mJUVGajpLIJEhM7YdyE3gh2tUJF2QZkNNmEuOgKcuGWWLO+ERJiVqJFxn3IbrwIFeWhWLymLSx3PBVon/ObmtjfFRTE4V9QAty1S5HWuAJXXXY+xrwzB0uXbUavXl0QFhbuU4qJBn/UZJSCBtRqF0OHDg06+eSTg8mt3T///HMQgdyFzOBKar5DGzVqNIvtSkvYKpn25v13iP8eLmCWSC3C2uaEsLCwcyhGvh8SEjKSYlI4x0G1jFYRfMcdd4Swp7VJbkSshgaxnTl/TL6cEgk2ADUQ2n7D7fOzZ03DrHmb0a1jInp3eg1LV/XC8vWnonPbZfh+SgYym4UhNbEAq9ZUonXzNcjfkg5PXTCO7v4tQR2P+SuPRm7BiQimRqx5s2fQOCEayzcMQ3FpR6Q1+pBvN4Cu4vvS4K7ZwA5iCk449jx8NykXb44dj8GDelIjHhsA9LYKM6BWu9AxmQBOPfXUYIb+BZerda9evTqC3Hso29Z5BHc+JZv5fFSMo2HFuW3l2R+7Qx3MBsQ2N46Pj+9BkfqN6OjoOwniRlRq1TDaY9Dzzz8fyknstuOHxEtVVkOL1E7iG678448/gqYvMCCdDzRyRpk0+Re0zdqKY06Yj9mzumPD5kgM7z8WZeWN0W/oTCxbuQwjhiUjJSUG8xanYEjvKSiraouJUzvRTGWhS8tJaNa4FIvWnUuO3w3NmzyOzMYWNhUPZ15teO0jasAEaHUqBHRwCmqq8xAd9ROO7n0aJvy0EeM+m4Tjjh2EiIjIgMjtqDzTCaud0BOQDjhtgkaNGiUmUPe///2vtry8PJnc+yx2zIMJ7KVsYznbHj/kQX2ogrkeiKmsaMJKeJQEfoUidUsS3H3jjTfWMfaWiwHWgwhuu8EaEJsKc9Rhgx0ajs8wN2BZwIB0NpDVeciuTLENl19+MaZOW4q1K4OopGqKYwdPQF5+dzzw71Kce05f/OnSAdi4uRQFRXFYvMLCUm6J8SFYsjwEIeEt0KltPCJD7kNmkzRsqRqIlev6I6PxP5GWZKGo4gSsy0lDs7TPUGdlEtA1BHQlO69M1FJFHhW9FW1adMKfb3jOFvk7d+lid2yGIzUYIQ7zjFRf6pRFFypNOTTpFcQIMiGMKuNmYMY6BhxsybH1nwj4plSszuHa1MXbPvmQBfWhBmaBWJvNicltXdQQX0ex592ioqIhBDFGjBhRwwnrrquvvjqYc1rtylClUOS2OfL+bGN6jxqBenW6D9qitXkvF07D119/DXYuiGHnkpSUisFD38eIY8OwfE1PfD05CScNrcOo02vROHk8lV1z0KLpfHTr3Joctxcap6Ti5BGvIDGmKeYuiUF6ah71qu8hJb4QhWXdsTHveDRNfZQKtXDkl5+E0pJYpKZ8idra5gjW+BkyqfPYmkOvshaIS+yGh5+di/PO7EfpId7X4exP+hxueZvOX4BW3coNlHqPYCpOg6kDqaFfQjA5c09y6Mspgnsogc2mpcQ4JJm2erh99n4v728IQzvxiTQp/co328DmvopePR72kKS7Nx1omypBbL9YfsAMWGCKYc9kktmDnkf2OSpQLNq2rcKCzdbwE6+1Pv/kb3QKucaytkRb1bmwKjdEWpUbm1k1myItqxDWxuV3Wj9MeJPXO1m1ebDmzhxtzZv5tO1Eovvrio63Zs94zZoz/R+WVQqreMPfrJnTP7S2rOlhP1+V28mq2dzMqt7cyari/VbpGda0SffadBs37mNfOdlofceBg99SwNmeyDi0GkkdubPP8YjtcT7H2qf6oeE3bdfv+gH7e7A5s5MQanygl05H9pgvkNM9RF/bNJ6qfuyxx0CROozr/gaxl7TtqKZXPVCUYtXbXJmhg8DxOhjtwu7NVQ4GdacCKhGcxGEX55dffrEVLBkZzVFWkoeMlG/ocvkdymnrDA3tyHwiuIWwl2rELRiR4WuRV9SF+WUxn0mICk/F2k3tEE2f7NjoZfzeFWjcqAKbinqgpiqbXPxf1Iwfg+KytrQ7f0PlWRqlklqKNDTD1NXyHXk81xNPvRmEZskeDBw0kOdcAe68i8biFL2lzOTMuiBaRkIJYA8tFrXUdjel+H0eQd2D8eAW0YKyeVuWph1rf9DSwQSz+XAbxFzeRVMT76F4818CuRO5oJurQ7gpUofT8UO2QVu8FaWMaHsgqSbQKk2fPl32Sp/mWiK3Jm8weqddLg4HsHLlSkhLqhQe7sLbH6zFkP6nIypsBs+s431hBN56Kq4KuC+HK7QAIaFHYdX6NDRv/CVCglbxf3fkFrZBE4rktbXd4Qr5mZpuuqDk9kci99GRW5BXfBTiozbRjj2T4M2wlWF1Vijt0Bvt5wvzy/Dsc/Nx7TWnIDYu3u581GADaecUMExCorc2tTvOrgs+++yzaUAJraFUVkfJqz3F76toRYnLzs6eQ11J+bYcDah3/oL9eOVggNl8sA1irZ5IkeYKKpPeJZBP5Pg4eMiQIVUMoOe6/vrr1SvajVCEPRggdtKeZaP9lmYlTkcUp1bFi1PrPO3e9q3z58+XdGE3At2TltYY5eXV+P6nIo5jz0RV7QhsKU6k00gfuOuOoq2tHzXRQfTcSkFhcRYSossREbYY4WHJKKnqS2+wdHuCRnV1V0RF/Mjn+mLd5m5IT/kWpRUdWI4EzrKaDI9bYC5hGeIREpzPTqIJNmxqhC+//hLnnTeSkkIzu7wqpOmY7AIHfnZIAQNqddZK5MQ47rjjQqjwDCF4q9mBuzjk60dufRGHhJWs8zm0ZHhv9up9DLPaYf774+SBBLM+TmzBBrE+hn7Tw+g59SY9t66j+KK5iFWvvfZaMIPLuyTiiIvINVH7Q4GjqDOhecwGssqvCl+xYoWtONF5lZX2SlvcNu6UuqdD+7a2pvvGu75AtTsd85Y2wsbCLthY0BpVnu6odSciJeFXlFYR3HROjY+dQnF5FTl2IjYUHoXkuLlUcpWRcqUEeQQKSruhzhONhNjNKCxtgRQ6k9TVRbI89EYMCua1AoRFZaKyKhVvjJ2Jk086EW3btfeBOABm1d7uJbU70Ut1qzpl1FYwDlkoF7yr++STT6rIoRPpfHISO/QRZDw5lMxWOnI+oGLQgXiZE8S20wdF6jZ0dh/D3m0COVs/fnz1/fffX7tq1aoIudtxfWObeOLGIuCh1PgMR1aZxJHZO5P7amgPzZ21OTfNGz7Orfv5AWwAp+PFp/6M6oocXHfVibjo9GoM7z0NXbIeQpv0OxFUt5Z2YjdKylkl/GaNfWMjv6UIXcIpkxdwiuQG1Lh7IcL1JdKTppCL0yHECqa04kFldQ/uV/GdEt+r2FtSSrAWIjGWGnGm5SvWcIjidWG3y2OfDfzsCQXUDkU7gVqi90UXXRS8du3aSAa3kHa7mlJlb3bs4+lJ9g4ZUYdteau9i3kJZ/udU+9vzmw6C5sbU2mUQJvwreReY6k8UKwmDxUMNRSpI84///wQKZEk1ohohxqIWVY7OTsWlVPil8CrJLuzkkxmSrpXmzol7dPTMxDqisGShR+jY/tnEFzzGce3NHWxyoOCcghKcmp3R6Qm/MKOwk2nho280JPctx1NVJ+QLlKaNUYYfb1jo37mc01QwWciGBQnKuwXiu1ZzKeM7wsm/Ypp426P5SvnY/KMeIw85xj6J0fZ9D0UpBybQIfZj+pQtFN9alN7HTBgQAg9yULZFqrpSabOvQvbwRXk4OFUiM6jhaOSn6n272Rq++XLDdgaOnPlq83XM5Ebn8eIDzOoHHqQvVsUFUSVn376afALL7wQwelpvl5Poqy2wyGpw6FHml12lVdabrl2+ic1AAFfaeCAPnQUicLypQPgihrA2VOaI5/MmqZOIKiIonE0ubKLoGRIIT4SE7GIzcCFrWU3MOJIDsEYxwYVT2XYJsRHF9Blk+P3II3hlbvykgdcOMfaJbwnF6dRxJ49/QMsX7ZMN9i0NWWxTwR+9pgCqk+1UXFp0VLKz+eeey6cUU5ChgwZUkmgR7Cd/53my5kMjHCx9EJ8iWpIeDDY2OP37uqBhgaz6X1UaG0y4fSjSP0Vx8aaECHbTSUB7Ga41Ej2aEHiaiKKksBxuCUnMJyg9f8O9epKwcFB9Ak+A+PGc0nn4ET+X7IN6C5ER3CisudXVNc0Isf2kPM242yrTxEbsRwFJa22zdqmoZmiNCV8pk0IrptHF9CtGiqzuYgJhDBPN2o96QgOXUunFG8su4mTppCbeF1dxVUCad8pYNqr2q8Uo4y1HvThhx9Gvvzyy1KEVXKFy2xGuBlDDfi3jB46eNsbDTZUYw0qejcUC1ShlJcKavMIhrDN5tjikUWLFslm3JLna+666y73K6+8EnH88ccHywXTgFi9nGnsvO+wSiq3NgFEM7ckdsvnV8n/mwR8nYuLj8WUaWuRljABqWlNqM2uIQAjuRVyemQpFV8lvK+MIE8kqDXuTUTB1rbUdFs0UU3j+TQqxPSOEorcZRxH08QVtIovjGPr8CpUNX4ODVpLk1RrW4y/78FFuPJPJ/LdCXbnoY4nkPadAqpP0VL1ryGiXEPJqYMvvPBCF8XwmkmTJrnZ/ltRN3QpNd7NsrKyFlPrXcQ32zjhvqEw2CAZqTBGhJCGOpZavespYvyXHzBI5DrvvPMqORlCyq1QucyZDz9Ux8Uq896kTZs2Qco79dJK/mA250JDQ1C0pRKbN36Odh0aw023LTmSqEeMjFhPamoGnqJvUpPKKbau0BiUVbfhXGYXEuKnUfvdlHnrngiCfTlNUWuoDMvmvTpns2iCPZTcuxqRMaAprR/+8+pXbGQ9wU7W1/h2VD5mEEh7QQEDaqPzUTvnTLoQmrNCqSitZAijEGq6e3AodjFF7yAqyhawvRjvMsMMDcD3ogT71iuo1Wjz2da4sNeZFC3e4HjhEnLdKK6xW/HMM88E33zzzWGyveqDxY3FiY8kzmA4rsbM6qDUOyv5g8X5v4rc+OeffsWgPhxzuznbLijJ5qqeuhg+J7JKaaZekiAPKqWNOYocn3bu4DnkrPE8J7Jr4r04LTmyDW7Tyatt6HojaskXonFqRyQ1aoWrr/0V1/x5CMvndcA5kuqAH3tIJNFUm9q59gocyfkELk7ksNavX19JDXgs28lwFvZkLoJXSJv1Eh4biVYVqMrbK1Cb2ufzu51ML2IKoHFxL4rUoylS30Ntnuw0VQRx3QMPPBBB5/RgcSqZcdSYDxfl1m5TY9uN+jaFphGwxZ2VnODddptvV1tTi5+nzucc5hSOi6WZllNHJTdDVlOnEqcVXWQmxemlcHMsHBQkHYOu6x0MvWsDWx1A/aT317pDEBaxAi1bjMD3UxcjvWkWZ1O1D3Dn+qRq8H8CstqCQC29EBXAQSeeeKKLAK7lHPgauiqnE8jnUOPdMzMzcw25dA4LIRBr2xtc7vFDeolpbfJdzaSN9V6KEC9RuSXbWi3Dm9ZKpKZyK0RzffUx+qgjTaTmt/qSAa1ALJ9edV7mnO+mbQeGi4vrTvpxHlplFSIldQNqq0IJMJHWP6lu1TASKUrLMUQc1wtk7506dv73nvWeq2WejeCuXoO4pEacGtkODz+zAMMHdUYCzSqcd8HrO3rW5BHY7wsF1AbEvCR6a2gp+zQ5dMi5556r8XTV5MmTLYre7Qjky7kSRyNiaQkBTs2ojzMLb7vNpXe3B9B9PpGadtQY9jRX0nPrdU4JG6FrVL9XcO2fcAZMczVp4o2EoY8QiNVL/RGSvtOMl3/ve1XJAtKE7yehVfNCpDdzcdy8nHSSE5w/oL1gE4jVAexZEt3lRJLJ8IY/okV2b4YpqsEH41Zh+NCe7HgiAnbnPSPoXt2tdqFNjE1J7sBDhgwJHTZsWDAl1iq6ALuoX+rD6b4j6VnmoTfkYm5SgHh7ci/2dgnqXYFZrUH3eAdoPKCm7mQ2xpe4NtPVdDiPo0KlgguuBXFcHK6BvQotkVr7I1WkJhl2mMR1lXbGlc1DXjDXYfqM2YzCWYHmGUXknutIs3je4s95zVN7vxfHr3XHUpH2Ldq3HYaP/jedDioJnDDSya4ncY1dlXnv3x540lBAmFASqMXksrKygjh32kVMuckUq6hrSqSm+3gqkI+h00k+j5fydjUqbcZuu1NQ7wzM4gF6WC3LZhVUbh1Fs8sTc+bMeYSiQQbPVz/xxBOeBx98MJJeMMH+9uI/YuPQN+/Od+seVeiE739E+1b5VJIUb9NoS3Emcu8xC+YzO0vKS51rDE1g+YzgWY5O7TrhnkenoHXLLGQ11wQNr2ltd8q+s7cEzu8eBURjMTlj0VHUUA5Xg2mudWVlZVWPHz/eQyVyJoE8irbpDgS2xtN0BfQNb4XLHQJ6R2A2PYCArBhJ6XzJ7RQFXuYLuisjrrpXNXr06PAzzzwzVONEMyY4ksfFokXDJAGeFuKSUrz73v8wfKAbqckryZkpS23ruRvmPc5cVM1UrtmhheYjLb0R2mXHYNQ13+OE4T3pfprsuzkAaB8p9uuB6Kz6NqYs4YjK4lBGmA2lrqlyypQpIRS9OxHIFzHiTixBv4wgV+gi09sLpzajNQV1glnH2iTYC/nRdLO8mAbvl+nFcgZ7EhdfVPHUU0+FXHHFFWFUudvsQyL1H2lcTLrsUxKQlQq42uP4ryfg1BEJnJP8KacwZrJyZXbcdoN9V0P+0DGHgAYyUFc7Hdk0FWal5OCfz23AsME97cCE20YJuyVdNGTJ/sh5CdDahCNxbE3aGTx4sGvQoEEWZ2RVcjgbSSY6gObO06mnqqavt0RvjacFZAFaDcbm1AKv/sj+IRDbSKcMP4I+xqMZA+lGejU1YiZV//73v62bbropgmPkYIFXL1fvouNA2nMKbFifix8njsU5pybCFTyTmmquUmHbivcXmFVGNZwacoMmrO0pNFH1QrBnIf41ei0G9OvG6Z1SwHlTgEMbShyYvYBsTFlSotKEFUQFmYvDW80mrOHytCkE8skUyQeSkWo8LWd74VVAFn6tei2HInVXqs//wrA3l/OikvvRRx91M9JHhJw+lCQWKP3RlFv2R+/jjzFLKZsvv5qALz4+C6OfGI6ayo95Rk41CsxXr0p0a4MnAdXtdrEjXobQmIvxwYd5eP3DTLw0+h4GWUi3G5VeGgB0g5N+tzI0ordhlAQzGAa46pZbbhHzFXBBh6yxDOrxJKXm2dsy5eK+3tSEPcBNVGz9hz2A5hfjhhtukKnJJZuYZgKpIeolAZF6G8X2cmcAMvHHKZzqWIyePaoZIjeHHNOYpfY/mNWZh4RoPjZneLl/QOcexyE8aCvuf3w6Bg/oagdgMNKbKe9efm7gsb2ggBG9jSlLa6UxdFEo1xMP5iy9Kq4w6qJZuAsZ6igy2SjappfzNSUC87k0YMtefC69UiIZRaFSpiaOi8Ozs7NZl95J+HpBgBvvRc34PSJ61nCI8tm4r3FUh1/RolUIHUYKCGb5Yu9QSemXQ0P8VYfhsevT7Saga75G526DUFddiPsem4ahg7r6vNj0NpU5kA48BYQ5JYFa2KNmO4hjaVf//v095MrVs2bNiiGQB1N5djLt0puDOMPHzfFvCF0yqxlYPogq8jATOUOZmF7iwH/KkfvG/IJCnHfBn/HcQzV085uJytJoSjxeh4ID99VeQGvuM6ufNuglCI28Gq+/U40xHwZj7Gv3UeTOCIjcB65CfvdNMmVpM6I3tdyK015D6dkiqMM5zvaEELj305+6ksufho8cOTJUkwScMnugV/5dGu/Vxfz8Qkyb8jEuGtmZCqjx1FzI1itN84HmgOr5a+xev9bTmHOjx9MpaBjKS6vwyn9/JYfuzhUyGCyBAkOgHexVVTfYQ6K/GKvRWclVmgw4hN6Woe+8804lfUDCgsm+pdGKFAvXm6kOtys3IFI3WD38JqPi4lIkJxYTKGWsHAFFXPlAA1nFkliv2FZV5Mweiv9tUVf1b1xzWQrt0Hm478FnUVlRzkbkdSrRE4F0cCkgXArUwqkScatdpHAcTNZtK8Eog+ukb2K9/Sfw02AUMK6eynDNmnVcW4oKLyqdbK5nO9o12Kv2MCMD6ArWPcMBVmuJm8dw2w1tsHbV9/jvWK066XVokZgXSIcGBUwADLpU2wUSjoON+GRkcWejOzSKfeSVopAOI127DSdTDOM4SN+n/vRAKb92RE+928WOpZQTReJRzqi+0dH/w5OPnoI/X30pJk2abD8kjhBoHzui34E/Z+rBSNC2GH7gixF4ozrOlFRO+6Zl0Pa6soMRHGy6CNBhLE8+w/r2QuXWX9GyVQ7eeuMWDBlyIdatW2sXUI3INKSDXeLA++tTwKv7rn8u8G8/UkBAKKA2G3VcfUIB+OyhstQWB2PM7P+hAnQ4Qw5xNbugNnTnHo3jhjGoYKM4PPTwE6iwx8/b/Yn9nw78P7gUCID5ANNfY5z5C5ZyojpjbXsYVdN+/8EUsX9LAK35HBoax0XqGHgoLgfPPXwmXn7pWXzw/lv2zZIs1CkZq8dvcwicORgUCID5AFHd6CakhVy6fB3HpOEEcxEZMqvAOtQUSwokWO3VtDPgfru2jUml3rj0sqvx9tvvcUxdYmtUveM1uYZ6bMcG+SX4b1KaBcTyA9PIArMkDgydfW/RBJWpkxcRv5ohJfH6YCu/fEXzO+DKIjrDkL/RkSG46prj0KvbuXj/g3fx+de/4oqLT8DRfboxCH88ubhtEPF7fvtfgTnggLSdHvvrKADm/UXZneQrMHMhG3pd0aRgx762o9nv5O6DdZrCvxnCBzGembUZyamNcc5pMTh1eDY++Xwx/nrPLIbt7Yfjj+vP6CUtkJgUzxU3QgnaWlRVVdjhkxQbPSY6CsEhmtThbWoSzaUVN5LKwfrCI/G9ATAfoFoVd7LNB2zInM1M0ZqOIprncmgNlx3UkNSgtJUKsRqkp1YgtG4i4tPG4aqLR+L44WmY+esKTPjyQ/z8Y1e4wptybat42qojuCJHMO3VHgZgKEOTtBT06NYCvXt35VzddNshSbSQ+C1QB1LDUSAA5oaj5U5zMkDWDcuXa245w+wpXhsbtY8D2mcPpR/FBeNY2VrHudbB6NQ2mqtpbEFtqSSJsYxb1hzNMwdgxJBWKC3Lw9bi5QRoEiIiW5ELN6bmuxSb82ahqLQrPvhoLlfBfB6PPtofo0aORPOslnbHJi5t7KSH0pcfrmUJgPkA1tzs2bNosx3GN4ZRuSSuZDiTkWn3V2G224a94u1uvE8dDcuJuiKKzHVIiagmJy2kyM21wTztUFWmVTjeQmx0AmLj26BpMyr0IG+kOewA5KPqQoeOmtZZiyH9s3HckCRcfPnduPPON/DT5JfQf8AQG8hGQRYANUm1jykA5n0k4K4eN1yZkRfRo8dgPPLIA7j/yS8oYdM0FcTNq2XaVTZ7dd1i7Im6OsUcC0MIvc3oqm+PaS3at0NCdkeDTukhqAlqa4q5bOwqPl/E4qYQxApFpQkYnVDFNaktaxnfofxqeCzFHh/bNuzWvlFcOi465yz06f4g/v7QFxgwcCjee+8DnHnmyeTi3uVwA2Npm2z79BMA8z6R7/cfNkDmPHHcd/8/8c9/jMJVl2fgrrtWE0ycR8zph14sk0PbB7+f3+5flQ1YIYK4uE0Uo5cEr+JcZb6C7wiPYi6ephzTRnAs7F0C57f5inNrjM/mwZUjw8NKuJpGDs/Rz5OL2HHES2Dregm/Q9IFv8VOek6abe2VaJYi6KvKFxO0z6BNdh88/8+WOPX4RIwceQ+uuX4Rzj6jLyfe9+Pa0eocvBJEQDnmpd6e/gbAvKcU24P7TaOcOHESxr75EjaseAKuujGIbH0cysopinIsas/7bzAgCwwM48otIooKNsb72pwbhZVrz8WGTVrBIgTpTbagS9sZiEuooFOIAKTlbXb0UdI6hzMEcDUym6whPLWIu3oCAdkkM0wwyjJ9SH3tfBBF75DQ5vBYLnjKp6NRwnScf+Zw9O7eCd9MWoaTr5iNUUM+wO133Mi53R3tjE0naN4S2O8eBUxt7N7dgbv2mALy+Hp9zLt46IG/oGnqAgq6kbjlvGZYuHAu8xJ3U5a7I/Lu6tXSECsCZxWVULnIzyvBO+9n49b7m+F/40NQXBZDF81oTJ2diEee64Rly7laZXg5368JFjvuTYKClGcY18JaQrPTFhbAu7rlzkuij/HfxC+qKAWU0kTVnlP3WqDO/R1jdi/CNZdwhP1pf8Q3SkL79v0wdepkO2t1gjsr087fHbgS4Mz7qQ0IHwIqIyri4w+/xV9vuolv+heVST3Qu1sUpk5fzf8CX8MkceTQUIVrjcaceWl4eWwyMtODcP2lK5HZbAndR0PscbLbHYMx78bipvuyMPrh9QyCv5TB8ZuzEBTHd1AafYPHE81r6nj4UXuVzFdWkNtz3F7XBu4KTugIfYvrX23Gw3edjZio69Cv3yBMm/Yz40f3s8FsJJu9euUf8KEAZ95Ple7luMCKFSv5hmhkNOHc5RrZl9ewAcdhaxnFzppoNm6eIhD3JVkU14ODawm6asz4tTXOuKElmjb24PorNqFP3xw0aeKiFxcXcQ+pQExCCa68aDb6dg/HFz/0pYmsPTuBTTYHFmB3lARi8z07ur775wRqLlbHkMLBwbFcMqcDqkq/Q1TIDbjt2jj85cYbcPTR/bFo0UIb9FKKBdLuUyAA5t2n1V7duWTpSlx6UWMkxuVSk6wsitAofiWnQGajpDSBThYCswSkHQNpd14qrXWoqxL5hS1w92MMfjA3B+eeugHRiZsIlkwC1kVHDi7q7klBRXEjhEVH4pKRm7FyTS2WrXAh2FVKsO5bh7I75dx+j0CtMXkZpYUu1IjXIi7iLtx7awtktDseN/3f9SgrLeU17zIu258LHP0eBQJg/j3q7OM1+SOXl1eiWdM0ipT5VExF0ifbg7ioBWibbWHuPDqQEM1ec44RRffspRLn7aVgOV5evTYI331ThcfuK6Kii8qwSubNtQ1CGRlKwe9DyL1DQhiqqKoFx+9T0b+XCxU1fYgrLdauqCcHetSl5reFZeqIalq0kuLG4tPXB+Kbbyfi9TdetgkRGD/vfnsIgHn3abXLO6W0MbOGdLP8kSMiI5CUGGs/a1nVBFciwUXRu2YyNuZrjSet/CgN8N5UhbTX9HsO2YyKqgyK2MqrHMcMSUNUTC1jepFjk+GKc2s8TGGZoA6iOM7xMyWCxqlRKNwaRaWUPLG0jrZXDObNBzBJIqBkENyeiwHMwlHtf8Hop6/HX/5yiz1+FpjlWBJIu6bA3rSgXef6B7pjRwA2kwo0mV9LjWzKnUeF9RYCKY2A0ThwI1pmBaOoOBE15QUEvUxEezM+JPhkKyZAN+XF4JZnQ3H5RYXIzizlO6opCexIfJemWPbiZDRN+QVNk6fyOJFbNLmzyrB3EgIf3IekKZfyHmtLl/VPMOp0NwYNOxWXX3IBuDBDQNzeTcoeaLlqN4t1aN8mTmE8ljSuM+BVqdX41q5dhzlzfgVXzkThlirUlsyhrzJnFYWlkMtwedWgNCqocrFyXCIqqo9GQuxyVHsSCSZ7UL3bHy/vrtBQrR3VFHMWkHttKqJDBsXVhDLakLl06E666uBgD7264lmGxUhPk5gexzz2RVu920X+nRvlqVbD2WRNkRQ/AaP/eSU69xyH1159Abfedjc7IG8whIDb585JGADzzmlT74rAqwYlsU8NyjnjRwHJ5a7JhfYwZcoUMI5xvWcvPI+xqCu3IiJiA0ETa49jo6NyERvTDUuW1XBeMMVvemh5lWC7yxmlMHOxLMXYtLmapqjmuOKyRPTvo/ML2Gmk8dqOzU0S6S2rlo4lNDlxrF1T01Daan3DviSWIziKy/UsR6dWs/HCczfSS+xvGDZsOLr36OMDtOpB9HfWwb689Uh5NgDmndSkGoyZBKBG4+QIGhdzrR9w0S5y4Dn44YcftLpAvZzCwsKRkhyLtKZtUFmbirz8eVwHOZZulR7mG0IgByM1cS1mzkknmBezk9Djuwdk3eVhHiEhjCPGJVonTW3C5WErMOXrMiSnbEF1RRwb+s5EZj1Nry8uh5PLJbwjIsoRHxvK/MTG916jzocbKGnsTseS2ndx1vFn46NjBuCSy2/FuE9eR3aLVvXqwdnBqo7+6HbpAJgdTdCIcjol8DoBLE+u9evXY+7cufb25Zdf2pzY8TgdM+JgFtnTEjSbNxUgJjYZH31Yh1uubEGs5vD2KDZWD7XbFejRNRQffJGEsuJKREW5KGJSBOf4d1fJU+flTKHhdZj8UxFGXR6Nd17JQ58eBVy0XUowTqrYyfhXptuIqHBs3bIWL719BgZSmT2s/ySCWWPpCD538JVNsmu7PVlISZyEf92bim7H1uLmm2/D0GGDkJ7eHEcd1c0O/h4R4Z2kIXqZoY+OVW9/RGD/4cGsRqDNiM/+49+cnBzMnj0bM2fOxFtvvcUJ9+KG25PAKxALiIWFhVi9erXvYji9H5cuXQLE9qeTSCtYtTMIVq4aQa5vUUTOzqSoHdsKmwu6o2WLNairSaIA/PvjZj7KsnJtqIhKzJsXg0FntcKLT5XjzJNX8HxrivFaH0wcdmedgp0BJYUa3PdQHl4bHQZ3n1COr+voxKG8fcU/iAcS+7kAuTsSXTuyA53QH12HbsSvs+9HdGwqw/7m4U9/uoxL6XTXEi3IzMy0V650it2Ga+uc8/xB/Kj9/uo/JJj9AeysbK6qxwACy20AT548GR9+6F3RwVkTqampDMgXjUpO/5PCSyB2JnUMAl01x6KNU5OR1boRFi7KwbEDk9mwJEaKkwRTUbUZrbMqsWJNJmNUzyb8UpmNzFQ7RpSe07UwMqRlHGt3HRiP++8GLhnFMD2uVM6E0lKt4qw7ft57ntepaNtS3JP31SAiXD7XagYSy+0XcH8oJAUCDCGHboQuHRfj63dTMeKsNhh5TmN6iC3HU0895Svk+eefT1fQfjawW7duDdWPU6r6owD7DwNmU6GGAxsAO8e/XGQeEyZMsMfAvpay7YALdCE8PNzmzAJvXl6e/y2+/xLXDaASEhORzLjTOTmzeC6Gm0Aj26+L/iIcNyctxk/Tk3Dc4CQ2wFqel1bXvmUHPwRyWA3zAi77S2MMGgBcecEShHM12MoyrSS5847A+06JoNQFsJPZuEn+1tFonCIbszTFh4oSbPtneyd6sGyMKzakfw6efKQlbrprvR137Kepi+glpo4IjBj6tr3p+JhjjqHCbBhF8aPQsWNHWxx3SlvOdqA2cCSJ40csmH9PgSWOKvFZyisBmKvS29xYjcEkNQCurGeLaMXF1BhTY+0FqfcOL/fdOScTIIXpEDaYiHAXO4EN5MZN2Xi0DrO4syZZVKNdqy0YN6EtXSvT0KplEaoqogiu345b5TcRHua2XUCffikBU6aGYv7PVWiSvo7zhVP4zM4UXuaLJA1wfnNEMIpLwjFl+mxe6I60xgkMlEDfbMrYmkF1aHFndomko8cTxk7MjdNPqMS/Xg6ne6oHQwb3w+effwFxYs0Xl0QliUudsTalDh064MQTT0SvXr0YfLALl6htBq1yapLuF7iVjoRx9hEFZqPAEtDU6zpFra1bt3LBtjW20mrq1Kl4+eWXTZ369hKdufC83Sh0v2Y87Sw5gb2je8z10tISO0726SPO4m0rueVy807El1a7cWoVOrSqxLRZLdGq1SJea8uNvo0OUVn2ZJdLqzSG4qPPw/HEsxX4+M1KdOpYy4XaaZ/meHfn3JxZ2cnrLYbgAtq+s/DTjEw0bydw08GE0UEsK5x5/LYTMU8f3L086zQXuxDXXhCOux/Mw5+vOgVpTZrZnbDqOTIy0jdu1tBHCstFixbZmyn7xRdfjIEDB9pcOzs7G0lJ1FGwnZhkuLbOOc+b64f6/rAHs//41ylSSRRetmwZuBg1Jk6caHNg/wrhqvN2b11TUwNxYGmsd5a08p48urRippReApwiUEZFidt67GU2PZ76gIiJiSVgk+wJFWp0vuvU2HrqXOS2NejVZTVe+G8qThtBQZzSb02ttNVeWVtit2ZEBQeHMshAM1x+XShuuX4LjhlEGzLDh4hrSUzeVZK2OiyslnOJG2PWnDBMmxGJx+53c2lZzeTS02rU9cu+qzwP1HVRQp2jy+WmuC1vtZY0Da7jDKte+N8n62nyS7ElJ7OSqYZDGjerrsS11TEr/fe//7U3HZ9wwgkYOnQoevbsyaAI7Rg5VHZ5uZZ60+EI7MMSzP4ANr2oKkDcdMGCBbb4/O233+Knn34y9ePbSwMts4bEbWmnTWX7bnAcqILF6QVk3S+tdWSEd+ys2+R2vaVU7pHeJJCXlZVy/OqiM0YNFi9ZRt+ONC5gLjG9gnnRaYQrWHgbqJw3gtC6xUakJjfF/CXHU5EzHp7qDmxYZbwmgEnCqERlVTomTNbKEnk470wLcYk8VxZF32tpv73A95bgt796X3CQxPcl+HX+ADz5qjqfVewQXIiLr6a3mExZhyaQ7a+xP49KRSoNW7eo4bg4AdNnLsGggX0J2AgbyOrEpf9Q0qohRqeh+pO0FRUlH/RqrvPFzovpq6++sjcdSys+YsQIzqPug86dO9viuDoCk5ztTW3tUB1nHxZgVq8sgmpvRCAD4KqqKpoq1tm2X4nPH330kf3fVITZq/dWhav3lhhmxGBz3X+vRiDAm95eDSUjM5tcIBmzZ83EoEGDUesJxdSfl6F3n0wOg9eysRRh7gKZrkJtIMcQMyedchLee78AD9/O97uWcXYQF2bzSXZSPIUgIb4WpxxXhbc/iUaX9hTCoysIXkoBLn0zo3TQK2prSSaef6cW/3fNerRvE0czl4cQFkv9fSCL7UqEDo9Yy+mO3fHUSy5M/Wkr3no5AZ3bF5FTy7MtlO/YNXf3p9GB/K9OT9JFQnwZzjyhEcfFuQR3GUXtpli3dpXdLnZUHnXwW7ZssTddj42NtS0Rak/5+fl2O5DpUZtSfHw845ONRP/+/W3tuMRxPWPam9qN2oIZyh1KwD5kwWwALAKLkE4RSNxU7pOqAHHeN954Q7fVS+Kk6pGVJGqp4naVVDF6r8Zf4sICspRgyY1iUFG+iWPaVIrk4XZQjuQkia0WwvrmoNpqhtTsszHuw5/Ys9egdOtCJJPTpmd0I5BrcPaZYRh4dB4bnx1Nz1cMaWvNtMOMtGmYufB4/Dz7Rhw34GkqzVqwDCF8B+NwuSsxe84aLJ7VCY/f0RlRkZ9SFO9Aukgi8PUMvnydBx52OBGRWxnDug3e/rgp/vvWGlxy3noMG5CGsEgPlWdyjjm0gazvkU5AdRMaWkrnmGj0G3ohNqyfhj69e9hgFgh3p45LOU9am5I6awNUDbHEGLR/6aWX7E33nHbaaRg+nO6k5N5SthmmoGtKh5I4fkiB2QlggdcJYIlHS5cutZ03vvvuO3zxxRdeajp+BUJVjnpOAdiIWo5bdnpogCxtp55t1aoVtaHt2VCWoZbB3a3wZvh2ghRiXm3o7PzWeOiqYpx3eg/ExVJhErIKZx8bjbyS0/H+Rz9ixrT1yCkqxL135OKy8+OQnFROuzMDAeyIA6qRumKRHFeOe/+1DgV5A3DGifPoIMHOiLOtLCsdJeUtcMIZaejaWVMC9Rny1vI2yp19lOgpoFp1oZg5Oxj3P7IEUSmRuP5PLThG3MAph1w6Zkfl2VmGB/W8VwqRFaBFcyoNW4bglVdWoH+ot8PesqVoj0sn8GpTktQmhZj26sgN4D/99FNoUzr66KNx/PHHM5poX8Ysa09vNO8KHfZF/hhx3EiP5vyB2h8SYDYitBPAOif/Z41/p02bhm+++YYB36b+hi4Cr3pYjU/3FMDOzNTwlZcqsSkrSVx92YocLFlkYdjgYrRvl4YOf+5GF8M5DHCnyn8Zy3NG4tupfTl23YgY18c08TRFSNRRXI4lCTdflYu+PfM5Fg6yQ9XWuncCZFvpFEzx28KXX0jU24DpP3XFzddl4NzTYzlGJDdnyNtFy0Lw1SffAA9QGRbeHG7aWF2arLzTpKGJi7Qp4GoTrbiUjMAQhSf/1hgd2rJT4l85rnhNWjvNZDcvODn7rsR+Z5bmOeczOqdtRxKHFqePpNSyDF3bJfOebLRokYnVazbbCjEpvjQu3pskBqDhl5LAaNqVdCRGp6J2qE0pKysLJ510EgYPHmyPs/Vf7dApjuu+AymGH1QwC0D6WEMAEU7ukJo6OGnSJHzwwQe2ckNEcSaJVOpBVXEShU0v6rxnd48NR46NjWM+JeydU3DiCcdjQ84yBsKLxHWXBWNwX3pnEajxnKoYTZG1quYiFBR5MHPeRnRsFYzuHT/lyg4ZbAD0uQ55ilEvW3IiBSN8kLqKX+2mQ4a3gdYvlVdTrdUWQ5CbJ++vzejQGsjZtA7/Hm3h3y9n4txTOFUxzYUJU0px8omaqrie9wnEBgj189z+T84ndCLheHtTfih++Fka3fW0a9cxcIHC7Grs7rWxbn/GeaT8BTLzHifgzH3mmsuWFkRLryJN+fo/r2dMfpIuNMSI4v0CraKEaq9n2JraXBEAAEAASURBVFPSdOfhYvSK671dv8CrVOSJZhERHjRLo+cM2jCU8ArqFzQ7jGoLArIhkhiJ2pRpV5L4pEDTeYnh2q9ZswajR4+2N73z3HPPxbHHHmuL423btrXH5Tpv2riO93c6aGA2H6n9kiVL8P7779tTByVK7yhJS2xEIBG0oZLerx5dQNYEhR7dO2DtaoqjCe2pTFvNSBwx+GX+WWjcpDWCrSLMm/0S+gxojKM6J6Ffz5Xo22sJzUmNWWnUftrrLDdjk6xhhYdQ820qc+el1bi5utqFWfNTeNN0REY1wtlnn0pOs54zsb6lyG6e7cRxLl0wg/jtXJUxCEm8sDOPLwElgoAQOBiEvjoRkxd70Lv/CCqQKJrXkcOjHbdKbvVBKrCQJPwGaXOldafGnb9BfJeASrzaSffUUbEWrBPWUirrCFCedLsVgqiR/X5Ns9zOYVkmOstIqy47ejgtAgharBdxn83MjG19tU3GsPA0fh6DN9TIAuB9qQCvheCtulxKSqfjrr9l45GHbqdpqS22FCko4f7RyEvs1qYkLbeArbGyJEG1H5k31X61mfTQQw/h2muvtSU809bNtf21P2hgNh8koghM8q1VD3jXXXfVqxQ50osDy+RkxCA9aypYhNqXZJRd2S3aYEC/o7B4WR5C2ZD+fHYzXHnuSpZlE+LjLIb+qSQQauC6vAlF0+cIYDc5RBor1SJoNXvHcDmBQGXylss0fv8yekGjMW0V3xmPv9y2AW1aJiI+qRPeGDMWrVtlUflyig2sebM+w5oNNeTwbPN2oxf3slHgn+22/6E0Wa1iwyOYXPE0v6UzakIwhvbPpAJvM90jdZvyUHQPgTfYprkkJDtOmEt5r+alBL7Ga6O16hrZQPVGEvUwf8YVC12mBS/otHIs51R7SA+a6pLY6D3imnxeq3ZYDr/1YGn9CeDgdKyhBFblvpw+4hGYO+cduMIy2Blw+OLqgp49+qOi5GM0SZmNjIyWpK9Xe2x/MzsbMP53clIBubJXFHdredz9mIz0pldoOKc2q8kd2dnZtl++07no/vvvt23XTZs2tYGvZ0xb1fH+TAcNzKa3ktlA2mhpjaVckPZQoJWm+vXXX7cdPgwB5GsrUVyulf6zl8w9e7o3CpCYyEp88vUSnDI0Dnf/Xx5aZd/HToZc1m7oy7ivYbNna7U5SzgbP8PNV7Mxqd07kq2h5kkvL3Fc8B16OZ/Ex/CoSiq7WuC/H2bw6k/oN2CEze2sukk0r0mcDuK6TANxzIgL8OprH2PlisUsh8ogsdLvxXb+eqvyX8tZWiczLFELSj3r8NnXOUhK3YoKRsEMIncMYX/DqLzMQvcqIgnDG7FD1TKzpfTx3rSOUTFxDl0kt7CDTWBnFsLhxWoCKIcgLiZ4U+kSGoyCLedg/uIg5G3JokNLMGd+pSMybB3yN7yJfn0v5vpUa9lZudiY1czcqKxYjsjoP2HqzDxMX3Aulq9cjzuvj0fH9knMu4oKwlK4rfbIK4rHo890wuUXXI4TE95jx7mQAEpiPuycOGNMq1O6a75mFJISLvaegMJ8dR76lh3RhJf2IjkBrHxlHcnIyLAZjsDrnB1377332p5lcheVqL+GIviTTz6Jv/71r5DIbdr6XhRjjx45aGA2pdSHykf6s88+s8XoM8880x579O7d294L7Jp+KGAbW6CeldeOxKp9AbaLi4Or12/VMp2a46bIonb4vlvXo03rKnhqs3lNAfGqGfxOACIL8sixn+NVitMhPO+iG6UXVDxnczHew0XZYPtfC+hsXM4GZrNpApHeXGydVO7F4qWxCfh+SiH69ErCex98xQZf7FPEyXtNW5tWHMeffDIyM9iIacOuq36K7+/Od8vcxndvS3qV5jGHhKQhv6AI439gJKH8SMxf5kJRXhGefXYxMpI34qJzG9ErrYLfp+/Q7K7mWDS/DN9PZiijda05Zo/ArMWbkLe6Diec0oxB8suR2bQlOrZpweVl8rF+QzHW5LZiByMxOp/a3aVcbiYRtZVcsYLOMes2JmDai6UcpqTg8mt6IpR0ymf4pE/ejsHgYYU4cWgdLjl9Gtq3zuXMsQ8QGpZNkqqjYS8TNIE0eA8fPN+eHZsWuNtMEtIzR/TnHd6k4yT0PbqFvZgA+xsmXWs4MBsAS2MtsVoAXbVqlV5kp3vuuccGsAAuBqPh4bhx4/DMM8+YW3DHHXf4jg/EQRB7E0sujD///LMt6kqEcJqE9lchBESJdXKQv/766+2phlL3K3qHSaeffjpOZiOWk7yUXgK2JkYoLI/Ka5KALYLKFGWUFuba7+3lMqmxbdcObsxdNARj/uPCxSMnsk0kMD+Ni2qxZWsK12kqpojbnJwtgVLDRgImjO6cMeQYddSsSoEnrjOL48A42oAb89lNbFpl7JwU1kcmNomxHrjppongRpQqGKx+dgSuv5elq6xgo0zCkqXr+H0FtmgmUU5Jz6o+YjjM7NTlaCzfHIfn7l6PUWcXoLpSY1ONY00Dtx/Z9kNTGTsmj6eEzLcdge3BslXNMPHnWjz4mLdB3nKdhwuhR1JTuwr5Wwfiva9rsHV9ATJbxKBd68YMXlCA9TlrSM9iDB0yCCUVYZj4vUTuak5eSCWwK9Caq2H07pmGrIxglruKIvdSfnM8wRdFpVQE6dYMM2ctJ/hzyH1T0K5tNhonr6FysI6SAGnikYQjDbWz7IQlv8k7VTSH1zK5ecVpc1doCKWBwjKcMCqdJsQ2+GXG9wwzXJ925t493WtMrBlyBsBmrKx8NA7WcFDX1d40VVaKWieAxcHlYSgmI99wten9wZkNThWmSg4ukgoOCc6sgilp7Gz2GidrNpM2JYnfp556qj0ekdZQYrZ8rt99911MnDjRvkc/bdq0sQEgB4JdieLeRlSH9blAx87V+PmXOERHDSO+NmBTQQrW5pRh/sIKTPpJrW0twpqG4aiWWZg+eQUi0qO4MqKLIKdJLKcUzdr0RifOW3bRvfKHKRVozkkAqQwT1DQtmRymlg4NhdiwsZAVncopjxVIbByOY/qFoLBgE6ZOk0nKC16nRtYAtYxDQjmubK2KwsIlHjqwNGYnUsTx2878shlwweJqGVyqRu6f6U1CGbu7EH17BHPRtmh8O9GFZ+kLvnyhwOnCqPOaYEiPQiyKXGNP2vjm619oTmNwgJo6ZGZlYNznhTjjtGh6jXkYBDCfirUamoMq0bL1yejcgc9Y0xlIgMH1Q8lhbe5YS80/vzFhCUEvGrXgmJhSjJVL8EZyCya3N1Mu/TmqV/SXZxyQxa1+sqUP+qpvLWkNKyyNHmxllLxl+/e6ada/e/f+CYDyzRaAxWHXrl3re/CBBx6wObAAbLvnktm89957ePHFF3336EBtV21WTiUHghnWe/m2P4cEmI0W0jRk9WRSTKn3E5FERKfxXmA+66yzbHe7YcOG2eYCcWwR2Qnsli1b2sCWw4k0j/5J74mICOMsIq50mFWOGbOAT76PRf4qNQ5xsDq0JUfp2zcW69YsQiojaqYlhXN9po2cSzuXI+g42+mgjNrZlk0GchphET77YjJ9h/vb46uysnKOC+khVl3Dhh2H7Kzm1A2kcgyai6LCfHLiWsyZu4CcSJxHrp3eTs2UU/SQ9CL6zP31O+SWd8C0ea2xZEUVunebzyCA7djrV/N5P9a2LQNvZxVOOupEqD3Zo13rairaKnHOaWH4eboHX07oifmrPOSksdSkN6H32jw2Ronedbb9tFXrtnjs3g1cW3kTyitc+HFqNj74MgIJUWtwW8c1lDa2kCtHc9vIcsZSIpGCKIHrSWkoIVOVNur3qwXa0G1lNUBWufzLrv/+53SflH+MsOIqZl268dUPrTF32RLkLpuOzVvCSCe+eZtE473793/FgQU8AVgcVlNileQ0pLGuHESkxFIbFIeVNCjPMGeSLVo6F4FXbUlJZVDncDDSIQFm04gNQURAEUUNQb2diCWzlKYo6h5NoNCmpMnosvHJ3U7HMvDLTv3xxx/X8xLLzs62QaHAAk5gV1Vp3aMgTo2cZ+fXuVMbtOXMnJ9+XouBA/qxUddStC7ExtwSbMhdwPsW2PepaVrYSnGWvI1UnDRpsu/89Gk/YuYMqpr4HRVV5EhMCiGkSo6IiKJtvIzg8QJX3yj76c6SoUnOxiB0aLeFK1asxPNN0riUywBkZM1FbYVoos6Hvto0HVFI/U1WfAWTzFVqbPrDqZcpBTjzpGoM6kuFTc5GLFneBO+PC8Xn8/tywgEQR239t9+tRKf2CdQ4x2H06wl4/Cngr7eW4Ym/r6Z/eBkVeN/wteGM2d0cy1f1wCRKJJ06puHYAb/wOyvIwdW8ZBtmqX5bLBVqt5Kt+Wc+4ZyuWVvTEm+8F4qbbv8Kxw1vjm++U95a5H3XLxCAk5OTbUYhd2CjhdYQ7s4777TFVSliJVoLwAp68Morr/jKqDYoAKv9qJMVkNV21V6dyUhUpu6c1/bn8SEFZv8PFTHEnbSJQCKiAbZ3CiLqTUYfNGiQ7SSvKBMKKyMzgZRrArYC8JkkpYWStOaa9yoHBi+oLMxfsMy+FsJx2eSfptjH3h+N47TRCUSTE2zuIdsqm6tbE0AUfldj8Dquvewd8zoeZqcgblfLa14beUgIFVkcR++qwnVd36xGs2hJLiflZ2P+8ljc/68iXHNpdzqBlHOczjJT6VZba0DtfHP9Y4FKDb+2luN5arE3F7bB3CURFIcr8cjdOTjn1BA8OZo+5v1uxzHDT8IrL4/m0rBNccP1HfDLxLU4qtN0BEdSIikO53TRE/DjFDfe+DgFGc0YeK/1YnpmLeOssvUEcjy7lX1rXuoEVFZXKPUrDNiwem1TfDAuCXfcsxjXXnMqcjfLY2smOSyjn+4g8ovqVB2o3DQl6UkDLa9CpWx27ldeeaUNYInYAqa8DTXP/c0337Tv0Y+8utTWjLOIdDKqi13Vmy+DA3iwb9RuoIIaMfv3CKRrIqI2JXFgAUu9pSpL13/88Ud703Vpwy+55BJ7Irpc7jT2Ecf+/PPP7ZlVukdJopSS8pMUoAYkLqZ5x8rf/seTyl+gN2W1L9iA9h4JmMSxnUzPrD/bv0nipve6fhV4b3eTvlmNSg1ua3ElpZBEvPrGQrw6phR33XEq+nRrgR6dGNC+SR7fwWFJLeVkls35Pue7JPba30HnjrYtFqKkOBlvvM85wnltce5JoTj37BQ8Pvp/OHZIN3Tr2gXp2Ym4YmQ+unb5gVM5O2Hqj2EYPzEVS3JaollyEW65YiX69Z6H2IRlWLuqBs+POQPHDcpBK07t1HzrnSUBVWWUBl5hlERDu1PlA5RX2InR7u2qYvnCMG58UzzwtIXliybRsScLP06eTvDNt7M2QNaz2tQm5MghmmlGnZRRSjJtXnbZZbYILQ4tDiyFq7ivE8BqT+LiahNiJJLmRK/tdWlnt9Mf0252esN+unDQwSwiCURKIqCSKkNE/D3i6Tm7QfJ+KbvEvUwvrOdnzJhhb8pPE9CvuOIKewz42GOP4e6777aBLVOCpkyapArWs+qFJTp5Abz7lWjy2XG5vWKuuWdP92ZsppUytI0YMRyNkgjqN6fikRcao2/nNFx8VhhOHF7MdZmpWaYGuJaRSZxeW9vfKaCIxpu4d9MmXExF1nJy2Xi8+FYrfD0vEjV5yzhMaIvmzVvjw2c/xPMZrdGx3TBqqN3455MhtH/X4P5b59AklYsY2p+L85vh+Ze64uExHGPf6EZ6U4m+9bXQ5v3eDjOY9VXOMgYT8PHsODcyllksxRwq5WSX5tChvLwOi+ayo3kvCc+/vBmDByVjyJWjyD1fs7NSfaujE4BV/xKBpWMR9zUA79q1Ky688EJbC60xstx/xYEluTmDNeqa2p+Aa7iwXrLjujRfoo5oeweis/LpN8+Y9rn97v17dNBNUyK8wrmYuE36XKM5lEgjwqjC9oQw6hlVuUazaJQbylvT2GQK0xhb71HFqXLFseULbpLGUWosKoPebcphKsrcd6D3anBG0aNOKjMzg8qlUk4JXYfFOU3pKw7cdV0pQV3ChlXCIUCYPXYVgIyiTBMwwiOXY9nKs2kiC8XwAZ8jLZMiek0ElXIMpj8jAw88vgm5ZZ3QvjlD8NKlcmtZGM10FVizYibuuzMNN14dhoTUPLpcpuKX2dH4811NcHS3MNx4VSUnhyyhCY5AreK8a8U6Y4M3SeXQEEYrcaxY3RGfjo/Hemr527ZqjLYt11Lbn0aAe7BqdS6Vc2H44ZdkrF2yEMOG0vTiirPnrcucqfrREEl6FAFY50waMGAAzjnnHLsTNxxYdfzJJ5/U67wlXoueUpCqs9zdNmY6D9POBGB1AoYpqRwqg7h9VlaW3XacNDDl3Je9MKE27jRNHTQwCxTmAyUGaWyrucnPPvtsPZOSKkNE1nhZ9+sjxLV3N+kZgVJhZLR3eu5I233jjTfaorjEbQFbpgkB+6233vK9QuMtiWzq1ZWfyrMrycH38H44UCWKDs4kTXl60wQ6YMRj4sRaXHlZNC48uw4d2uQiMb6YY07RzjshQqahiPAqxutugmdebc7plVH408hFnE21lPG4m3AMUIG8glh892Nb3PzwFvTpko64GHpBhbrx+phV9pKxp53ADtZqRG8uTkX8uAsuPGkBLj53Ibl0BAo3JVPr3Zh+7UEYeVoRx/QlfLdXpxAaWk29QRy++b4Mf/93K+QUcA3IDev4KfLZTsNZI1tQ4VaD78evQXj8ZnRpHUK6V9DbLohOGyvtT5YYrO9XfZkkfYkcjjS8UpuRWdIA2Exh1L22PZbSlzj3ngDYANfsJQU4OxDlPWrUKDsckTpZtS11MvsrHVJg3tlHisiqBDmFvPHGG/W8bqSIUENWj+wE9p5wS/XE0lhqL42mSQLzzTffbEdylNePGoMmgEhxNnbsWHObvZf5wmjZDbB3t1evl9E+/hEt1NGIUxtunZQYA2nkC0sisWBxKP2xa3DOycEMEVSLrMxCfjfjgLEfcJNja6J/TU0Bl7cZirc+zeL6TusYAXMeWmZFcKxKTzZEYsq0YFx6/Va6gx7N6Z91pEsxfpzJSRGcqZSRHYKc1XEY+2IdLhi5ger6YCxd6Mat97emoiyMnclaBvpXpBSJ9bSPV9Rh3uJmeO2tILz8hhsD+ochb/MSgrKcIMuioikWP0z6BXEcbfXo18u2k69bt4FtYDXB67a5sRPACvWjWF4GwJKipBeR78H48eN91JXCU/UtpqG2s7vtRcAVA1Bb0yYpwIQdMplfcMEFdhkUAbR58+b7FcDmndofsmA2QDBEM4UW4aSg0DxmVZAWZjNJRJaN0IwlxSnNONfcs6u9ek4jasnWaJLyfuSRR3zAVgMS8LWe1Kuvvmpus/e6V41DjUXfIVCZ76l3437+I9pFRkawsQqEVPZ0aMWZTLXEXCy21qYjl5r7e67k2s2DImln1jxrApIzvepoPgoNL6OYmIB3P0nF/yZwgsewzRg+aDmBSJNa4hb8Oi0Wd/2jLZatrkA4x7Y1NW4u5HY0Isl43vx0LZ76qwcDjt6EzflxOOmaJPzzxi249bp1CAqjLsSdzqEKMG9RMt58vxovvs73Ukl35Z/6cIWK+fhlltdhRmWOiorhuFccmgu8VlajtEROLfWTQufKK1DDJHlayStQna4kKed6X9nUVquzE/eUVLe7ANYzqkuT1EakCHOmyy+/3I4Z1qNHD9ufwHm/qXv/tux8viGOD1kwOz9OoJQ4K6AKKCap0uSnPH36dFtxodUmnEncUs8a5dmegkpitDi2OJ0ah0mqTLnxqeIkoqlsAr6CJThtkOZ+NQblpcazJ2KceX5f96EMWCBNvGm8R/fpxYgYqeQsnDNdEIqfJ23AUd3KcNsN6eTatUhptIqvFOeR9r6c5p/mePXtJDz8+FY8/lACzjo5DM2a5OLxZ37F3Q/345CkxGdrl8NOZmYzTJ6xESsXScpZjRadz8Jb/65Ar27rufJlFqbOyGF44Ehy4nJe34xzzu5NE50bM2bO5brVG21a6ZtV11VVCpj42yGUwCsQOwE8b94821/f6dYr0Vb0z83N3SO3XrUZ1bNoJjAqD9WzM2k6o/wYNItPnN7ZNvWMJDlxbud55/MNfXxIg9kUTmKQwCOXuquuusoee4h7iuAmiXAClICt8EFOG7LuEZiURFjlK5FY+91Nel7KMQFbzgPO9PDDD9thYwRs9fgrVqywlXf+7n16RmKacXSRGWRPyuB8594cm7GdcWjQ96SmaGXKFHg4ceGHH2px7IhYnH5sLk44Jo+BGORpptlBEuE4q2lWazz2QlvMXROBy0+xsGbtJrz+5gIqoUppn+bMq5BwSgHltBB0oQTDpWkX/4oNa+ej3+BR9tzmZLpyJqUMwt1/n8DiV+GUkzjjKDqBmuZ8X8RUcVbVpSmj8zvPPvtsm/t16tTJ5sCSjgTg1157rZ5fvhSaBsBOEdyZ146O1TYMgFUvYgTanOmmm26yI4lIIy4A6z0mCcBSeqmdakwuXczjjz9utxtdE/33Z1KZVR6nAkzcRpZViz0cOybL4gfZ+wP9Y97LHtGiN45dJpVLG8eyFpVS1po1ayxWfL2iEVAWK9kil7TYAOo9p2f5wRYrzeJ42yL3tv+bfHdnTwnBatGihcUQrL/Jm6K4xXhkFpVmFhV4FrWl1nXXXfeb+8x7VAYqTva4DOb5vdnr+xs1SvpNmdq3DrPOPusM6+hBo6zQ1IHWx2MHWWXru1p1hWmWpyDLskrbWPnLYb075kar16BL+HyQ1bVLW6t58yxfXuyofMcqW7t2HSzGx7KOPe54nm9uX7v+uiusUSPPtk45hT3CtvqMiAj3HZtz2lMDbdFpw2InbbGztji8sthJWhwT17uf0wr5rnZ2nTqf1zHF23r3Oq9THLafUR3o2HlNx7RNW7fffrvd1mgBsQjKem2NALI47rboz2A9+OCDFnUrvjz0fZQI7Pt13/5OBi/CrcouHB80bTYLUC+ZnsZwZo1Z5YMt7qve26RbbrnFDl5u1hFyjlck1hLwtn35+++/x5gxY8xjvr16Y3Fc9Z7iljviCuZmjXtYKeav/ZwUZeK24hLOpDmtMkdo0rry1XQ5leENKvHEwf2TnBpUBn2vP0fwv7ch/qsX5+fY0kpoaBjF0BK0bdOajiCc/O8Ox8pcF0aeGE3z0iYqwBbShh2CmPhKhvTNw7hvzsP1d69Dj86pKC/biu8m/GAXSfQRhzMKQSOadunSkbO6ZCqiD3ejDEyfNoPHO5aMZAM2cbSkpRa3E22fe+45W5llvl0z48TtZMr0H8P615N5Rntnfe+I1hLNFVpX2nDNzpME40yqGynONMST7kb2aacSTGXXzClp0hVGSFJkgDNvkwicnJnjVLvXYaRMi4Su1xOS4NYNN9xgc0MqpywCuV5nKA6u3p0O8tY111xj56NnnJt6Z9oI7R55Rz21uVe9vTbzX3txJZWLYyiLYnm9awS2Rd9xm2NzDrbFudoWOyGLDafefSY/UwYOJXZ43dzXkPvw8O2ciStDWJdcfK7VpfsxfH9va/hxJ1sP3zvM+n7cUVb5hmRr0dTW1qCB4o5trfZtU3xl9KcJwebjllFRsbzPDv3pu9+Un34FFjs5i449FkFiUf9hc2B/6YcdtsX1ouw6Ms+avf+7zXntVR/sGOyyqEzOazpWnvfdd5/Fztaigqxeu9EftR36bdvXOW+53vOqI5VTkgE7MktlVJ6crhvgzCSEnZycmSIMHn30Udvor9lQJqmXFeeTckzc2mkzlr1Yy42odxX31L0mKW85jkgbLpdPzX5RL+1MGpPLdqjeX5zU6QDgvI+NyP7LOvedVnn0Tj0v7bskBJM0A0e9t8otpZzGWCqDbNlORZu5X9xJecvMsr85tr6lCSdtbNyYa7++dcs4aqjLkNioD4oquXRqbiU6Ji2hTboS1bVN+F019LbbRJ927+qLpsyimbizpCTVizGTmevaX3rppRgyZIg9v1dOFjJBqj4kgRl/ad2nMbKSJkFI6elMKq+T7uaazkva0iaaqQz+98l8dcYZZ9i+2Ir+Ib8DZ9JzKpP8DMRp5ddvksbLul+Sh7i0UzJQeWVK1dz7F154IcCZSXjfWN3JmWl8t3s99a6ssHo9pMa/VH5YVE5YWVnbx3GsAIuKC5tj0y/Xl6/eoaRxEAFlUXFmMd6YzV31jHPTu9Sz04PMYgOpd83/Pv9yiWNzTvX/t3cmYHIVVd+v7slkJgtkIyQsgSSABF4Ji0T2HSICLsiioAICCogifIDKK6ACIouCuILg8rKorMoiCAiyCQgIsoMQEkIgCWQjy6zdfb//r7rPTfWdJTNJZqZ7uPU8t+/tu9Ry6vzrnDp1qiqS5dX31cP3sQVo+CQS4H0fW4aTSKtRRJpu124acn5Qf3eUlwBhPKvr2vI+TIucaVjL56G2drA/77zD5tH2UzYu5SsTTZ06NfrolCnKS1GiUyf0MaGRGs528y8DZqSZR74PrIYrklNQJKcg378Ly4DWhbSjrOF9ri2P7d2H1qQvb7A23/G+rO2RjFI+Xbn8Fhmg9Asf0LcVgL3dQ+Ati4OywVtaXCBSQ92mj035SUNg9udKkMwVbQAzMFuF2hn1JlSLuQZAmi1VxihyKIjUv/HVJ2nRBtg80CorXiVG7bL0kowDsNUyRxjDLA/Jd7iffGYNDvHCHOE3NCTa7yh68cUXIzk6+MZFPuPegBS+Z9cwLeAOy23PVuUc5lnDWj6PGM0szjGjM9EouRvbf4CjIbw2XQueA67jjz/eA1hLPfluhqRcdMkll7QBKt0TAAxtLW47h3mye5wBEMYr0k/S097TMFb0ox/9KNL61pFmxZWgWzwBXkngCF4goE5rAk6cPuUmX6jOGCstThoZ0rU8cLY8VhKYl4/3KIfVFkRQn2XUOgwUFlhGhfFHVG1UbAJqNO+rDr2BgntiDr8rAR5fbEFy3HHH+aEmvsWD6IEHHuA1P1XSX+gHNRh1ElUcVR1jB4F4LVi+eIchNIIY3S/uhhcbeUW95CAwBIKx7/DDD/fGGLoEGFtQ92w8Pdx6hfFw0mUopj2V1kfaxZ8w30ztJO/QbOBAhvUKcgRh8sBwdROGePUVFTMcApLdwI8Bs5yOrP7eSwtHDVxzKVcYBBSfb9Rq3HctGL0sL3bmOXWECk9Xhu4L6dMFCQPGJ7pY5AGDFn7bFqCTxYcRkBCmZ/fwJGMzuTBf9q697z+u4J+qBXNYSSHRuW+MTyUkK4L/VoFUsoEdpsESyYFVGi8fLNKM4/3jH//wCw6STrjcL8CmwaAvBXBJm2DMw7Wlzzv0xwgwJ9ZZgD1D1ndWcuQg4FJKw4KfL2Ot9NFY0JB+ti3IEPoEk1/Sg8k76uf7iLv4Q1zQgk0BaLSId+HC+f6wKFjXSmq3738CYBoq8kkjyGiD0YH3cbZhxKAzAIf04hvqB/sDAKbBJA/hiAbvHHbYYW539cHZuXGCvL2gpQXS5wjr2p5xDtOz+jELNWW355w5wvKE8VTadVWCGWMFBgkIT0UzFGSEh8AGVgNqR0QPK5vveZ8z8Uqt9QfMgvEGYLM1CaCyxc5DYGPUMeZDchkDEJ8FYxyAb8YvvsEggzQB2FJJ/cE3J510kpfYGFc4WHgRgyBSz1wXAZEFhlVID8NRd4ENzUzrgKYMEYVBXQW/Fhb7LAEeGiTSZt8vVukIAwCmjjBisU6bBSs//0O68J/0oQFGLBo+8sARBuYiM4REXsaPH+/zYM8NwNSdHfass7Plw3iG/3YPbQ7HFpyIDOydxdXXz6oKzEZkJIFJJyoBNZnKpPWGEey97hA3BDbfhcAGqDAoxxe/+EU/H5rxbw7z1QZAZn0FFICURgaGtEYlzJcxNpLHJDblQuohlbB6s+qjrfzItE0mFrCwIQfWe1RC5m3booe4MVowmpA++WgvQDuYFQkMs5pGY++yDhbg4YxFlzJBd8bPk8vIMtHAJHBXAQxY1Pf1YKGBCxtHy4OGFb3HHbQHwOTBwsoC2L4Pz1Y30IJGhTONsvEZdUOwRjr8tlKuqwrMtLgQE6ZhhgoMD1BsLSeYg/5kWOErS2hrqfk+BDbqHMNfHDg8oBYjLQEVTgMEmNIYE2DDCEhK7iGxCMY8Bmru0RAxtEXgG1RxGIvy4UTBQUBiy1LrNw2Q55GT0ck7WtAlMGAbTXgf11PoRvrQDgDTPeA/wzFhoIvBwVAOw2lIShoJ+pOsFR0GAEyfnbToClgIy2TltGfUkXVPAHBS4lF3LOdD+gZg8mohrIvuSGD7vqMzaaCNUU9JmqA5UTccOMlAw0oMVQVm6xchbWBsmBQ1j74kEx8ACi2pjSHTuq6OEAI7lAYwuhwQ/EEfF5Axdgqorr76ai+VAQwHAQmP1IUZYGLOIbOHIIBxTBUnHSQ2wMY4Fkps/NfZCQQDGmeAzTRAtAZbSQP13AJxJJmVPjrGI9ZOg6akhwqNz3t7ACbf9IG7CmAAYADGeJVMH6MVRiwaB/JAQ803FkIAh3Vhz1flTINAQKsKNRO0ERpMJnnQ6DDVkUBXhqWIqKuw7vzDPv6pCjAb4ahIGA0ww3RYRznoS8H4SEdAbXNZYeLVTfBQGhiwyR8Nh4bH/AFjyjvNS0vyxGQQHAtCVRz1ksYJRgXYSIQwryGwUZNNYiO5aED4FokZbgyONR5AM7sHAxX/mShCX5+lYglmiUZlh2GZiQQtyT8SFmeW0GGCb7AbYEnuLoBZJIB46f6Yukp8BKQddKIRwfEiOZGhJwFczEHxl0aTQP3QmABe6EKeMC5S34w+GNDDRqYYQ+X8VgWYjck5U8kEk74ACrWR4SgO+rQ2kwnmC0GxusneEbCpcIZsODBcIS0BlTU2DDvRIHEQACaMQ1lgGoBjZeZ5WAbKbTO5UA1NYiNJmblls7eO0ZpnABaVGXDzH59n0qQBRIUmn3zHcjrMVAsDaq6p0Eh5C2FewjzyHOCiqqJKI4HDPjzPAQtDQBjR6EKQB5OMPO8tAFsZyD/dMho9NCtmYGFrsEB9EIzXuLZ7XFdaqAowG9GoBKsIGMaC9UOR3EgDDlpXLLKotQT7zr5Z3eeOgE2exstww8Gc3GOPPdaPPQNohrzoJiC5bOgFKzFqJoyGxIaRQtCE5UCam8TG4srkE7MyY5gz4xxGJBo6+tfQgz272DCAKXthQAITJ40gDY+FMM0wLzwnXQBMOSlD2FfnOeO/qKsAGY0CCRyG3gJwmKaVhzxj96AxDRsV46fwPfve7tn/SjovR0Ql5aoLeTGmgrgGbO5ZRXAPiU3gfm9WQmfARqXlgMnpHrCCCZKP4SaMV/TPOAh0KWgECDRMSDsrN/fCMiHN5U3GbQ8wk9hIR3yGOTQBJFYleY+4ASJ9YLokXZXA5IvvKCeSnn58GJC+u+yyi1fPkcD4rYehLwAcpg/doCNgprtDML7hnvFTJUvhsDx2XbVgtgJwNrAmgU1lwHAh04ff9cZ1CGzyad0EGAZjCgeqMCuUMl6LRERq08elrzxDY88E4gF8nAE2fd/OgG0Sm29Rs1n9FKnN9/vvv7/vxwPKrhqxeBeV1NLHCBQG9gEzAKOu0m0IgwEYsHD0dTCeIF8h3/R1vlYl/X4B5vYIQAVVAtOEeQuZJglsJB0Hqi6WU4a8GK8F2MzLpmEyYBMnjhsAC8kIuNsDNunxnRlv+M831pe18Wfu8X0YB2kwPAaACaQRps893E/pzqBC4wnW3kwk3qsUAJOXZKg0Hknmrzv/+y2Yu0OEvni3M2AzjMOBpxMT508++WS/XjTj2ajLSJNw+ieGNiQ91nKsxklQGsMaYO0/ICaE6iR9akBJ/jCO4fkWBjQIDFhYwUmXfIahPXU1fJ5e9xwFUjD3HG27HHNHwAZ09OlsCA5fbcaVzfPLnEiw3ltgzBYrNRIbMBKS4Lb/BjzSQCsg0P+lHx8G0qRhYQyY+BkvD4PFQ345KE8aep8CKZh7n+adppgEtgEFKYraq2mD/kAVZ1ID4+vPPvus9xnHySMEIsAjPvq7YTCJjARmOAnpC/jDgAUc9RkAo9LjbBIG8kXcxIVWYFLf4g7fTa97hwIpmHuHziuVigHbDHkWiQEJIxPDcPSz8dfGAw0/b/bQwuAVAptviY8DABPCVVyQzozRExerUTI8ZsN6vAtYzVhkACZfJuUtbt5NQ99QIAVz39C9y6mGQMaCjZWacWJUa4CLVEQNx4KMBxqb0ONZhbRlHJuDedEEvmccmWEwAv7luHICYDyecOLA4m1hRQBOSmHGmckfcTDmnYbepUAK5t6ld7dSA0wAhjMumZdffrn3+U5GgiS2AJCxhDPbicPGsulnA1hU69/97nd+LJpGAAkcquHdBTBGN/rZxI9fOqtX4qxiYCY+pHYaep4CKZh7nsYrlYKBAIcOxpzZa5pgUyQBiLkZ0pcG9EheNpbnYILEaaed5qUtEhcnFQuo0WHoCMCmFYQSmHcZpsLJhAkdD2g1FhamD0Oyfx0+S697jgIpmHuOtisdswGZCNhmFiAzMQErMip2R0sFAXB8qgEhm8vTx2XeMX1frm1IinhDAHMfdZ3vOgMwjiJIYPrjWqiPaHzApZNGBgcYjHBmtLPn6bl3KJCCuXfo3OVUQiBjpcZqjUsk0hFV2wxNnHmXwDWB/3iQ4cCBmstWOlikMY7xPYAOpawB2O6Hz4gLCcyccQOwzbwiLfrFNDCAnyEwVGzLB8/T0PsUSMHc+zTvUor4Wht48DFnfS0kIPcJBuTktQ01MbGfgAqMgcvcK0PAEUcIYICJtxh9YBoSJLDlgbjoW9NIIHnxIgtXFOE5jUMa+o4CKfX7jvadpgyoLrzwQu9OaYsUGJA7+9BUcCQq4MM4pv2TPJgNyICYaw6uWSwAV02kK7O4br755jgJs5YDYCRwOJxl8XGmIUhD31IgBXPf0r8sdQMZN201DvrJoetm2Qed/GHmFbOVGKKyuJDC1ifmUxoJwIsRKwlghq1MhW4PwOSVg2Cg9n/Snz6jQArmPiN95wnb5AjUZpO2nX9R/hQgmsGL4SMDsZ3pJ2P11sL7/kNbcwwJjH83hjYLBtYQwOEzA7UZvux9eyc99w4FUjD3Dp27nQoT5gkABF/r7gIaQBnIbOpjmAmemYMIUzDxFgv7wAbIFQHY0sCDzGZYhemk171HgRTMvUfrFaZkAOJFAwZjySwP1F0wYyyznR9sEgXAszTsTFr0r21aJPe7CmDyyHAUUp4xZ1bwJHSlb+9fTH9WKwVSMK9Wcq56ZAY4AMiw1HXXXecnO2Cc6orKjRTH0QRHEQBmy9WSM1TsEMQmVYkXQxdagN3jfQM213bfAExcrCkWLtRHfhnnRtJbCNOze+m5ZyhQtWDu70yCmo0rJmBGHWZCBWuC0Q8GSAQDmNECAxdAxmhma4cz+2mCZj0R7D3/J/ghnjAuu7Yz0tcWHGQVyxDAhx56qPfvZjZXewsUBMmklz1MgaoCszEXNDGG5rojJuVZtQXKQjk5swgf63ax9C3SDkOWrfMVlsvogrrLZAv8r5lMwUogOIwQeBY2BOH3pGU0tLgALyDmP04jpobznQEYizcApqGx73lu+ee6PwSjCWUJryutbFUBZhgFIiJ5YEqCOSigGnKfI2SoSiN0d/Jj5aXfyyojLO9z0UUX+ShY4YOy4ofN8BN0wRKNAYr7rOnFOs8sZHD++ed7oNHw8ayjQH8cOqJC2+J7qPW2uAHfoULvvvvufi51RwAmHfLeWVod5aHS7sNnHHRBbFSAPFZy2aoCzNYaQlyzwMJ8BPqIBN7hnjFTfwA2ZQKkTJpAjT3zzDPLhowoN8wVaincY8cLlhtCQhMHtOiMHqjhvAuAQxWaZWiZIslsq/Hjx/slgsJ4iDsEcMj05KPaAmXhgKaUxcpDOS2YMLH/lXSuCjAbwZgva+BlAgJqJ/7BLFyOxdekNRUC0WE8qxCLo1rO5N3AguQFWKjd+Gfj2sm+zRigKCsSlcX28cNmgT18uSm3MWEIwLD8Ri92trRgAKbxMADbM86WJ+JM0pdn0B0wVLIEC8sTAjjMN/dZP5whOxxrLOCvTjDa2v1KOFcVmGEUvJnoy9nWp6idLPOK1ZZF1m2rlWphps6YwABDuQEnEpSDLVSggw09AXYkazj1EGa07ztKwxxT2KiNPnkogcNvugJgA7Y1EHzDvUoP7QH4tdde82Pu7HZpw22MLkAvo3kllquqwAxzwCQYYxh6YUM2PJXMW4n1qjD4GLBNYlci4buTJ4AMOAkwH1MawyV9wrjC98L7dh0CjB0u2GUDoxnqfBhCAJNmqOHwjAaGAHgNwPw311Eal2oIdM3oWrBqC3zE5BLbq8zyzyouZgCEDlZ2e14p54oEszGcEc3+G9FQtakAJBLzaAn4GdPn4yBguLjgggv8djAwfrVICp/5dn5M0wCsVhajC//tnr3XThT+ln3Dezazyt4lDpPo3QEw3R2WMUKiYX1ngggrnhAsX5ZGJZwpI+XjzC4ihxxySJts2bRTBAblM7pZefge/iSOSgkVCWbrF9uSrkmCQViIGm6XyjRBpAHjrACZzdUuu+wyPzzTkRSrlEroTj5gomQwRkve7+y/fbOyAIb29CdxTKHPzUL9FlhnrJIDZSYARtvRg+4aZWJ8HvDaTDXes22OuCbwvQkac7tFsPR1qEgw295FSFlaSAiG8YsZQAyjcAB4GJIDsGOYMOOELYvDPN72mL+viV4p6RtTd1WFhr4Me9nSvuFcZ8pEv5vxbYyR1RJsEX8afOuukXf4CvoY/5iLKryG3YKxdRotU7/b24ivt2lQMWA2ojEHF68l+sT0X2wlSQiDgYbnjK8CeKSwMSTfUwG0mCYZrAJ6m6jVkh70IoSSJtkHNgDjOMIqnzBtGNCGYGwaW+qDYFIrfK9Sry2vxis0bNDD+Mq0QtYgZ1iU/4DepqViGDvllFP8/l3WMBhde7vMFQNmawk5M8TCypHspIA0RhVCCphKBJEANqoNzhMmsY141jDY//TcPgVgZJg2CWDcRun/ohkB4BtuuKEsAobCYFycWTB4mdGLUQZCXzFzWSa7+cfybODmc3OO4Trc4hat8IwzzvBDhRgPoQdCxoLFZf9761wxYKbAIREgGN5IHIydHnbYYR60TNNjMTnGWy2wlA2tJsCmr9PdGUYWTzWckQwwHLSyRot7gJL/ocq8ovKE7wJIs+iiDd10001lnyOB6Dsyi4t3Q+cS0jUJVvZRFf0xEANgysl/JDCCgoDwYEN2um7mMouHXiWFigKzESZUc2AUJAe+whzMysE3GDUHYP/pT38qU8WxbrOhN9bVsHGwuKv1DFg4oIWB2MoS/jcvuBCo9l7yjMGHiRPQEQl86623lr0CU6NCmwS2cWleMtqGdVX2cZX9gbfwNccRxwCMzwJdvh133NEDGFpgXA2DlR96GE3C5715XZFgDgljxIIoBmzUGg7UcYBtE+tRxfGOsr2JUX36msCrozKREoCT8gNoPJOQjpz5j9S0xs7UPUDNN8ny8z7x0L+99tpr3Te+8Y2yLMKwjCJgdwC8SGsLFldYJzzjPvcshNd2r5LOVg7yZCMnt99+u88iNgBowk6XSGBouyIAh/H1ZTkrEswhQSCUEStkIhgSZoXYHCGwaV2PO+44d88991SVMSYsN9dWXsoJoLEZUCa8ksJuBu9i9cePet999/U7WdjYuoGXdwgGNO6bpEUioT5jBOIefeb2gn3Ls7BOiCu8ZwDxNyvwJyyHTSa59NJLvWSGjl2RwFb+SipexYM5JFZ7wLZ7IbDp1+DiSb/OJmaE8VTDtTEcjRYMx/atrIPdUcBWwMF7zHBiRU5ACn2SgLY4bPwdG0O4Law9T56Ngcmb5Q+1n34mw4fmRYbtopIDNCVQHoysX//6133XDB4Kg5XTeMzKH75TSddVBeaQcEZg7rVHdFM77ZtKrwjLp5XH8suSPsccc4wfpuMZ3Qus+KjR9GUJjOva0kIM2bGgAcejjz7q1UWYFxpZnP4j/RAHwYw//k/ix74xGvMYpp+gsVYs2kh0+t1hYPJLJQcrEw1RMq9WTt6xo5LLEuatasEcFiIkerIywveq7Zo9k1k9k/F2HGEY86WfHFqSk2Wiz8cIAOPC2BOYLIBvMdI5KXmMqe1scdl/oyX3QwDTiOD5ZQHVHp94NCKMj6HHlMVl71bi2cpJXu2oxHyuKE/9AsxhIcPKoJKqgZnC/Id5BsRIWKypDJPQp+2sPDzDMEa/FxsCfWzGiFG56ccC6I6+t/vG2OQJiY6zBOozAA4lcAhgdpI0h4mwLNVwbfS28ldDnjvKY78Dc1jQaq4gpDD9XwJ9UICMdOxMJYYxASCgtX4rCxogNRknJfBOe8HuQzMDMGm2B2DG/QGw+c6H8YXxhPcr9bqaeSRJ034N5mRhq+G/MRdgfkA7TQAsdl8kdAZkKxtAJmA0Y5yUrVfxHwbMxG1g453wmnQAZxLANARMlWR8HxXajFx8b4F4OIjf8m/P0nPvUSAFc+/ReoUpGSB40Rz4GTfGyNTdACgxlhFQvQlJMNsQEkN7jM9bCAGMBLaZQfacc9gQpCAOKdN31ymY+472naYMGAmmNnf6cjsPQ7DZhJQQzFwzOYIAkBnK40ACdxXA7SSb3upDCqRg7kPid5a0TVrA8MQc22XLlnX2eptneC2ZjzpOEICXYGfAvvHGGzucJaZOnepVaBt3DiMLGwX7NnyeXlcOBVIwV05dxGowoLHhHWYvAezughnVmDFqAmAmhMNTqNhMHGhv7nEKYE+uqvtpu2xF1RWhf2XYgER/19bKxsOKkPQRbq/k1g+29a+POuoo72PMu8Rt0hX1PQQyz+zgHTvaSyO9V5kUSMFcYfUCyAh4Jx144IH+GgcNpnmiNjM8ZUBLnnlG/xjwm2MJrp2MAQNUi9tHqh8DL+cwLnuenquLAimYK7C+ABeBPi0TKzBUsboKC/AxPBWCMLzmGetdYwFnSIpx6j322MPHZYD1f0o/KYBDalT/ddpnrsA6BGQGvn322ce7c+61116+D4xrJgYxgEs/mvf4jwqOVDY3y9/+9rd+4XykNX3lpFSuwGKnWVpFCqRgXkUC9tTnIaD33HNPN2PGDHfNNde4s846q9MkmQXEhHqWXSKkQO6UXP3qYQrmCq7OENCM/eKaecQRR/hlhLFUs1Km9ZGZxcRkeiQ3/W0CUjuVyBVcwas5aymYVzNBV3d0ADoMrFrKQTBnkI6s3Mlvw3jS6/5HgRTMVVynNgxVxUVIs74aKZBas1cjMdOoUgr0JQX6h2QuzRTSYCn+in1JzzTtjijAcFvEjC7VT2ksvaNX0/srR4H+AeaQOQranTAjhSMF9cpxRE98BZB9Q2trbOl/QUdYbz2R7gcszuoFszGIwNs6Q1bd2W+73MzXXeHN/7ihR/yvG7CujET2To9VqhgSSVPVoYfLUKqD/KL5ruW1l1xh0QLX8uQ9buB2U92QvT7VJcpFTQ1uyXU/dZxdjVjWNDEag9YWrZc7wA359LFuwNj1XaTx94zG1j+IoWrBHKlCqTQqeOm1l7im717lMtursR8mDB9+es/VZVkDUYVAJv+EWHPp2TJEamwzAmDLtP+6RR/d1WV3FRYfkrvqTVOK+ehCWxLltH/YPT91+Xdnu8xgfcaWVhzi3ug9FUVbSw+a+rlSfKXyFf99oH6r1gBWxoJDRrjs3gLyxI+6zIjagFF7oC4NBIWcixrlgdVS2duXllHAGqJSGch7QWWIJZ3rQSCo4c3urDraeDeX+YhyVRoLL8tfJ3+ixtlaP0kvMAV7qap45LouM/YjLisFLLvOevqpWlbupNTde1S1krmsmKhdWnU2am2U0lvcibDs+Wr80/T0o67lhSddftZrLvfy39yws//sBm6yhRJXHuirV2qARmL4wuJFruGx+11+xkuu9bHr3IDtj3DDjj7FZQZq36S83ukpFZV2QustUEeO9s80hC7QK6PpmoOP+4MazlaXUSMQtTa75of+ojI8KgVD/3MLFF8XIurnr1QtmDVhr01vtUxar86KM4mmNBtuvcI1n3u1y+6nPYfeV3/NmBJm6rEMrHphvK+3osm9N9st+9FBLlqiP9OF3a2Ka2+TQo8XoV3A6aZPuGPiZerq3dD9DyOLpZB3+bfUmD59m6TzBGkWM+3BB/pcwaKknXox4OhRuZFD3CBeaJdXLJrgW7tVduZ5R++Yaq1EsqPGCchKboR2ixhCRkpMaOeySLv5p6P0uxlN+68X85kZUOtqNtrbZcdrgb8N9KaXxF0sw4ry1xkNw0yVkvO3oFtIu47S0H3sJAQktGaaFBUh/34YoX+l85/O8tlR+p3HWBFPq0MyQ2CrdKmz9PWiXKvLDlnTq12ZAZKSqt8Mam57iLbvIXmuRd+qv1t6z0crNc7V6OhKyCshhNkaksqMghkf2XlFcdDX1uymiKGZUsjUaKN41Nw4Mnuy+s5xD0D5jFrU6WxZrLOSVBKZbDHznSa/umhIIlKzM7XF3RSjFuneHqRaEKG+jsyUCg19ivnyN/Rd/I84OJaTsPRNF05hOfI5V/A2DxZjUJTSAOL0w/e6EG0lvFL5YC719ZxA0PSfJ1zTw3eov/qKi5bOczUTPuJqN5ns8vNkHNHKOFHrYjFJgqylSml++VnX/NRDLj9TwyPvvukKy8TQWW2PWl/rsutv5uqm7O3qp+ziskNlDieU0s3Nfcs13PsXvavhDtV4btpzLrOG3skL0UMHuWV33uBqxj7uG5ciGMUVzY2udvOt3KCP7qFMieP0XX7he67xkftcbsaLrqD8F96f7xuVjIZVssPWcgO22tMN2n4vVzt+k2L6q8pMwfdNT//TNf/7YZcdOcblVZ6oSZYkATgzTm3ba/92i/94hWfkSMM8WJ69BCy0uCEf+6yrGT02pkW3aVgsyfJfkcblZNdYV6c3XnJL7/iDa3nibldYONdrWgM23c7V77K/q/swFjK9HJShGAkRrGSwuFQXhYalrunfosnj2lhw+jMazpLGNaje1UzcxtXv/HFXN3mKhIQYyXhvJZPs7c8qG8w4gAhESOIl11/hGo74hsvsKhINH6G61oLwrz7smq/X5Xo6RnzERe+/oTHHgISqQN++qwKbHrvXNRxzurd6u8H63uXELgKnDCjulXtc868ucw377uKGn3m1G7DeePGRhr6cDEYL57uG007yjYWj4V5vDTH+aDGaxFrtuq755vNctFDRGSWF+egp54ZcdWERzKXsFJYucUs+eZjL7qUbg5RJtTqZrHaZ0If5txa5lltudI0aYhl67s0C0Wf0UnvMXIqsKydjXlGg5b8vuGVfOcNld1SsymdmtFAs+mWGbOLyb4ouj94uSa1IGZ5VGb3m8awup+3rwWwysunxv7uGo0/rMg19NpPSU1pBZszmrvnOc1yTuro0KK5uqH5qXeu/7nSNP/yuG/LjX7s1DvmyHq4iDXwG9BPTQgqcfBEWX3qKa73+DpdhX4DBa+v5UtXDYJd75k7X9I3zXP0vz3FritfQ/PzQGg15FQR0Gk9uJrFXVMA6XCJiwz/ucA3Hirhf3EHDT+LIvNCzYJ4qW6+MGyYVdbxaUbjREFUqiTGD/tZu/D8uu5MK64c29P2SJS5aoD9LF2iYY1NXM/VjLvf4w27x5d93UbO2gcE5gaA8ZCYVmS6zjs4D1iwyhwebAD+8zjMk0sYfvAOTDJTKSCgxc82otd2AoyVxpGK6BqnqSxpctEgSUovdZ2qHuppddteucAPc0h8c5Jqe/Zci0ac0ZqshoNIqOg3hbODzq6tirJH6nQNGyoik5MC3ypAdq8aKxlFkLmoaOpe6BLU6DrG0AAAmEklEQVQbbd4NGi43rBUTK/1SJ6qrzJDxLrOR7kGPRQK4xp1qNvmoy+62nVv29a+4hofu8h9guFtdIff2DLfojD3UaNzhag6YqkZEMc/XmuKL5IyyeJ7KvYWrOXpP1/jVsyU8fi0+U4MPDyKhKzQEuI0GiFjUc1TazkR2pSKovfUTwvdRoE8p4eFyc2e5xruudpntxFu1da4w7QFXu8tRrm6XT3gitzz9oGt9+hY4X5woidem7os3asdt7OqP/IEbMEEVtjbIU8FUSc3PPCLp+v+kes50NR/Z07X8+feu5bMnStXb1pc8O3RNV//5c/X+AFVsxnsvFeZIbNVKuufmu9qdT5D0Ws+rzJ75oVnTMlc7US0AoURCGof6vY90br8T3YCJmys6RKTUb8p3ixwipt0nibmtKuIp1/TPe139ltsVG5RAqhQj7OJvXHcZN2DcBDfoUmklo9ZzhffeVhkkiTVEFDW94WrGTXW1W31VDWKd78v7oR8ZlwBcdggSk7AKNIzzUYzJ90kLGmIaPMoN3P0IV7vp1sWhpnv/oKE+WadHiDY7rucarvuhq996e5ddQ3SOaUA+usmTJVWZvvnSm650+cdmqeH+uCu8eJernfpVN0hdiay6TS0vP+Ma//g1KVxLXM3BG4knTnfN6iah8ttIQKkEfXoyXBpOhVtfOR7HmsguMeFrK/r9739fWLhwYUEP4qCVKuLrXrsgzVK6DY/9I5ojHp975C7RnB1dNP97X4nyC+fFWSksXRQt+MGJ0Zxd9M6hk6N3D1F9zJxWfN7FvC/5yzXRnN1IY6do9niN2tx5Uxx/8mLhpd+K5uypdw/bMpq7t9J6/fnkK93+3/LWtOjdQ9eI5n52cjRnHxfN++ZhUX7Buz6eQi7X7fg6+6Bl5uvRu0fvEM09cMNo9hbqIfzs+1GUa+nsky49a0vDG/13lv+GZ/4VzREu5n5xSjR7G7VZ1/+6LN7cvNnRe19RHX9qdDT3cx+O5uzgooanHimLw3ii0NIULbxE9bCr4jt4fDT3oAFR8xuvFt9tbV0eb1D/TS8+Hc3ZTu8ftbvnowUXnRYVGpYsf1dXjU88WKzbL2wfzVYb8/71V+puif/z+bJ3e/tPEofg9Oqrry4Iv4A5AsdZ7dF7lCa3z6K5OeqoozJ77rlnRtuAFrQSpEe8TXBX5nmld0LcEhdcbtZ0PyaKuhPNUT9un0NddvgoL0V8ZhDfdYMlSWjAO8hj8r5a60hGqsISqbkKGL4ya0nnapbarSgKjcF2MHyrw8fNNS29Fw661hlfYII3GpXe5X1/+Cft/+D4EMkQgypXu/5EN3C/c13haRnXhk2U+j/dFZpKaipxrWpQHFjwCT6/Fqe0bfKNu6R/xjsk117+7Rv/pn5WSMNS/k2QxsVQojJgZ+oZ1yvmh7zVjBrrBh10sotek39mrepT3+WmvejfycTeXRaZv73inyDPLS885SJp1K5VdSuFY9DeB7rMIF3wDnWqULf1Dm7gx05zhVcfV9dLVTPteRlKl/hn2FD6IhhPGw7BJfgEp1p1JsMe28Lv2+CYjuF1euGvWij9f7Ux2FefeeaZIVo8Lnv00UdHp5xySkFLvGaJiCMZcU8VjnSotkhbtOTnTJc1SdfNDS67qWw0I0aVJwuRS33Ldqua56Xhjtw7b3pn/9zsWa4w/22vDmfWWl/fq0LrJkhN13CJDEBRY7ECw4QwlrlMzJHBo2Kq/jepUgZvcSlJ4Fpefd7l3npTfsaz1H+fJ64a6rLKQ+6tGS6zIWV+Q4CTahkMXSWi6f5f8lXKmy9HRzH493hYLFP8Ggxf+r77NEzERWtBT06NGMH7C5TAxOSYjAYKfH0KzziG+ODTXp6H4s2u/9Jw596eqeFEfRNJxR+xqerhOVdYquG5ZnXasexraNI38Ivny0V0QwGfEQ/ZNUoNnW/kup7kKr/ZHtZefvnlwmWXXZa54oor1CI6t8022zS+9dZbv9YWvufp7zzAjBlg0bx5876p4xrtBvg97YbwGa3umOG48MILI629HK233noe1Hq310BNqwmxfV3mdF5TxhnGhAnGI/6h/Sk+sl9vkS4ZMJbdfZNbdtlnXeExPUUoiFmwA0XiFwxA2R3GyjgkK7XnsUR8JUb2icbXlkrpnPgk8dS1vvGKW/yzb7rWe9RfxfoN1dV2RMKzkzdidhfFPkG65UxlcDSRiXk7DXoevtJRvpJxtJfPzr4FaEhGNZjL7r652zRsLzmfbxtPDhqKTH19Ecz5Fk/qgt9vi0IqFitrEGHpiZ7bw0RhS+ViMk703hvOyXaZqa1XY/2Oa/juCS76r4+57KPMbrq3wUddNONNF229UNhXXno5eGEW1Il29Cz86U9/chKuHsRbb701W/beoT27z1LW/lPKXh1gxp7Imfby+WnTph2k8wHaAvRs6elTvvWtb2U4FFlBG2xnhg0bJiFdpGgyUX23egMVzUGg8vOSmPa/g/orvlz6Lb2z7L5b3ZIvftZldl7LZT/zP7Jcvqwx14kC7zgxqtT39991hXmvFCWCihbwS1l0/o+l3+ZJx1/l33vHLfrWZjJ2icjbq8O9ZKaYSkmvvZlALVWveZkktZgNNd+3VSsqHM9XlNE2GSzeaDfq0s02RVBjWkzJLbvvtm7SsBinfd9BblQMJWo01VkGdpWsmBGNCHf4WfkD3i+VofxB8Z8eeUkHFOSv4GrqXXabTZ3bCn1fBPf8LPaP9Gzp69LY3tKIA1EC5DZEKcbZA7+GJ8PXkiVLIq2bHh188MEexJtuuikqtZTnZ5DEsvr6gFgQ1VwzICYgjzgkKzwF79Am23/V9iUnaeH1UyXex2lfouyuu+7qzjvvvIJ2CsyytUlPqd4x+WRZzwwagmaksd0hriA6F1tr5dIqzzNC+xWJCldYNM81YQ2fojiGqwIXPOgGn3Cjq5+8rSy4GrKpG+Ra//u8W3zx51V3yzyYiixMGhYClrQW05K0zPo+lad5iTmWf9P45D9d/hHx0KdkRX3jLvXLvq35t190NUMZsx6kdJvckpuudk2//46G2qQmrLB/VkqU7gUHHnAEaGH5K97p+Jf3wIqXkBYf35cKpufFucEDVpKGxaSNPGUZ8TdL6QBgSX9fV2xdO19vjhF/AmqccwxM8TelGJW/OG7KYOWGdp4n9GmJHnh2ZYav68VW1CS1qHYNN/SEH7va8Ru7/OL3iyMLYQbR5uRhmKkf5GqGqcuj4LsD4Tur8do3NKRRKgM7lzz11FOFc845J3v33Xf7YgqHs7Ua66UC+CV6FfAifDkQxj4YmO2/NUXqObqm5ubmy/7973//Scu8fmfttdc+5qGHHhosQGdPOumkSGszR2opekb1LhUKRq9Zd4Kf9paRkaswQzSeIb14CwGx5A7ofYupTPFGRAXDI3Etq9TaCaIgyZsZvI4rvPBPDU99zw3d92Arrz8PWH8jAUIM1KqWWuQJPi+9F9xhSIk05D0WYeMpGcBsTLz0gU72TeSHn9xEfbZoOiNcbujBR7vaDTdZ/qqusmuPc+4lXUwcpRc7kEgxWCPX/NJ/XOPDd6uWGtzAbXaSg8quvmHwxpzYYFSWRPEP3ZSBQwVUaQHUPu6MRm81fnYdfpmXt1zhfXlpdYeGJayG8RSvRZe4EdEd6ox0FVpff7mIP+Uff4ABEzUbTcGDnTL58usTfAAGD/P0z9So3paJbc3GABBL5bFzZtBgOQJNdC1vKbJNx7ho1j8F1HpXO25imY+RT6y9n5ju7T1c+XtJEBOTNgosXHnlle7iiy9WgZ2bMmVKk/rE/yccnqu/b3NPAXwCYkAdB/9B/K94QTWIqz3qB+k8V2s0n/Tkk0/uLmPYX9Xpdj/96U8zm222WfYXv/hFAX2ez2hVTFJbJrm/UoHKLBlFasd/yOGsES2Tc8U2ck665SIZsYpWzjZxQ3RCyEhULKpVQY4JMoAUliz0hg//XslwhmXZA4hGIWjY/Tv2U4o7u8bIog6DP7Oo1PLay/ZGfM4veC+2lHsGBJy+LZUE5XIhHWWFUvr+Wj7j9Om8qudvJH4Chmp+4Wm36OPbuKYfneGarjvXvb/rvm6p3Ep98Ezvq6Q8glL+aRQzg1UGrfiR3WhTl3v2Nj9i4F8ugQCPu/y8Od4AWYxkJWhYnnrxn68X/XBWlGFokXbUdP3XNN9ZjVyz6koYHThpy+IrVq/2gQBbM0qSVqMbrn4tP9rR8uLT/qk1DIVli13+/QWlLzJu4GaKS2lmaLTVni299Euu8YkHvFbk68E3oNISJJGZWZab+/by/rI1Dpb+ajgnVep33323cPnllxe09nkWINMvVlf3HuFuL22AcLySBMiAmJYPfIZcrr/FttlftPMD+yF7arXnUfb1119/8sUXXzxA/z8rkX+GOuBbfv3rX8/qcH/5y1/ye+65Z1b7+wrPxVqyzLYTb9dulSpwoBiudt/jXMslV7iaww+Qqn2He/+i4zVEdYSrGSMnCPk852e+LBfBkcKjQImrZUD8mqGyFo/awOVefcJlN9/Ttd53mVusoa169V3xw6bVbp0mkYh1tVaWMeFt+VDI8qxaeWo2nOSNVpkN1HhJTWv4/Ql+jnDNWmtL2hUE4sWu+S+nuMHHXOeG7P1JIvNSIcKpa/IYvStG+s15rnCQnE3GjitKUwE5/46ktvjY5RaL4QS2oAw+FwZmaQJNMKEYcsB+B4kZG1xhzbtcy6N3uvxu+7makaN9PjIDEu10CTxZ7UOVXWuMy2mYJjtpoiu8fJdbfOX5rm77qUXHEaXT+sqzLv/yrW7YWbd6x5GaIUOKNPzvky672UrSkPIgGvIyZE6QFH76YbdM0hHjWn6+ukI3nqjGbW1J3DXk0PG0qzv8VEfdE5iIkgwDxm3oFyvIMIw1YoRr+O3hLr9grhuw/gQ1lgtc6+O3qUz7SQv6sv904GaTXd0JJ7rmS3/haj6jwfx3n3aLv7WHa9r/dFc76SNKQ90KSfeC1O7mW090tTue7oYdf7b/dnUuRWR8ZDjRFkPRAw88UDj00ENrGtTNGD9+PFvwviA1+0Ilfi0ZkBAdKOxxCYg7DChaKwqtAjLv0Cqghl8vkf9nbTl62nbbbfe1f/3rX+t8+tOfrtGOhZEMZXm1KDUsym5Smg8t41x3NXhAibGya45wgz/1JZf75xUuLze87OZT5MX0ult21le8+s0Ei8zEQbKCflj9rWclTVC5itoHlZAdNsrV7Xaga73lJlcYcr9fnaL5/852TZefrSEK5UYYpmSZEeMFbFk6VdT2LJglLLi6TT/slm2gd+Y85TKjxGw141zDeWJEdffiIKbNTYf4ArNC3RZbu5pPKFuv3+sya0+Sc/+dbvGX7nSZ9f1jL7Uz0q69FfXNJ1ykPp5pJm0aYDKiBiKapifLZG3NNfnxdw9+NIsOgndL1LPskDXcwK12di1n/cwVNtF46vgd5JN8tWu9+upi0057D00l3KNmqlvfDF/L1e36GdHwZlcY3D0axkJYdRLNVrxj1Uddc7IWRrjCtfz2iqJVX3WQnbK5Hqpheu1pV/PhTd3Qz31V/yWEzJpORoIGrm7SZDfgsF1d7j/3uuwm26p1aHaNl5zinBopP0owU1Xzq+35ypMwq0Zi6BdOVqN+t8s/pW823kga33h5el2sLoveGaPjPR2b6fXHlJ+NZnt/gxpms5UEi56udADEBMMC48MyZOW12X32j3/8I9LWbb/99u/OnDnzVwLyRfoLR1HbdQJypyDWOz74SOzPCs6wPZED6ma1KA+//fbbN0vdXlPDWZP+/ve/11511VVwU0Hj1ZE2C1e+l6veuh8XhOsVBioOAujMQm3ZSXtpwT6BVbN8cIzPrCuJO05SeJik8UIdS95Rn1TglVCr3+9kV6NGgO9pFGo33MgVRo5yuX/fo9E4cRTA0aQG76KM7Qg6z12kmzNdJAzWfmZ/uVN+dHkWyUspP9k19eHoya7lkRtU+fOlu7ynfIj719F0TPlWZ8eI7spOdtyH3KBd91Mcmq6xxnD5He/lWp+7VxLhDd+AZMatqZf0oiSsH6aSxHZLpNrN1W2VbdDUo9WQKS1Ji1hT8PkQiQWM5vt/p0Zguqr8LeceV5m/dqIbtO1OSi7rK8nnd3kJfP69hBE9akZr9tRIOeTcfr/KPsvnITteLcuYgfLfVsM4Qo3JI02u7sgvuAHrFFuc2g0kxUetBA2pA+U7N/cdTYq5Sg2G6PyeCikxkpmwtlxYB4tmGlFg3H/ZIle7m1Y+OfXnMk59qBzIVpYST3h7ygabSyO5SsNO74gO78qvXAaz9ddUGcTWA7X97aaT3aApuyotEVmNAj4KA7eVdleQnXzGXdKwtKYY1fChddSAqfuxoepvrQ3VBWGseS1Xv9P+0t70glTwuA4sH108A2IOtgkyIL/xxhuFX/3qV4XDDz+8RobmjAzKzcOHD/+DwH2kDFy3KGqZfIt6TOm6S6kBzpUJSHQOazF2k+r9HbU2+zz77LM+vt/85jf5Aw44ICPDGQD3QUNdvlD2v0vnoGXOqy/T+MRDknr/lYVVzWiTECB/7cywMZLAI1VZIzUl8sNaxud/vMpYTFRSGqOI+s1Nzz3lWp5/SsNAAv4SfY8ElyU4M0jq9poatho+TH2x0epfbeNq11OldhKan9d0zKcedeTJLZE4gMlYi2zkWPl+j9U0uu2kJk4q3geECrnZM13Tkw+rjyqHhIX6Tj7c3oA3UIy0htIXeGtGDHcDxm8qDUCLHzC/tsS8PgK7Vr4bHr3PNd33Z2kRzTKA7eqG7PNp32iscJZPiZ6Fpe+7Ri0f1PLK8xqam6dG6f0iLYav47LQUVMx67baztVIKsdxKt2m557sHg1LecaTqlnqc27may6/SM4ai95VHWgaqOaHZ0p0GzhpC1e/raahSnuIjV6+4B3/tE5/VZMy/ibnIjVqS9W4DlKjOmy0jFvjvUcX3nXFhliqBs0cdaEuVfNLz/gjP3e2yq/GRcODrm4N1d86vv4GSvIP/JAWcJARtqwOOs5KmydJfpchK/rb3/6Wl+cW2PHb72pU6AFJ4h/o799LESAsUS0BdK+GOoEY2eJDfX39UTvuuOMLo0ePFme7SJ356K677mpVaxM7eKuAEhDd9HMt6P3EN4XGJVH+/fkRvtlRvh3/5cAvt83zfGuUX7JQBt3S9y2Najy7GMJ4+UR+wvnFC/xRaGpoPxK+SeZffsE+/8pH0kc4jiSZFg+Ce4XmhmL57YNEGna7zTnxHukX89IBLYkgSePu0DDIc5yX1mafd2iXpJv5c8fvtndBnEG80KIY17K2b4fvtfF1L0QylhV5IeGr7SMKvm0bcft34G/43ALjxffee2/rtttu63Gh/bMj4eRl+WwcW4KO23333QF4nf3vqzNiR81XHNaQ2n2OMjtHd3zmjzrqqLxan1b8Si0kC2z3OztTyR1WtIhXgIg42geEjOPjGd8nGDl+zjfE0Vka9rJ/r4N0iManFTj8l74r5Fo7Tp93iNe+JT8dhVI+48eUqaNyxS8lLnw67TSCvGbxJ+MsfbNSNORb1Y3/toOy+bpNNhqJbJf/pb4UZzvxLa/HdugY5qU8Qv+vWAeiDUKkGyEpqKSpRvLSyn35y19G0nos7LTTTu9NmjTph/qvfmAcwE9RfYtvdf9ilSMIkpQu651OsIATJmmP4DOlRhwkIxmqgzv//PNzcj7JTJgwgXd9EAF8X8L6E3a/0zOqG0MJkIcSeDVWFyV1ttNv+ciPSRJH6XtTv/iwS3GUUvD5IB4iUuBbO4p32v9N5n9l00dlphAYvrqT7zBXybz4eFZES6W50jSEXmTb/xSvjWarVAbi1dGduOI88K3y5Hmp+7QU3pV0+fa5Gs4t3HjjjYXTTz/dq9QaL26RALtF4D5fKT1fqgJAjDqdK/2vuNNADWWF6sK+O+ywwwNqjSCXP6677roWxtXCRq/bqnf4cXqdUqCPKJDkW81vwI+aYQDP68ICKvXD+q/xjGIo4QPTa9WE+kMOOSSWwJqoccLOO+/8inLvC7nbbrsV7rvvvtalS5fG1QBhksSJH6YXKQUqiAJJXmW8+MEHH2z9+Mc/HqvU4vfXtZf2SeJ5j4Pvfe97GIPDLmnVgJmMkvnBQY7Xnjx58kVqqWQ+LYJarqGtsoC30r+wAKHa6wfZ8/ScUqCvKJDsF8Orzz//fO7UU09FXfaCSvy9QHx+qf6vG/A+OAAPVR+weIct0jYaW7terqExAX7yk5+0yG2tzOIAwFNQ9xXbpukmKRAKHJ5pLnFeLs2xSr3lllvm5fjBOPF2htj1118fvo9HfOx+fziXDWXJU+xAqSL/XHfddX2LpgJGN910UzP9DiNksiW0++k5pUBvUSCpKS5YsKDw5z//uVk+FJ5v5SAViY8f11DToQbS0pCtN/zavf54xmYYSuk6zb46eZdddnlN9z1x5B6a0wytFvmqxvWV7KPED9KLlAI9RIEkzzU2NkaPPPJIi/yoY41SfDtdXpCni3fD7iT8DZ9/YAJGgZAAG6g1+4n8vRfqvgf1GWec0Ux/BKJaSFVvo0R67ikKoA2GKjX/Nac/d/bZZ8v/tsib6ia+r+Gmn+v/RB0WALEfirIbH7TzwPHjx4fqyI4aWL958803Lw2iukhTw5ron4SVFxI7vJ9epxRYFQokhcWsWbMKmnMQg1haJCr1bQLprgbUahxqsrz31LlsKEv96M9JhXlciXkpLVUmf+uttzarvxLXVVINih+kFykFukmBJC8tWrQo+utf/9osbTEeahI/PqWhpi8YAKp9qMnK0VPn5FDWmrIQfkum/hlK0IP6yCOPbHn00Udbmpqa4uqiNQ1V8fhBepFSYAUUSKrUWl0nksdiy7HHHhtLY/HfW5rae5Z4UHPy4oBK3S+GmuIS9dAF/Y7QSPYhmfx/JYIu0X0P6nPPPbeJfkxYV0kVKXyWXqcUCCmQBDHPtMZW7oILLmAmoOcxCZIGAflK/d9chwW6hP1yqMkK2FPnOlZZCCLfQ6rO7fIm88TW/UjLATfRr7GKaq+S7Fl6TikABZKN/jvvvMPuEDGItdJHpLXu/jZkyJCpxnuloabQTdkepeduUCA5lJWVn/eR9F8Uhwe1XENb6d/Qz7GQqt5GifRsFKArBl9YYJ8mzS9u1hLSseOHjFv/0dpbx4i3Qqv0B26oqRv4XKlXGcoKVe/RGho4U0MEs3Tfg1orhjY9/vjjZVMtW5l2184UOavQ9Nz/KUD9wwcWuNZCea1avy6WxpprPFvDot8XL40NuBN+837Vwb30cjVSgP5KqO5soaGsKyWtmXrpQa1+T+Orr75aNpQVVqZVanru/xRIqtRazy7/4x//OOYVLaDRIv75nXhnK+PRdKjJKNF757pwVtY666yzr1Tvvyl5D2htsZO/5pprGtUfijk2qWbFD9KLfkcBQByq1HPnzo20cF6ThpaYO+x5RCr13/X/AGPZ0lBT6PNgj9JzL1CAoYGQ+HVaEOHLmj/N5G9fYZ/61KeatStAM0u3WEBKp0NZRo3+daZeQy2MKbZabBIXzFil1sjIyxoZOUE8EnogwkfpUJOI0NcBY0Woeq+nCjtXQwssnupBrSlqDeonlbmGUulpf7p/gDnZL+Y/S/Z8+9vfZslazwMybM1XQ/9D/d9AhwX4JjR22f303McUGFgaQrBsbKP+0P9JBY9dQ7VOcYP6TfFQVqp6Vz+YUadDTeuNN94o/PznP4/7xSwwKT64TgvpxVMTSwvohcOexjPpuYIowFBWKKWd/Gk/KUl9v+77FnqLLbZo0dIuTVq6KObkJEPED9KLiqVAUqXW1Fmm0DbJMh0PNUkSPyjj6GcS/Al/fKBmNSXKX3V/GVIIQT1UQ1knaEGEV3Tfg1qLkDfSnwqnWqaqd8ViN85YUqVmauL999/fqvWoY2msPvHrqm+W7NHK+HGAH9Khppgc1XdBfyh0v9tQLnoXTJw4UVsrFEFNv0r9q3QoK4ZL5V4kG1stOZU/88wz436xrNNLVL8/Ut1uFLAq9R/yQPAovaxGCtA/iq2VWs5lO6lgf9A9L6V1ztPPmj59etyfTg5vVC6L9/+cJetCS0xF2uIFSRwPNak+b9Sa7TvpngXqO+0XGzX62TnZn87K4n2g+liPqJwe1GrVm2644Ybm+fPnxwhBGoQGlvhBetHjFEj2ixcuXBjdcsstLTJgxUNNUqn/pXpkyZ5QhUaljhvvfsbHaXECClDpYYs9gv6VDCUzdN+DWlMtG7TVZitT4iwkVTy7n55XPwWS/WJ2Q9FSUjlNTYxVanlvzZIL5mmqM+3cFwfqNQR1/CC96N8UoB8VVvwmsnpfogXaYkPKWWed1fDcc8/FqndSUqx+Nk5jTGpC2tK0cM4558Qg1mymFtXTz7Qf+KSAPanHtF8cEOSDeInqXcYEmna5syQ1S6Zaf7pF/bMm7Z0bIw2Gox+XhtVHgWRDqS2Do1//+tdNalzjhQLkR3C7nD92TzAq0jgdakoQ5YP8l/5VCOpaAfqzYhxtCF0E9V577dVIf42pcxZQ/1AJ07DyFIB+4aaCixcvjrREVOv+++8fS2MtG/Ws6oMle8LuEfWV9otFhDS0TwHUtdC9by0x0alaEGGO7ntJrX7bsocffjgfSmYkdRq6T4HQDoFk1pJQ+eOPPz4Gsbz33lO/+Nui/ZiguqifsI6CR+llSoG2FKDVj1U3rSA6SVZvlla1Bd5y3//+9xteeumlmIOTwyfxg/SiDQWStHrllVeiH/zgB2VDTXLwuULTEcMle9p0idpWW3onpUD7FGjDPBoG2U3uoH/V615Ka4mZJvXrmmfPnh0zbNKAEz9IL/wQX6jFMDVRSz81b7jhhrHRUV2be0TnvRJVUta4Jp6lf1MKdJkC9MtCtW4g/Td5kb2g+x7UU6dObVA/L8dugBbS/rRRgv3by1f7wIX2jjvuyH3yk5+MVWppP6+Irl8STcMVZaB72i8WEdKweilAfzpmrDFjxqwt6+qZQ4cOXaD7HtRauqjhscceiy1iSQvtcvb+4FwlNRVNRS1o909A7Gezac+xxVKpvyfpvE5QXdAZeqchpUCPUQDVO5TSTkNZm0v1/o3ue0Dr3Kz+X9Nrr70WIzbJ0PGDfnyRbMimTZsWXXjhhXhuxUNNUqmv1jFZ98IAfaFzGlIK9AoF2oBa/by9ZbD5h1L3oB43blyD+oOtTM2z8EFQvZNDTbjGXnvtta2aihqr1OqiPCxpvG+iplKVOkGQ9G/vUiCpDg4SqI/Wdp/xrpYaL12mpYDztgtHsv9oQO8PZzQQykeg4dKSTXkt3bRMVeIbODmAzBCIj9P/IUE1JWkYPEovUwr0PgXo38WqoVTHMVK9z9U9Y+TciSee2Kj+YozZ5PBM/KAKL5JleeaZZ6JTTjklHGpqUnfkAjV06wZVA73SfnFAkPSycijQhjllINtCEwL+oCxaf7pJ/caW6dOnx5Ct5v50sl+My6uWsmWlj3ioaZNNNrlRs5q2TlRTWeOXeJb+TSlQMRRoozZOnjx5X3mRPaYcelBrGKZB/chcuAtHqKLGSK/Qi2RXARdXLcWUk/SN+8Xy3npK5f5EolYAMfRJQ0qBqqIATBszrhZEGCT1+3gNZb2j+x7U6k823HfffQXUVEJS0lUilskr+bT8Pvjgg4WDDz44BrEWzpur/bVPErCHBrWF1hLTIrifXqYUqCoKlDGxVM71ZPVmaRtbJaPl5JNPbnr++edj7Fai6p1saHBl/eY3v8kwUzzUJJX6p+pahEvZUlFl5edGGlIKVDMF2kgmGcg+ouGrW1Uo6083aing1nAXjkpQvZMq9Zw5c6Kf/exnrcp3LI2lddwplXq7RAUBYsqdhpQC/ZICbUCt6X0HasjmOZXWg5rxWC1dlA9dQwF1X4QwXVwwNQW0IIt0DOKRI0e+JJX60ERNAeJUGieIkv7tvxQok1pSTQdL9T6lvr7eXEPz2lKlUUvlxOO2yeGfngR3Mi1NTYy+8IUv4L3lZ43V1ta+r8XzvqnF5dcIqqhNQxU8Sy9TCvRrCrRhfhmNNpDq/UuV2lTvZvVLW7SrZYzdnuxPJ1VqXFK/853vMNQUL6AnlfoqqdQTEjVT1jglnqV/Uwp8YCjQBtSS0jvIi+xeUcBA3fjLX/4yF+7CAajN2ypG+ipchCo1LphXXHEFUjgeL9Y2Lw9ozHznRK2kIE4QJP2bUgAKAGqOOGg8+rDhw4fHrqEa2mq87bbbCqFrqA1rrSyO+d4aBVww5Xpa0FTEWBIr/elaXP6IOFPFizZ5TTxP/6YUSCkgCpQBRVJ6zbFjx56tPaeX6hmSOvf5z3+++YknnojxCyBt7De+uYIL3g8bAu3qEX3pS19CpcZSHWk8vEmOH+dqm9zh+m+hLG92Mz2nFEgp0DkFyoAjUG+klU2uGTx4sKnezd/97ndbQ9fQUMp2hGWkcAjiN998MzrvvPMY8/bSuK6uLpJKfT1LJQXZK8tLcD+9TCmQUqCLFDAQcfZBUnoPDWU9ls1mDdRNmmqZD11DQ7CGoA7v44J5zTXXsEBArFIr3ifVV9+nlJSdLA/2Pz2nFEgpsAoUaAMojfEeIwk6S3F6UGuvpeZ77rknMkMWEthUb87WLwbQ2jUx2mOPPWLPLcUzd8SIEScccsgh4Sym1Li1ChWWfppSYEUUANSAzAcNE40cNmzYhVrCiL4uoG495phjWrU7YiyQDdDceOGFFyItbUSf2PeLJeXzMnBdovNoH2HxJwVxQIz0MqVAT1OgDNQyVm0uSX2LDFamerecf/75+VmzZnlQ4yJ68cUXM9TkQS/wRlKpb9dWL1sGGU1BHBAjvUwp0NsUKAN1TU3NJ9TnfU6HB7UWkG+VcasgTy0PYgE4khR/jveCjKYgDoiRXqYU6GsKhICskbvlN6SCz1emTFJH+r9AlupTdY81qAllDUHxVvqbUiClQKVQIDRgjVZ/+jeSxs3qF/9eGRwbZDJ8L7idXlYrBf4/B1v9N/OqlDUAAAAASUVORK5CYII=;" parent="1" vertex="1">
                    <mxGeometry x="88" y="26.319999999999993" width="103" height="118.68" as="geometry"/>
                </mxCell>
                <mxCell id="5" value="dt" style="shape=table;startSize=20;container=1;collapsible=0;childLayout=tableLayout;fontStyle=1;align=center;fillStyle=auto;gradientColor=none;fillColor=#333333;swimlaneLine=1;strokeColor=#000000;fontSize=23;fontColor=#FFFFFF;strokeWidth=2;" parent="1" vertex="1">
                    <mxGeometry x="198" y="334" width="892" height="316" as="geometry"/>
                </mxCell>
                <mxCell id="30" style="shape=tableRow;horizontal=0;startSize=0;swimlaneHead=0;swimlaneBody=0;top=0;left=0;bottom=0;right=0;collapsible=0;dropTarget=0;fillColor=none;points=[[0,0.5],[1,0.5]];portConstraint=eastwest;fillStyle=auto;fontSize=17;fontColor=#000000;" parent="5" vertex="1">
                    <mxGeometry y="20" width="892" height="60" as="geometry"/>
                </mxCell>
                <mxCell id="31" value="variable_name_1" style="shape=partialRectangle;html=1;whiteSpace=wrap;connectable=0;fillColor=none;top=0;left=0;bottom=0;right=0;overflow=hidden;fillStyle=auto;fontSize=15;shadow=1;gradientColor=default;fontColor=#000000;" parent="30" vertex="1">
                    <mxGeometry width="127" height="60" as="geometry">
                        <mxRectangle width="127" height="60" as="alternateBounds"/>
                    </mxGeometry>
                </mxCell>
                <mxCell id="32" value="variable_name_2" style="shape=partialRectangle;html=1;whiteSpace=wrap;connectable=0;fillColor=none;top=0;left=0;bottom=0;right=0;overflow=hidden;fillStyle=auto;fontColor=#000000;fontSize=15;gradientColor=default;" parent="30" vertex="1">
                    <mxGeometry x="127" width="128" height="60" as="geometry">
                        <mxRectangle width="128" height="60" as="alternateBounds"/>
                    </mxGeometry>
                </mxCell>
                <mxCell id="33" value="variable_name_3" style="shape=partialRectangle;html=1;whiteSpace=wrap;connectable=0;fillColor=none;top=0;left=0;bottom=0;right=0;overflow=hidden;fillStyle=auto;fontColor=#000000;fontSize=15;gradientColor=default;" parent="30" vertex="1">
                    <mxGeometry x="255" width="127" height="60" as="geometry">
                        <mxRectangle width="127" height="60" as="alternateBounds"/>
                    </mxGeometry>
                </mxCell>
                <mxCell id="34" value="variable_name_4" style="shape=partialRectangle;html=1;whiteSpace=wrap;connectable=0;fillColor=none;top=0;left=0;bottom=0;right=0;overflow=hidden;fillStyle=auto;fontSize=15;fontColor=#000000;gradientColor=default;" parent="30" vertex="1">
                    <mxGeometry x="382" width="128" height="60" as="geometry">
                        <mxRectangle width="128" height="60" as="alternateBounds"/>
                    </mxGeometry>
                </mxCell>
                <mxCell id="35" value="vn5" style="shape=partialRectangle;html=1;whiteSpace=wrap;connectable=0;fillColor=none;top=0;left=0;bottom=0;right=0;overflow=hidden;fillStyle=auto;fontSize=17;fontColor=#000000;gradientColor=default;" parent="30" vertex="1">
                    <mxGeometry x="510" width="127" height="60" as="geometry">
                        <mxRectangle width="127" height="60" as="alternateBounds"/>
                    </mxGeometry>
                </mxCell>
                <mxCell id="52" value="vn7" style="shape=partialRectangle;html=1;whiteSpace=wrap;connectable=0;fillColor=none;top=0;left=0;bottom=0;right=0;overflow=hidden;fillStyle=auto;fontSize=17;fontColor=#000000;gradientColor=default;" parent="30" vertex="1">
                    <mxGeometry x="637" width="128" height="60" as="geometry">
                        <mxRectangle width="128" height="60" as="alternateBounds"/>
                    </mxGeometry>
                </mxCell>
                <mxCell id="KT3CynAcazvn1DVqxbNP-56" value="vn8" style="shape=partialRectangle;html=1;whiteSpace=wrap;connectable=0;fillColor=none;top=0;left=0;bottom=0;right=0;overflow=hidden;fillStyle=auto;fontSize=17;fontColor=#000000;gradientColor=default;" vertex="1" parent="30">
                    <mxGeometry x="765" width="127" height="60" as="geometry">
                        <mxRectangle width="127" height="60" as="alternateBounds"/>
                    </mxGeometry>
                </mxCell>
                <mxCell id="6" value="" style="shape=tableRow;horizontal=0;startSize=0;swimlaneHead=0;swimlaneBody=0;top=0;left=0;bottom=0;right=0;collapsible=0;dropTarget=0;fillColor=none;points=[[0,0.5],[1,0.5]];portConstraint=eastwest;fillStyle=auto;fontSize=17;fontColor=#000000;" parent="5" vertex="1">
                    <mxGeometry y="80" width="892" height="60" as="geometry"/>
                </mxCell>
                <mxCell id="7" value="&lt;font color=&quot;#000000&quot; style=&quot;font-size: 17px;&quot;&gt;integer&lt;/font&gt;" style="shape=partialRectangle;html=1;whiteSpace=wrap;connectable=0;fillColor=#B3B3B3;top=0;left=0;bottom=0;right=0;overflow=hidden;fillStyle=auto;fontSize=17;shadow=0;gradientColor=none;strokeColor=#000000;fontFamily=Lucida Console;sketch=1;curveFitting=1;jiggle=2;" parent="6" vertex="1">
                    <mxGeometry width="127" height="60" as="geometry">
                        <mxRectangle width="127" height="60" as="alternateBounds"/>
                    </mxGeometry>
                </mxCell>
                <mxCell id="8" value="numeric (dbl)" style="shape=partialRectangle;html=1;whiteSpace=wrap;connectable=0;fillColor=#B3B3B3;top=0;left=0;bottom=0;right=0;overflow=hidden;fillStyle=auto;fontColor=#000000;fontSize=17;gradientColor=none;fontFamily=Lucida Console;strokeColor=#000000;sketch=1;curveFitting=1;jiggle=2;" parent="6" vertex="1">
                    <mxGeometry x="127" width="128" height="60" as="geometry">
                        <mxRectangle width="128" height="60" as="alternateBounds"/>
                    </mxGeometry>
                </mxCell>
                <mxCell id="9" value="character" style="shape=partialRectangle;html=1;whiteSpace=wrap;connectable=0;fillColor=#B3B3B3;top=0;left=0;bottom=0;right=0;overflow=hidden;fillStyle=auto;fontColor=#000000;fontSize=17;gradientColor=none;fontFamily=Lucida Console;strokeColor=#000000;sketch=1;curveFitting=1;jiggle=2;" parent="6" vertex="1">
                    <mxGeometry x="255" width="127" height="60" as="geometry">
                        <mxRectangle width="127" height="60" as="alternateBounds"/>
                    </mxGeometry>
                </mxCell>
                <mxCell id="22" value="factor" style="shape=partialRectangle;html=1;whiteSpace=wrap;connectable=0;fillColor=#B3B3B3;top=0;left=0;bottom=0;right=0;overflow=hidden;fillStyle=auto;fontSize=17;fontColor=#000000;gradientColor=none;fontFamily=Lucida Console;strokeColor=#000000;sketch=1;curveFitting=1;jiggle=2;" parent="6" vertex="1">
                    <mxGeometry x="382" width="128" height="60" as="geometry">
                        <mxRectangle width="128" height="60" as="alternateBounds"/>
                    </mxGeometry>
                </mxCell>
                <mxCell id="26" value="logic" style="shape=partialRectangle;html=1;whiteSpace=wrap;connectable=0;fillColor=#B3B3B3;top=0;left=0;bottom=0;right=0;overflow=hidden;fillStyle=auto;fontSize=17;fontColor=#000000;gradientColor=none;fontFamily=Lucida Console;strokeColor=#000000;sketch=1;curveFitting=1;jiggle=2;" parent="6" vertex="1">
                    <mxGeometry x="510" width="127" height="60" as="geometry">
                        <mxRectangle width="127" height="60" as="alternateBounds"/>
                    </mxGeometry>
                </mxCell>
                <mxCell id="53" value="mixed with missing values" style="shape=partialRectangle;html=1;whiteSpace=wrap;connectable=0;fillColor=#B3B3B3;top=0;left=0;bottom=0;right=0;overflow=hidden;fillStyle=auto;fontSize=17;fontColor=#000000;gradientColor=none;fontFamily=Lucida Console;strokeColor=#000000;sketch=1;curveFitting=1;jiggle=2;" parent="6" vertex="1">
                    <mxGeometry x="637" width="128" height="60" as="geometry">
                        <mxRectangle width="128" height="60" as="alternateBounds"/>
                    </mxGeometry>
                </mxCell>
                <mxCell id="KT3CynAcazvn1DVqxbNP-57" value="Date/Time" style="shape=partialRectangle;html=1;whiteSpace=wrap;connectable=0;fillColor=#B3B3B3;top=0;left=0;bottom=0;right=0;overflow=hidden;fillStyle=auto;fontSize=17;fontColor=#000000;gradientColor=none;fontFamily=Lucida Console;strokeColor=#000000;sketch=1;curveFitting=1;jiggle=2;" vertex="1" parent="6">
                    <mxGeometry x="765" width="127" height="60" as="geometry">
                        <mxRectangle width="127" height="60" as="alternateBounds"/>
                    </mxGeometry>
                </mxCell>
                <mxCell id="10" value="" style="shape=tableRow;horizontal=0;startSize=0;swimlaneHead=0;swimlaneBody=0;top=0;left=0;bottom=0;right=0;collapsible=0;dropTarget=0;fillColor=none;points=[[0,0.5],[1,0.5]];portConstraint=eastwest;fillStyle=auto;fontColor=#000000;fontSize=17;" parent="5" vertex="1">
                    <mxGeometry y="140" width="892" height="56" as="geometry"/>
                </mxCell>
                <mxCell id="11" value="&lt;font color=&quot;#000000&quot; style=&quot;font-size: 17px;&quot;&gt;1&lt;/font&gt;" style="shape=partialRectangle;html=1;whiteSpace=wrap;connectable=0;fillColor=none;top=0;left=0;bottom=0;right=0;overflow=hidden;fillStyle=auto;strokeColor=#000000;" parent="10" vertex="1">
                    <mxGeometry width="127" height="56" as="geometry">
                        <mxRectangle width="127" height="56" as="alternateBounds"/>
                    </mxGeometry>
                </mxCell>
                <mxCell id="12" value="2.0" style="shape=partialRectangle;html=1;whiteSpace=wrap;connectable=0;fillColor=none;top=0;left=0;bottom=0;right=0;overflow=hidden;fillStyle=auto;fontSize=17;fontColor=#000000;" parent="10" vertex="1">
                    <mxGeometry x="127" width="128" height="56" as="geometry">
                        <mxRectangle width="128" height="56" as="alternateBounds"/>
                    </mxGeometry>
                </mxCell>
                <mxCell id="13" value="A" style="shape=partialRectangle;html=1;whiteSpace=wrap;connectable=0;fillColor=none;top=0;left=0;bottom=0;right=0;overflow=hidden;fillStyle=auto;fontSize=17;fontColor=#000000;" parent="10" vertex="1">
                    <mxGeometry x="255" width="127" height="56" as="geometry">
                        <mxRectangle width="127" height="56" as="alternateBounds"/>
                    </mxGeometry>
                </mxCell>
                <mxCell id="23" value="female / 1" style="shape=partialRectangle;html=1;whiteSpace=wrap;connectable=0;fillColor=none;top=0;left=0;bottom=0;right=0;overflow=hidden;fillStyle=auto;fontSize=17;fontColor=#000000;" parent="10" vertex="1">
                    <mxGeometry x="382" width="128" height="56" as="geometry">
                        <mxRectangle width="128" height="56" as="alternateBounds"/>
                    </mxGeometry>
                </mxCell>
                <mxCell id="27" value="TRUE" style="shape=partialRectangle;html=1;whiteSpace=wrap;connectable=0;fillColor=none;top=0;left=0;bottom=0;right=0;overflow=hidden;fillStyle=auto;fontSize=17;fontColor=#000000;" parent="10" vertex="1">
                    <mxGeometry x="510" width="127" height="56" as="geometry">
                        <mxRectangle width="127" height="56" as="alternateBounds"/>
                    </mxGeometry>
                </mxCell>
                <mxCell id="54" value="2.0" style="shape=partialRectangle;html=1;whiteSpace=wrap;connectable=0;fillColor=none;top=0;left=0;bottom=0;right=0;overflow=hidden;fillStyle=auto;fontSize=17;fontColor=#000000;" parent="10" vertex="1">
                    <mxGeometry x="637" width="128" height="56" as="geometry">
                        <mxRectangle width="128" height="56" as="alternateBounds"/>
                    </mxGeometry>
                </mxCell>
                <mxCell id="KT3CynAcazvn1DVqxbNP-58" value="2017-09-16" style="shape=partialRectangle;html=1;whiteSpace=wrap;connectable=0;fillColor=none;top=0;left=0;bottom=0;right=0;overflow=hidden;fillStyle=auto;fontSize=17;fontColor=#000000;" vertex="1" parent="10">
                    <mxGeometry x="765" width="127" height="56" as="geometry">
                        <mxRectangle width="127" height="56" as="alternateBounds"/>
                    </mxGeometry>
                </mxCell>
                <mxCell id="14" value="" style="shape=tableRow;horizontal=0;startSize=0;swimlaneHead=0;swimlaneBody=0;top=0;left=0;bottom=0;right=0;collapsible=0;dropTarget=0;fillColor=none;points=[[0,0.5],[1,0.5]];portConstraint=eastwest;fillStyle=auto;" parent="5" vertex="1">
                    <mxGeometry y="196" width="892" height="60" as="geometry"/>
                </mxCell>
                <mxCell id="15" value="100" style="shape=partialRectangle;html=1;whiteSpace=wrap;connectable=0;fillColor=none;top=0;left=0;bottom=0;right=0;overflow=hidden;fillStyle=auto;fontColor=#000000;fontSize=17;" parent="14" vertex="1">
                    <mxGeometry width="127" height="60" as="geometry">
                        <mxRectangle width="127" height="60" as="alternateBounds"/>
                    </mxGeometry>
                </mxCell>
                <mxCell id="16" value="-3.1415926" style="shape=partialRectangle;html=1;whiteSpace=wrap;connectable=0;fillColor=none;top=0;left=0;bottom=0;right=0;overflow=hidden;fillStyle=auto;fontColor=#000000;fontSize=17;" parent="14" vertex="1">
                    <mxGeometry x="127" width="128" height="60" as="geometry">
                        <mxRectangle width="128" height="60" as="alternateBounds"/>
                    </mxGeometry>
                </mxCell>
                <mxCell id="17" value="&quot;hello&quot;" style="shape=partialRectangle;html=1;whiteSpace=wrap;connectable=0;fillColor=none;top=0;left=0;bottom=0;right=0;overflow=hidden;fillStyle=auto;fontSize=17;fontColor=#000000;" parent="14" vertex="1">
                    <mxGeometry x="255" width="127" height="60" as="geometry">
                        <mxRectangle width="127" height="60" as="alternateBounds"/>
                    </mxGeometry>
                </mxCell>
                <mxCell id="24" value="male / 2" style="shape=partialRectangle;html=1;whiteSpace=wrap;connectable=0;fillColor=none;top=0;left=0;bottom=0;right=0;overflow=hidden;fillStyle=auto;fontColor=#000000;fontSize=17;" parent="14" vertex="1">
                    <mxGeometry x="382" width="128" height="60" as="geometry">
                        <mxRectangle width="128" height="60" as="alternateBounds"/>
                    </mxGeometry>
                </mxCell>
                <mxCell id="28" value="FALSE" style="shape=partialRectangle;html=1;whiteSpace=wrap;connectable=0;fillColor=none;top=0;left=0;bottom=0;right=0;overflow=hidden;fillStyle=auto;fontColor=#000000;fontSize=17;" parent="14" vertex="1">
                    <mxGeometry x="510" width="127" height="60" as="geometry">
                        <mxRectangle width="127" height="60" as="alternateBounds"/>
                    </mxGeometry>
                </mxCell>
                <mxCell id="55" value="&quot;abc&quot;" style="shape=partialRectangle;html=1;whiteSpace=wrap;connectable=0;fillColor=none;top=0;left=0;bottom=0;right=0;overflow=hidden;fillStyle=auto;fontColor=#000000;fontSize=17;" parent="14" vertex="1">
                    <mxGeometry x="637" width="128" height="60" as="geometry">
                        <mxRectangle width="128" height="60" as="alternateBounds"/>
                    </mxGeometry>
                </mxCell>
                <mxCell id="KT3CynAcazvn1DVqxbNP-59" value="16:23:57" style="shape=partialRectangle;html=1;whiteSpace=wrap;connectable=0;fillColor=none;top=0;left=0;bottom=0;right=0;overflow=hidden;fillStyle=auto;fontColor=#000000;fontSize=17;" vertex="1" parent="14">
                    <mxGeometry x="765" width="127" height="60" as="geometry">
                        <mxRectangle width="127" height="60" as="alternateBounds"/>
                    </mxGeometry>
                </mxCell>
                <mxCell id="18" style="shape=tableRow;horizontal=0;startSize=0;swimlaneHead=0;swimlaneBody=0;top=0;left=0;bottom=0;right=0;collapsible=0;dropTarget=0;fillColor=none;points=[[0,0.5],[1,0.5]];portConstraint=eastwest;fillStyle=auto;" parent="5" vertex="1">
                    <mxGeometry y="256" width="892" height="60" as="geometry"/>
                </mxCell>
                <mxCell id="19" value="-567" style="shape=partialRectangle;html=1;whiteSpace=wrap;connectable=0;fillColor=none;top=0;left=0;bottom=0;right=0;overflow=hidden;fillStyle=auto;fontColor=#000000;fontSize=17;" parent="18" vertex="1">
                    <mxGeometry width="127" height="60" as="geometry">
                        <mxRectangle width="127" height="60" as="alternateBounds"/>
                    </mxGeometry>
                </mxCell>
                <mxCell id="20" value="100" style="shape=partialRectangle;html=1;whiteSpace=wrap;connectable=0;fillColor=none;top=0;left=0;bottom=0;right=0;overflow=hidden;fillStyle=auto;fontColor=#000000;fontSize=17;" parent="18" vertex="1">
                    <mxGeometry x="127" width="128" height="60" as="geometry">
                        <mxRectangle width="128" height="60" as="alternateBounds"/>
                    </mxGeometry>
                </mxCell>
                <mxCell id="21" value="hello world" style="shape=partialRectangle;html=1;whiteSpace=wrap;connectable=0;fillColor=none;top=0;left=0;bottom=0;right=0;overflow=hidden;fillStyle=auto;fontColor=#000000;fontSize=17;" parent="18" vertex="1">
                    <mxGeometry x="255" width="127" height="60" as="geometry">
                        <mxRectangle width="127" height="60" as="alternateBounds"/>
                    </mxGeometry>
                </mxCell>
                <mxCell id="25" value="any categorical data" style="shape=partialRectangle;html=1;whiteSpace=wrap;connectable=0;fillColor=none;top=0;left=0;bottom=0;right=0;overflow=hidden;fillStyle=auto;fontColor=#000000;fontSize=17;" parent="18" vertex="1">
                    <mxGeometry x="382" width="128" height="60" as="geometry">
                        <mxRectangle width="128" height="60" as="alternateBounds"/>
                    </mxGeometry>
                </mxCell>
                <mxCell id="29" value="TRUE" style="shape=partialRectangle;html=1;whiteSpace=wrap;connectable=0;fillColor=none;top=0;left=0;bottom=0;right=0;overflow=hidden;fillStyle=auto;fontColor=#000000;fontSize=17;" parent="18" vertex="1">
                    <mxGeometry x="510" width="127" height="60" as="geometry">
                        <mxRectangle width="127" height="60" as="alternateBounds"/>
                    </mxGeometry>
                </mxCell>
                <mxCell id="56" value="NA" style="shape=partialRectangle;html=1;whiteSpace=wrap;connectable=0;fillColor=none;top=0;left=0;bottom=0;right=0;overflow=hidden;fillStyle=auto;fontColor=#000000;fontSize=17;" parent="18" vertex="1">
                    <mxGeometry x="637" width="128" height="60" as="geometry">
                        <mxRectangle width="128" height="60" as="alternateBounds"/>
                    </mxGeometry>
                </mxCell>
                <mxCell id="KT3CynAcazvn1DVqxbNP-60" value="2 June 2020" style="shape=partialRectangle;html=1;whiteSpace=wrap;connectable=0;fillColor=none;top=0;left=0;bottom=0;right=0;overflow=hidden;fillStyle=auto;fontColor=#000000;fontSize=17;" vertex="1" parent="18">
                    <mxGeometry x="765" width="127" height="60" as="geometry">
                        <mxRectangle width="127" height="60" as="alternateBounds"/>
                    </mxGeometry>
                </mxCell>
                <mxCell id="36" value="# create a data.table&lt;br&gt;dt &amp;lt;- data.table(&lt;br&gt;&lt;span style=&quot;white-space: pre;&quot;&gt;&#9;&lt;/span&gt;&lt;span style=&quot;white-space: pre;&quot;&gt;&#9;&lt;/span&gt;&amp;nbsp;vn1 = c(1, 100, -567),&lt;br&gt;&lt;span style=&quot;white-space: pre;&quot;&gt;&#9;&lt;/span&gt;&amp;nbsp;&lt;span style=&quot;white-space: pre;&quot;&gt;&#9;&lt;/span&gt;&amp;nbsp;vn2 = c(&quot;hello&quot;, &quot;hello&quot;,&quot;hello&quot;),&lt;br&gt;&lt;span style=&quot;white-space: pre;&quot;&gt;&#9;&lt;/span&gt;&lt;span style=&quot;white-space: pre;&quot;&gt;&#9;&lt;/span&gt;&amp;nbsp;vn3 = rep(&quot;world&quot;, 3)&lt;br&gt;&lt;span style=&quot;white-space: pre;&quot;&gt;&#9;&lt;/span&gt;&lt;span style=&quot;white-space: pre;&quot;&gt;&#9;&lt;/span&gt;)" style="text;html=1;strokeColor=none;fillColor=none;align=left;verticalAlign=middle;whiteSpace=wrap;rounded=0;shadow=1;sketch=0;fillStyle=auto;fontSize=17;fontColor=#000000;fontFamily=Courier New;fontStyle=1" parent="1" vertex="1">
                    <mxGeometry x="234" y="32" width="605" height="120" as="geometry"/>
                </mxCell>
                <mxCell id="37" value="&lt;br&gt;# read a csv file into data.table&lt;br&gt;dt&amp;lt;- fread(&quot;file_name.csv&quot;)" style="text;html=1;strokeColor=none;fillColor=none;align=left;verticalAlign=middle;whiteSpace=wrap;rounded=0;shadow=1;sketch=0;fillStyle=auto;fontSize=17;fontColor=#000000;fontFamily=Courier New;fontStyle=1" parent="1" vertex="1">
                    <mxGeometry x="764" y="9" width="381" height="63.68" as="geometry"/>
                </mxCell>
                <mxCell id="45" style="edgeStyle=orthogonalEdgeStyle;curved=1;html=1;exitX=0.194;exitY=-0.056;exitDx=0;exitDy=0;strokeColor=#000000;strokeWidth=2;fontFamily=Courier New;fontSize=30;fontColor=#000000;elbow=vertical;dashed=1;exitPerimeter=0;" parent="1" source="38" edge="1">
                    <mxGeometry relative="1" as="geometry">
                        <mxPoint x="148" y="560" as="targetPoint"/>
                        <Array as="points">
                            <mxPoint x="138" y="169"/>
                            <mxPoint x="138" y="560"/>
                        </Array>
                    </mxGeometry>
                </mxCell>
                <mxCell id="38" value="dt[&lt;span style=&quot;font-weight: normal; background-color: rgb(230, 230, 230);&quot;&gt;i&lt;/span&gt;, &lt;span style=&quot;font-weight: normal; background-color: rgb(230, 230, 230);&quot;&gt;j&lt;/span&gt;,&lt;span style=&quot;font-weight: normal;&quot;&gt; &lt;span style=&quot;background-color: rgb(230, 230, 230);&quot;&gt;by&lt;/span&gt;&lt;/span&gt;]" style="text;html=1;strokeColor=none;fillColor=none;align=left;verticalAlign=middle;whiteSpace=wrap;rounded=0;shadow=1;sketch=0;fillStyle=auto;fontSize=30;fontColor=#000000;fontFamily=Courier New;fontStyle=1" parent="1" vertex="1">
                    <mxGeometry x="502" y="172" width="290" height="60" as="geometry"/>
                </mxCell>
                <mxCell id="40" value="" style="shape=curlyBracket;whiteSpace=wrap;html=1;rounded=1;labelPosition=left;verticalLabelPosition=middle;align=right;verticalAlign=middle;shadow=0;sketch=0;fillStyle=auto;strokeColor=#000000;fontFamily=Courier New;fontSize=30;fontColor=#000000;fillColor=none;gradientColor=default;strokeWidth=2;dashed=1;" parent="1" vertex="1">
                    <mxGeometry x="158" y="480" width="20" height="160" as="geometry"/>
                </mxCell>
                <mxCell id="41" value="" style="shape=curlyBracket;whiteSpace=wrap;html=1;rounded=1;labelPosition=left;verticalLabelPosition=middle;align=right;verticalAlign=middle;shadow=0;sketch=0;fillStyle=auto;strokeColor=#000000;fontFamily=Courier New;fontSize=30;fontColor=#000000;fillColor=none;gradientColor=default;strokeWidth=2;direction=south;" parent="1" vertex="1">
                    <mxGeometry x="198" y="293" width="882" height="17" as="geometry"/>
                </mxCell>
                <mxCell id="46" value="" style="endArrow=classic;html=1;strokeColor=#000000;strokeWidth=2;fontFamily=Courier New;fontSize=30;fontColor=#000000;curved=1;elbow=vertical;sourcePerimeterSpacing=-2;exitX=0.41;exitY=1.083;exitDx=0;exitDy=0;exitPerimeter=0;" parent="1" edge="1">
                    <mxGeometry width="50" height="50" relative="1" as="geometry">
                        <mxPoint x="618.8999999999999" y="230.98000000000002" as="sourcePoint"/>
                        <mxPoint x="619" y="282" as="targetPoint"/>
                    </mxGeometry>
                </mxCell>
                <mxCell id="47" value="any operation on columns takes place at j" style="text;html=1;strokeColor=none;fillColor=none;align=center;verticalAlign=middle;whiteSpace=wrap;rounded=0;shadow=0;labelBackgroundColor=none;sketch=0;fillStyle=auto;strokeWidth=2;fontFamily=Helvetica;fontSize=17;fontColor=#000000;fontStyle=2" parent="1" vertex="1">
                    <mxGeometry x="648" y="240" width="390" height="30" as="geometry"/>
                </mxCell>
                <mxCell id="48" value="any operation on rows takes place at i" style="text;html=1;strokeColor=none;fillColor=none;align=center;verticalAlign=middle;whiteSpace=wrap;rounded=0;shadow=0;labelBackgroundColor=none;sketch=0;fillStyle=auto;strokeWidth=2;fontFamily=Helvetica;fontSize=17;fontColor=#000000;fontStyle=2;direction=south;horizontal=0;" parent="1" vertex="1">
                    <mxGeometry x="88" y="310" width="30" height="390" as="geometry"/>
                </mxCell>
                <mxCell id="49" value="str(dt)&lt;br&gt;summary(dt)&lt;br&gt;names(dt)&lt;br&gt;dim(dt)" style="text;html=1;strokeColor=none;fillColor=none;align=left;verticalAlign=middle;whiteSpace=wrap;rounded=0;shadow=1;sketch=0;fillStyle=auto;fontSize=17;fontColor=#000000;fontFamily=Courier New;fontStyle=1" parent="1" vertex="1">
                    <mxGeometry x="388" y="680" width="290" height="60" as="geometry"/>
                </mxCell>
                <mxCell id="50" value="common functions:" style="text;html=1;strokeColor=none;fillColor=none;align=center;verticalAlign=middle;whiteSpace=wrap;rounded=0;shadow=0;labelBackgroundColor=none;sketch=0;fillStyle=auto;strokeWidth=2;fontFamily=Helvetica;fontSize=17;fontColor=#000000;fontStyle=1" parent="1" vertex="1">
                    <mxGeometry x="173" y="665" width="220" height="30" as="geometry"/>
                </mxCell>
                <mxCell id="51" value="#save a data.table into a csv file&lt;br&gt;fwrite(dt, &quot;file_name.csv&quot;)&amp;nbsp; &amp;nbsp;" style="text;html=1;strokeColor=none;fillColor=none;align=left;verticalAlign=middle;whiteSpace=wrap;rounded=0;shadow=1;sketch=0;fillStyle=auto;fontSize=17;fontColor=#000000;fontFamily=Courier New;fontStyle=1" parent="1" vertex="1">
                    <mxGeometry x="598" y="657" width="430" height="65" as="geometry"/>
                </mxCell>
                <UserObject label="oceanumeric.github.io" link="https://oceanumeric.github.io" id="qKH08EGTIt5qRbtDydB--56">
                    <mxCell style="fontColor=#0000EE;fontStyle=4;rounded=0;overflow=hidden;spacing=10;strokeColor=none;fontSize=15;fillColor=none;" vertex="1" parent="1">
                        <mxGeometry x="54" y="142" width="185" height="35" as="geometry"/>
                    </mxCell>
                </UserObject>
            </root>
        </mxGraphModel>
    </diagram>
    <diagram id="moVAl4_iVdF33cLZzy9n" name="Page-2">
        <mxGraphModel dx="1128" dy="980" grid="1" gridSize="10" guides="1" tooltips="1" connect="1" arrows="1" fold="1" page="1" pageScale="1" pageWidth="1169" pageHeight="827" background="#ffffff" math="0" shadow="0">
            <root>
                <mxCell id="0"/>
                <mxCell id="1" parent="0"/>
                <mxCell id="BAzzXLXY07OetGRpvnpU-1" value="" style="shape=image;imageAspect=0;aspect=fixed;verticalLabelPosition=bottom;verticalAlign=top;fillStyle=auto;image=data:image/png,iVBORw0KGgoAAAANSUhEUgAAAPMAAAEYCAYAAACJAsDKAAAAAXNSR0IArs4c6QAAAAlwSFlzAAAN1wAADdcBQiibeAAAActpVFh0WE1MOmNvbS5hZG9iZS54bXAAAAAAADx4OnhtcG1ldGEgeG1sbnM6eD0iYWRvYmU6bnM6bWV0YS8iIHg6eG1wdGs9IlhNUCBDb3JlIDUuNC4wIj4KICAgPHJkZjpSREYgeG1sbnM6cmRmPSJodHRwOi8vd3d3LnczLm9yZy8xOTk5LzAyLzIyLXJkZi1zeW50YXgtbnMjIj4KICAgICAgPHJkZjpEZXNjcmlwdGlvbiByZGY6YWJvdXQ9IiIKICAgICAgICAgICAgeG1sbnM6eG1wPSJodHRwOi8vbnMuYWRvYmUuY29tL3hhcC8xLjAvIgogICAgICAgICAgICB4bWxuczp0aWZmPSJodHRwOi8vbnMuYWRvYmUuY29tL3RpZmYvMS4wLyI+CiAgICAgICAgIDx4bXA6Q3JlYXRvclRvb2w+d3d3Lmlua3NjYXBlLm9yZzwveG1wOkNyZWF0b3JUb29sPgogICAgICAgICA8dGlmZjpPcmllbnRhdGlvbj4xPC90aWZmOk9yaWVudGF0aW9uPgogICAgICA8L3JkZjpEZXNjcmlwdGlvbj4KICAgPC9yZGY6UkRGPgo8L3g6eG1wbWV0YT4KGMtVWAAAQABJREFUeAHsXQecFEX2/jbM5szusrDsskvOIFFyEMWcFczp1DOdf7Oed2ZPPc8zomeWE3M6MWFAQZQoSM55gYVNsDnNbP+/r4caekeQtESnfr+e7ulQXf2qvnqv3nv1CgikI4kCLn5MuOODso866qgxPXr0qOjevfubPN/KXGvVqpXu0/2BFKBAgAKHEAVCWJZIR3nie/XqdWvPnj3X8pxlNoJ6Xe/eve/g/0THvXpOzwdSgAIBChxECgTx3RHctLdTmzZtRg0YMGAq/9ggPuGEE6znnnvOc+qpp9aZc7resWPHUd4nfL/18vGdDRwEKBCgwH6nQBgBGeZ4S99Bgwa937x5cx8nHj16dOW6des8dXV11vr16z3/+c9/qni/fb1p06YWQf1RaGjoQJMHObe/mG4uBfYBCgQosB8oEMo8nSJ11tFHH/0EgVjI8zZQ77rrrqq5c+e6BWJn0v+FCxe677nnHh+oOabeyuef4bMtHWUVl9Z7AilAgQAF9gMFgpmnE8SRXbp0+Uv//v2X8rwN4nPOOadm4sSJNeXl5T4Mu91uy2zmZGVlpTV58uSa888/v8Y8269fv5UE9i38H8PNJL1P7w2kAAUCFGggCkQMGTLExykpIp9GkXpSZGSkDeLo6Oi6Dz74oCo/P9/Hij0ejw1iA2DtdU6bSQUFBdbHH39c3aJFCw/Laec1cODAnzMzM8825WYHIeWYOHUgBSgQoMA+UMCVlZXlBFJ3cuK3OnXq5OOoTz31VNWqVau2I5RIFSf+veR/fc2aNR4qyXyid7t27dwcT7/PcvcxZd9mynKO0c2lwD5AgQAFfocC/qamxhwTP9q3b9/NfMbmoP/3f/9XPXv27FomH24FUv9xsu+i34Huc4Jaxxxn1952223V5h19+vQp4Hv/xf/pjrJK9A6YshwECRwGKLAjCsjEJLAYU1NQ69atryaXXMBzNoiPOeYY93fffVdTWlrqg6e/+Oy7sBsH/s+WlZVZ33//fc1JJ53kNu/k+5eQW9/A/04nE2c5eSmQAhQIUMBQINzP1HQ8QfSt09Q0duzY6k2bNvnGxf7cdTewu9NbBGonV9f4+9133/Vx6SZNmsiU9UNUVNTJpsABU5ahRGAfoICXAv6mpg4Ub18jUCp42ebGjz76aM2KFSt+My52gm+nKN2DCzvqHFauXOl54oknfKCmxruKpqyxLFsXRwWKS/sUdI7zgcMABf4QFPA3NSWQMz9ABddGfr0N4quuuqp25syZtTU1NT5I+nNQ34UGPBCo9R6TNC7X+Py6666rNWWjKWsTy/sI/yc7akugDpiyHAQJHB75FKhnakpLS7uMIuzcoKAgG8Rdu3atGz9+fE1xcbHBky0COwHmu7AfD/w7Do3Tv/nmmxoC2ekaurBZs2ZXmSoLmLIMJQL7I50C/qamIRSpx5PD2SDmx1uvvvpqTW5u7na2SLAeaBD79w/+79+8eXPdmDFjfOYxKscsit7fsfzHmgrcZlILmLIMQQL7I4YCMuVEOb6mJb23XiKQy3jOBvLf//732mXLltUzEPtzRn+QHcj//qK33s1xvPvBBx/0id6ckVXRrVu31/lNbRzfKtE7YMpyECRweHhSwJiaTOkjybHuopiawxM2iCmWeqZOnVpbVVXlw+ahBGJfobYd+IO6urra0rj+ggsu8HmR8fs20qvsHn5jrPlw7gOmLAcxAoeHFwX8ZzWNpCg6i66SPpH6008/rd26dWs9U5O/SOsPpkPlv3+HU1JSUvfFF1/Ucvxsf59MWfzeuREREReaattmenMGTzCXAvsABQ5JCvibmnrTnDOOm09pxKmJtRs2bPjNuFhc73BL/p2PxvsvvviiT/SmMs/it3/JmurvqK2AKctBjMDhoUcBf5G6KQMFPEfuVMyi2tzq5ptv9ixatKje1ER/Dne4gVnl9Re99X/p0qXuO++80+dFRv1Aadu2bf9DWjR3VF3AlOUgRuDw0KBA+DaTjEoTkpCQcBNBvIbHNoiPPfZYTTl0a+qhSWrwhyMnNuXf0d7/m6QHmDJlipuuoT6phHRZn5KSotBFRtMt5ZhzMgn/BlKAAgeeAvJVdjbE0+i5Nb19+/Y2iHnNev/9991btmypJz/7i6Y7AsbhfM7/+6QX4FRLH5emxGKRTrNIH99USx4HAgySCIF04Cng773VmbbWDxlAz8eBHn/8cU9OTk69cbE/5zqcAbursu/oW6UnePrpp32gJqCtDh06fMrq6+6owoApy0GMwOH+pYCTEycyUMC/aF/dylfa3JgumHWcSkjmtB3HO2rYuwLDkXLd/9v1f8GCBZ4bbrjB1/FxPF1COj5NGqY4qk50NrPHHKcDhwEK7DsFNMYz4zzldjVjUa9MT0+3QUxnCYtTEzUuridSq/EGkldJ5qQFx9N1P/zwg5uRTWz6paamSvReS7pqqqVJGsY4aW7OB/YBCuwVBfwVNMNpL/1JJhfmZm9vvPGGp7CwsB5qnQ03AObtFPCni/QJb731ls/hpHPnzhY3hQo+wVFb4tKBWVkOggQO94wCEvGcInVrzi0ey3Gxr+Hdd999HoXc2d5Uf8uBnNcCx14KCND+oFZI4H/84x8+2pLOVnZ29nusg/aOaguI3g5iBA53jwLSrBp/4mh6MT1AkXoLz9mcmK6LdbNmzfI4w+7sqIEGwPv7FPCnmfQMc+bM8Vx++eW+8TRF7+LY2NjHSPu4bVUn5WPAi2wbMQK7nVNAopyzoVzM4HnLGLrHBnHjxo0tuix6KioqAiL17+N0j676c2npHTgF1GNmk9HPW6L3KtbNFY6q01g6IHo7CBI49FJAvb1TpO7HBvS9lFo8b290UfTk5eUFQLxHMN2zm/1BLT0Ep4T6RG/pKVq2bDmZdTKEm0mqN9VfIAUoUI8TZyQlJb1CX2KfLZTRKuuWL1/+GxD7N7w9a7aBu3dGAX/RW/cxlHDd3Xff7RO92cnW0YtsDNtulqP9OiUqx+nA4R+BAjJ7GDFNx7dTpC5ITk62OTEXXKujK2Kdc1yshhUAsaiw/5M/nTWenjFjRt1pp51mg5qBBSV6S4/xd25GqlJ9qi4D6Q9CAYlkTtvlmRwTz3e4YNZ99NFHdQw56+PGO+IW+785B94gCvjTXvqKcePGCdA2qDl5w6J76GL+H+lov6pfo8B0nA4cHikUkKnJKYp1ZeytzxnxwzcufvLJJ+tyc3N9IDaNaV9hpQYpDm82cRl/zmPe5bzXeY+O9ZzycJ7f17IdLs/7f7NCFz377LM+0Vv2aXqRfcM67ulosKpv1XsgHUEUkOhlKrWRy+V6mppSXwyra6+91sPVERscxAagvwcYL0h/a3fd/oyKVa9o9qWddQjbnzsyj/xBvWTJkjqu7uFTknGo5OYaXM+zvhs72q9TEnOcPrIOTQM/sr5q+9dI1NI3SqGldD1F6r9ShG5CDgwu91L3yCOPBDG8bRDXKbZvIATAKJn28b7+sOEhODgYFA2xcOECVFa6qRoPQnKjRGRnZyAqKrreK+rqPCgqLML6DRuQu6kACxasxq9zlyAuLgxpqano3Lkd2rTOQJs2LREeHmk/a95RL6M/wB9nPbFjA0MvWffee69W4wim3gNUZOYzptqjJIV8vgV2ox8xbeGIo1LDtNpDjyz6LlWeIl4ojcjIyHiYSpMenDSv/3VcHSLolFNOCYqL8/oiOBuHbtjXZEBWVlaKG2+8Ba+9NhkPPTCAhcqD22qKzYUJSGyUgfj4SII11gbxYpatqCgfcTFBaN+yDO3axCAjIwthLg/KqxKxds1STJ7mRlBoBs46fQiGDh3EjicE5l37WubD8XlnvbGTxpdffmmNHDlSQ6dgjqXZgVbO5ew1Kck+2/Z9ktIEbonoR1Q6EsGsyjIgbkPvoYcZl+rsxYulI0HdQw89hIsvvjiY4LYr0tkY7BMN8GPy5LgOT/z7JUz68TOM//BUJMZ9QjmhJ/K2dEV1dTQKN01GYcF4Hm+AK6wNmqYPQKPkRMRGVSE6pg5bS7Ix9ZdirFxVSFA3xnGDKxAZVoAlq7vjjXfXYsPGMnYQt6F58xY2oCVRNJRU0QBkOKBZGJrrpZxqibfffrvu9ttv199gKjdBSexTzqu+m/8X6iSTs514zwR+DxkKiBObzklRIf/BZUh9y5QSwO5ff/2Vde5N5GYNrkhy5jlt2jRbsfbwfWdYj//zb9bc6fdbW3L+ao1+5m/WmDHPWzX5F1rufFhWyUWWVTnCssp5XAyrroD7IlirF1xpIe1SO48//elqK7LZadZD919luYv+YllbYdVsfdZ6+aV/8Xpza/5873f9UcfRO6vTefPmWVdeeaXhwhbbg/Qkj3NL5KZkJDjvv8DvQaeATE1OM8Ql5MRrqam2gUDThfurr76qU0hYkwS6hk7OPJctW2q/e8yYF62S3L9Zxeuvsh5/7C8WUs6xxn/1jmWV3WtVb4I1e9rT1oRv3rF+nvgva/6s/1g5Sx+yStefTDB3tao29bXGvHyunQ+/z97fd+91VnXB7VbVRoK+MMSqKXrEuvPOG+1rq1evsD/J3y7e0N95OOTnrAst7fPtt9/Wcc657QikqZaUyjaQplc6Wq7az2HvRWY4meO7DptDlV2VYBQaA6j4eCQmJmYAZzLpI9wvvfRSyFlnnRVEZYj+7/exJRsOVq1aiaeefhYF+bm446bj2ELWIDMjEXER0/H2+AtwzvFbERNyJWpqO8MKikXBllQO3hI4iOuIraUpKKlIgad2M5o3rUJMbDoWrQzH55+ORedOTXHi0M1ISfwMVdWpZCm5CI8Iwoa8S9Gs+1e44PQBeOmlp6hUiwEBDaPQsz/8D/pDUNsKSH0+l/oBQxdZnMQhTh3KGXBSTE7japd/5f8fdA+TpDtdVwd52CUnRzucCq9yG8eB5lRsPcUgAc9s3Lgxk+MiD6NCgsunhAwfPjyIZgobxPo4aZYbMpFL+caoNJHghx++R1lpKd7/3yy88HgndOpwG5JiYhAeuhLhrm9RuLUnYqKCEBf1JYJC2mBD0cVYmz+CLacRthRtQHbGerRKn4SURuEoKknF6lxqZRPjcfqIrehz1NuIdK1HTU0IQkP06bHweCqRmFCEUaf1xdU3vErwN8KA/n0QEhLKa54G/96GpN2ByEv6A9WRNrUDuukGXXbZZcFUetqOJwRzJhcluIQL47XmNodlKtxWLrWvww7QhxuYhUZbrKQoHcnKuJWOAm/TIb8PQYzTTz/d/frrr4deeumlQYmJiXYlqnIE4oZWDDmBzMXUUFBQAEbhRKdOnbFi+WL07JaM1avbYsGqo9EqMwd17mJUVGajpLIJEhM7YdyE3gh2tUJF2QZkNNmEuOgKcuGWWLO+ERJiVqJFxn3IbrwIFeWhWLymLSx3PBVon/ObmtjfFRTE4V9QAty1S5HWuAJXXXY+xrwzB0uXbUavXl0QFhbuU4qJBn/UZJSCBtRqF0OHDg06+eSTg8mt3T///HMQgdyFzOBKar5DGzVqNIvtSkvYKpn25v13iP8eLmCWSC3C2uaEsLCwcyhGvh8SEjKSYlI4x0G1jFYRfMcdd4Swp7VJbkSshgaxnTl/TL6cEgk2ADUQ2n7D7fOzZ03DrHmb0a1jInp3eg1LV/XC8vWnonPbZfh+SgYym4UhNbEAq9ZUonXzNcjfkg5PXTCO7v4tQR2P+SuPRm7BiQimRqx5s2fQOCEayzcMQ3FpR6Q1+pBvN4Cu4vvS4K7ZwA5iCk449jx8NykXb44dj8GDelIjHhsA9LYKM6BWu9AxmQBOPfXUYIb+BZerda9evTqC3Hso29Z5BHc+JZv5fFSMo2HFuW3l2R+7Qx3MBsQ2N46Pj+9BkfqN6OjoOwniRlRq1TDaY9Dzzz8fyknstuOHxEtVVkOL1E7iG678448/gqYvMCCdDzRyRpk0+Re0zdqKY06Yj9mzumPD5kgM7z8WZeWN0W/oTCxbuQwjhiUjJSUG8xanYEjvKSiraouJUzvRTGWhS8tJaNa4FIvWnUuO3w3NmzyOzMYWNhUPZ15teO0jasAEaHUqBHRwCmqq8xAd9ROO7n0aJvy0EeM+m4Tjjh2EiIjIgMjtqDzTCaud0BOQDjhtgkaNGiUmUPe///2vtry8PJnc+yx2zIMJ7KVsYznbHj/kQX2ogrkeiKmsaMJKeJQEfoUidUsS3H3jjTfWMfaWiwHWgwhuu8EaEJsKc9Rhgx0ajs8wN2BZwIB0NpDVeciuTLENl19+MaZOW4q1K4OopGqKYwdPQF5+dzzw71Kce05f/OnSAdi4uRQFRXFYvMLCUm6J8SFYsjwEIeEt0KltPCJD7kNmkzRsqRqIlev6I6PxP5GWZKGo4gSsy0lDs7TPUGdlEtA1BHQlO69M1FJFHhW9FW1adMKfb3jOFvk7d+lid2yGIzUYIQ7zjFRf6pRFFypNOTTpFcQIMiGMKuNmYMY6BhxsybH1nwj4plSszuHa1MXbPvmQBfWhBmaBWJvNicltXdQQX0ex592ioqIhBDFGjBhRwwnrrquvvjqYc1rtylClUOS2OfL+bGN6jxqBenW6D9qitXkvF07D119/DXYuiGHnkpSUisFD38eIY8OwfE1PfD05CScNrcOo02vROHk8lV1z0KLpfHTr3Joctxcap6Ti5BGvIDGmKeYuiUF6ah71qu8hJb4QhWXdsTHveDRNfZQKtXDkl5+E0pJYpKZ8idra5gjW+BkyqfPYmkOvshaIS+yGh5+di/PO7EfpId7X4exP+hxueZvOX4BW3coNlHqPYCpOg6kDqaFfQjA5c09y6Mspgnsogc2mpcQ4JJm2erh99n4v728IQzvxiTQp/co328DmvopePR72kKS7Nx1omypBbL9YfsAMWGCKYc9kktmDnkf2OSpQLNq2rcKCzdbwE6+1Pv/kb3QKucaytkRb1bmwKjdEWpUbm1k1myItqxDWxuV3Wj9MeJPXO1m1ebDmzhxtzZv5tO1Eovvrio63Zs94zZoz/R+WVQqreMPfrJnTP7S2rOlhP1+V28mq2dzMqt7cyari/VbpGda0SffadBs37mNfOdlofceBg99SwNmeyDi0GkkdubPP8YjtcT7H2qf6oeE3bdfv+gH7e7A5s5MQanygl05H9pgvkNM9RF/bNJ6qfuyxx0CROozr/gaxl7TtqKZXPVCUYtXbXJmhg8DxOhjtwu7NVQ4GdacCKhGcxGEX55dffrEVLBkZzVFWkoeMlG/ocvkdymnrDA3tyHwiuIWwl2rELRiR4WuRV9SF+WUxn0mICk/F2k3tEE2f7NjoZfzeFWjcqAKbinqgpiqbXPxf1Iwfg+KytrQ7f0PlWRqlklqKNDTD1NXyHXk81xNPvRmEZskeDBw0kOdcAe68i8biFL2lzOTMuiBaRkIJYA8tFrXUdjel+H0eQd2D8eAW0YKyeVuWph1rf9DSwQSz+XAbxFzeRVMT76F4818CuRO5oJurQ7gpUofT8UO2QVu8FaWMaHsgqSbQKk2fPl32Sp/mWiK3Jm8weqddLg4HsHLlSkhLqhQe7sLbH6zFkP6nIypsBs+s431hBN56Kq4KuC+HK7QAIaFHYdX6NDRv/CVCglbxf3fkFrZBE4rktbXd4Qr5mZpuuqDk9kci99GRW5BXfBTiozbRjj2T4M2wlWF1Vijt0Bvt5wvzy/Dsc/Nx7TWnIDYu3u581GADaecUMExCorc2tTvOrgs+++yzaUAJraFUVkfJqz3F76toRYnLzs6eQ11J+bYcDah3/oL9eOVggNl8sA1irZ5IkeYKKpPeJZBP5Pg4eMiQIVUMoOe6/vrr1SvajVCEPRggdtKeZaP9lmYlTkcUp1bFi1PrPO3e9q3z58+XdGE3At2TltYY5eXV+P6nIo5jz0RV7QhsKU6k00gfuOuOoq2tHzXRQfTcSkFhcRYSossREbYY4WHJKKnqS2+wdHuCRnV1V0RF/Mjn+mLd5m5IT/kWpRUdWI4EzrKaDI9bYC5hGeIREpzPTqIJNmxqhC+//hLnnTeSkkIzu7wqpOmY7AIHfnZIAQNqddZK5MQ47rjjQqjwDCF4q9mBuzjk60dufRGHhJWs8zm0ZHhv9up9DLPaYf774+SBBLM+TmzBBrE+hn7Tw+g59SY9t66j+KK5iFWvvfZaMIPLuyTiiIvINVH7Q4GjqDOhecwGssqvCl+xYoWtONF5lZX2SlvcNu6UuqdD+7a2pvvGu75AtTsd85Y2wsbCLthY0BpVnu6odSciJeFXlFYR3HROjY+dQnF5FTl2IjYUHoXkuLlUcpWRcqUEeQQKSruhzhONhNjNKCxtgRQ6k9TVRbI89EYMCua1AoRFZaKyKhVvjJ2Jk086EW3btfeBOABm1d7uJbU70Ut1qzpl1FYwDlkoF7yr++STT6rIoRPpfHISO/QRZDw5lMxWOnI+oGLQgXiZE8S20wdF6jZ0dh/D3m0COVs/fnz1/fffX7tq1aoIudtxfWObeOLGIuCh1PgMR1aZxJHZO5P7amgPzZ21OTfNGz7Orfv5AWwAp+PFp/6M6oocXHfVibjo9GoM7z0NXbIeQpv0OxFUt5Z2YjdKylkl/GaNfWMjv6UIXcIpkxdwiuQG1Lh7IcL1JdKTppCL0yHECqa04kFldQ/uV/GdEt+r2FtSSrAWIjGWGnGm5SvWcIjidWG3y2OfDfzsCQXUDkU7gVqi90UXXRS8du3aSAa3kHa7mlJlb3bs4+lJ9g4ZUYdteau9i3kJZ/udU+9vzmw6C5sbU2mUQJvwreReY6k8UKwmDxUMNRSpI84///wQKZEk1ohohxqIWVY7OTsWlVPil8CrJLuzkkxmSrpXmzol7dPTMxDqisGShR+jY/tnEFzzGce3NHWxyoOCcghKcmp3R6Qm/MKOwk2nho280JPctx1NVJ+QLlKaNUYYfb1jo37mc01QwWciGBQnKuwXiu1ZzKeM7wsm/Ypp426P5SvnY/KMeIw85xj6J0fZ9D0UpBybQIfZj+pQtFN9alN7HTBgQAg9yULZFqrpSabOvQvbwRXk4OFUiM6jhaOSn6n272Rq++XLDdgaOnPlq83XM5Ebn8eIDzOoHHqQvVsUFUSVn376afALL7wQwelpvl5Poqy2wyGpw6FHml12lVdabrl2+ic1AAFfaeCAPnQUicLypQPgihrA2VOaI5/MmqZOIKiIonE0ubKLoGRIIT4SE7GIzcCFrWU3MOJIDsEYxwYVT2XYJsRHF9Blk+P3II3hlbvykgdcOMfaJbwnF6dRxJ49/QMsX7ZMN9i0NWWxTwR+9pgCqk+1UXFp0VLKz+eeey6cUU5ChgwZUkmgR7Cd/53my5kMjHCx9EJ8iWpIeDDY2OP37uqBhgaz6X1UaG0y4fSjSP0Vx8aaECHbTSUB7Ga41Ej2aEHiaiKKksBxuCUnMJyg9f8O9epKwcFB9Ak+A+PGc0nn4ET+X7IN6C5ER3CisudXVNc0Isf2kPM242yrTxEbsRwFJa22zdqmoZmiNCV8pk0IrptHF9CtGiqzuYgJhDBPN2o96QgOXUunFG8su4mTppCbeF1dxVUCad8pYNqr2q8Uo4y1HvThhx9Gvvzyy1KEVXKFy2xGuBlDDfi3jB46eNsbDTZUYw0qejcUC1ShlJcKavMIhrDN5tjikUWLFslm3JLna+666y73K6+8EnH88ccHywXTgFi9nGnsvO+wSiq3NgFEM7ckdsvnV8n/mwR8nYuLj8WUaWuRljABqWlNqM2uIQAjuRVyemQpFV8lvK+MIE8kqDXuTUTB1rbUdFs0UU3j+TQqxPSOEorcZRxH08QVtIovjGPr8CpUNX4ODVpLk1RrW4y/78FFuPJPJ/LdCXbnoY4nkPadAqpP0VL1ryGiXEPJqYMvvPBCF8XwmkmTJrnZ/ltRN3QpNd7NsrKyFlPrXcQ32zjhvqEw2CAZqTBGhJCGOpZavespYvyXHzBI5DrvvPMqORlCyq1QucyZDz9Ux8Uq896kTZs2Qco79dJK/mA250JDQ1C0pRKbN36Odh0aw023LTmSqEeMjFhPamoGnqJvUpPKKbau0BiUVbfhXGYXEuKnUfvdlHnrngiCfTlNUWuoDMvmvTpns2iCPZTcuxqRMaAprR/+8+pXbGQ9wU7W1/h2VD5mEEh7QQEDaqPzUTvnTLoQmrNCqSitZAijEGq6e3AodjFF7yAqyhawvRjvMsMMDcD3ogT71iuo1Wjz2da4sNeZFC3e4HjhEnLdKK6xW/HMM88E33zzzWGyveqDxY3FiY8kzmA4rsbM6qDUOyv5g8X5v4rc+OeffsWgPhxzuznbLijJ5qqeuhg+J7JKaaZekiAPKqWNOYocn3bu4DnkrPE8J7Jr4r04LTmyDW7Tyatt6HojaskXonFqRyQ1aoWrr/0V1/x5CMvndcA5kuqAH3tIJNFUm9q59gocyfkELk7ksNavX19JDXgs28lwFvZkLoJXSJv1Eh4biVYVqMrbK1Cb2ufzu51ML2IKoHFxL4rUoylS30Ntnuw0VQRx3QMPPBBB5/RgcSqZcdSYDxfl1m5TY9uN+jaFphGwxZ2VnODddptvV1tTi5+nzucc5hSOi6WZllNHJTdDVlOnEqcVXWQmxemlcHMsHBQkHYOu6x0MvWsDWx1A/aT317pDEBaxAi1bjMD3UxcjvWkWZ1O1D3Dn+qRq8H8CstqCQC29EBXAQSeeeKKLAK7lHPgauiqnE8jnUOPdMzMzcw25dA4LIRBr2xtc7vFDeolpbfJdzaSN9V6KEC9RuSXbWi3Dm9ZKpKZyK0RzffUx+qgjTaTmt/qSAa1ALJ9edV7mnO+mbQeGi4vrTvpxHlplFSIldQNqq0IJMJHWP6lu1TASKUrLMUQc1wtk7506dv73nvWeq2WejeCuXoO4pEacGtkODz+zAMMHdUYCzSqcd8HrO3rW5BHY7wsF1AbEvCR6a2gp+zQ5dMi5556r8XTV5MmTLYre7Qjky7kSRyNiaQkBTs2ojzMLb7vNpXe3B9B9PpGadtQY9jRX0nPrdU4JG6FrVL9XcO2fcAZMczVp4o2EoY8QiNVL/RGSvtOMl3/ve1XJAtKE7yehVfNCpDdzcdy8nHSSE5w/oL1gE4jVAexZEt3lRJLJ8IY/okV2b4YpqsEH41Zh+NCe7HgiAnbnPSPoXt2tdqFNjE1J7sBDhgwJHTZsWDAl1iq6ALuoX+rD6b4j6VnmoTfkYm5SgHh7ci/2dgnqXYFZrUH3eAdoPKCm7mQ2xpe4NtPVdDiPo0KlgguuBXFcHK6BvQotkVr7I1WkJhl2mMR1lXbGlc1DXjDXYfqM2YzCWYHmGUXknutIs3je4s95zVN7vxfHr3XHUpH2Ldq3HYaP/jedDioJnDDSya4ncY1dlXnv3x540lBAmFASqMXksrKygjh32kVMuckUq6hrSqSm+3gqkI+h00k+j5fydjUqbcZuu1NQ7wzM4gF6WC3LZhVUbh1Fs8sTc+bMeYSiQQbPVz/xxBOeBx98MJJeMMH+9uI/YuPQN+/Od+seVeiE739E+1b5VJIUb9NoS3Emcu8xC+YzO0vKS51rDE1g+YzgWY5O7TrhnkenoHXLLGQ11wQNr2ltd8q+s7cEzu8eBURjMTlj0VHUUA5Xg2mudWVlZVWPHz/eQyVyJoE8irbpDgS2xtN0BfQNb4XLHQJ6R2A2PYCArBhJ6XzJ7RQFXuYLuisjrrpXNXr06PAzzzwzVONEMyY4ksfFokXDJAGeFuKSUrz73v8wfKAbqckryZkpS23ruRvmPc5cVM1UrtmhheYjLb0R2mXHYNQ13+OE4T3pfprsuzkAaB8p9uuB6Kz6NqYs4YjK4lBGmA2lrqlyypQpIRS9OxHIFzHiTixBv4wgV+gi09sLpzajNQV1glnH2iTYC/nRdLO8mAbvl+nFcgZ7EhdfVPHUU0+FXHHFFWFUudvsQyL1H2lcTLrsUxKQlQq42uP4ryfg1BEJnJP8KacwZrJyZXbcdoN9V0P+0DGHgAYyUFc7Hdk0FWal5OCfz23AsME97cCE20YJuyVdNGTJ/sh5CdDahCNxbE3aGTx4sGvQoEEWZ2RVcjgbSSY6gObO06mnqqavt0RvjacFZAFaDcbm1AKv/sj+IRDbSKcMP4I+xqMZA+lGejU1YiZV//73v62bbropgmPkYIFXL1fvouNA2nMKbFifix8njsU5pybCFTyTmmquUmHbivcXmFVGNZwacoMmrO0pNFH1QrBnIf41ei0G9OvG6Z1SwHlTgEMbShyYvYBsTFlSotKEFUQFmYvDW80mrOHytCkE8skUyQeSkWo8LWd74VVAFn6tei2HInVXqs//wrA3l/OikvvRRx91M9JHhJw+lCQWKP3RlFv2R+/jjzFLKZsvv5qALz4+C6OfGI6ayo95Rk41CsxXr0p0a4MnAdXtdrEjXobQmIvxwYd5eP3DTLw0+h4GWUi3G5VeGgB0g5N+tzI0ordhlAQzGAa46pZbbhHzFXBBh6yxDOrxJKXm2dsy5eK+3tSEPcBNVGz9hz2A5hfjhhtukKnJJZuYZgKpIeolAZF6G8X2cmcAMvHHKZzqWIyePaoZIjeHHNOYpfY/mNWZh4RoPjZneLl/QOcexyE8aCvuf3w6Bg/oagdgMNKbKe9efm7gsb2ggBG9jSlLa6UxdFEo1xMP5iy9Kq4w6qJZuAsZ6igy2SjappfzNSUC87k0YMtefC69UiIZRaFSpiaOi8Ozs7NZl95J+HpBgBvvRc34PSJ61nCI8tm4r3FUh1/RolUIHUYKCGb5Yu9QSemXQ0P8VYfhsevT7Saga75G526DUFddiPsem4ahg7r6vNj0NpU5kA48BYQ5JYFa2KNmO4hjaVf//v095MrVs2bNiiGQB1N5djLt0puDOMPHzfFvCF0yqxlYPogq8jATOUOZmF7iwH/KkfvG/IJCnHfBn/HcQzV085uJytJoSjxeh4ID99VeQGvuM6ufNuglCI28Gq+/U40xHwZj7Gv3UeTOCIjcB65CfvdNMmVpM6I3tdyK015D6dkiqMM5zvaEELj305+6ksufho8cOTJUkwScMnugV/5dGu/Vxfz8Qkyb8jEuGtmZCqjx1FzI1itN84HmgOr5a+xev9bTmHOjx9MpaBjKS6vwyn9/JYfuzhUyGCyBAkOgHexVVTfYQ6K/GKvRWclVmgw4hN6Woe+8804lfUDCgsm+pdGKFAvXm6kOtys3IFI3WD38JqPi4lIkJxYTKGWsHAFFXPlAA1nFkliv2FZV5Mweiv9tUVf1b1xzWQrt0Hm478FnUVlRzkbkdSrRE4F0cCkgXArUwqkScatdpHAcTNZtK8Eog+ukb2K9/Sfw02AUMK6eynDNmnVcW4oKLyqdbK5nO9o12Kv2MCMD6ArWPcMBVmuJm8dw2w1tsHbV9/jvWK066XVokZgXSIcGBUwADLpU2wUSjoON+GRkcWejOzSKfeSVopAOI127DSdTDOM4SN+n/vRAKb92RE+928WOpZQTReJRzqi+0dH/w5OPnoI/X30pJk2abD8kjhBoHzui34E/Z+rBSNC2GH7gixF4ozrOlFRO+6Zl0Pa6soMRHGy6CNBhLE8+w/r2QuXWX9GyVQ7eeuMWDBlyIdatW2sXUI3INKSDXeLA++tTwKv7rn8u8G8/UkBAKKA2G3VcfUIB+OyhstQWB2PM7P+hAnQ4Qw5xNbugNnTnHo3jhjGoYKM4PPTwE6iwx8/b/Yn9nw78P7gUCID5ANNfY5z5C5ZyojpjbXsYVdN+/8EUsX9LAK35HBoax0XqGHgoLgfPPXwmXn7pWXzw/lv2zZIs1CkZq8dvcwicORgUCID5AFHd6CakhVy6fB3HpOEEcxEZMqvAOtQUSwokWO3VtDPgfru2jUml3rj0sqvx9tvvcUxdYmtUveM1uYZ6bMcG+SX4b1KaBcTyA9PIArMkDgydfW/RBJWpkxcRv5ohJfH6YCu/fEXzO+DKIjrDkL/RkSG46prj0KvbuXj/g3fx+de/4oqLT8DRfboxCH88ubhtEPF7fvtfgTnggLSdHvvrKADm/UXZneQrMHMhG3pd0aRgx762o9nv5O6DdZrCvxnCBzGembUZyamNcc5pMTh1eDY++Xwx/nrPLIbt7Yfjj+vP6CUtkJgUzxU3QgnaWlRVVdjhkxQbPSY6CsEhmtThbWoSzaUVN5LKwfrCI/G9ATAfoFoVd7LNB2zInM1M0ZqOIprncmgNlx3UkNSgtJUKsRqkp1YgtG4i4tPG4aqLR+L44WmY+esKTPjyQ/z8Y1e4wptybat42qojuCJHMO3VHgZgKEOTtBT06NYCvXt35VzddNshSbSQ+C1QB1LDUSAA5oaj5U5zMkDWDcuXa245w+wpXhsbtY8D2mcPpR/FBeNY2VrHudbB6NQ2mqtpbEFtqSSJsYxb1hzNMwdgxJBWKC3Lw9bi5QRoEiIiW5ELN6bmuxSb82ahqLQrPvhoLlfBfB6PPtofo0aORPOslnbHJi5t7KSH0pcfrmUJgPkA1tzs2bNosx3GN4ZRuSSuZDiTkWn3V2G224a94u1uvE8dDcuJuiKKzHVIiagmJy2kyM21wTztUFWmVTjeQmx0AmLj26BpMyr0IG+kOewA5KPqQoeOmtZZiyH9s3HckCRcfPnduPPON/DT5JfQf8AQG8hGQRYANUm1jykA5n0k4K4eN1yZkRfRo8dgPPLIA7j/yS8oYdM0FcTNq2XaVTZ7dd1i7Im6OsUcC0MIvc3oqm+PaS3at0NCdkeDTukhqAlqa4q5bOwqPl/E4qYQxApFpQkYnVDFNaktaxnfofxqeCzFHh/bNuzWvlFcOi465yz06f4g/v7QFxgwcCjee+8DnHnmyeTi3uVwA2Npm2z79BMA8z6R7/cfNkDmPHHcd/8/8c9/jMJVl2fgrrtWE0ycR8zph14sk0PbB7+f3+5flQ1YIYK4uE0Uo5cEr+JcZb6C7wiPYi6ephzTRnAs7F0C57f5inNrjM/mwZUjw8NKuJpGDs/Rz5OL2HHES2Dregm/Q9IFv8VOek6abe2VaJYi6KvKFxO0z6BNdh88/8+WOPX4RIwceQ+uuX4Rzj6jLyfe9+Pa0eocvBJEQDnmpd6e/gbAvKcU24P7TaOcOHESxr75EjaseAKuujGIbH0cysopinIsas/7bzAgCwwM48otIooKNsb72pwbhZVrz8WGTVrBIgTpTbagS9sZiEuooFOIAKTlbXb0UdI6hzMEcDUym6whPLWIu3oCAdkkM0wwyjJ9SH3tfBBF75DQ5vBYLnjKp6NRwnScf+Zw9O7eCd9MWoaTr5iNUUM+wO133Mi53R3tjE0naN4S2O8eBUxt7N7dgbv2mALy+Hp9zLt46IG/oGnqAgq6kbjlvGZYuHAu8xJ3U5a7I/Lu6tXSECsCZxWVULnIzyvBO+9n49b7m+F/40NQXBZDF81oTJ2diEee64Rly7laZXg5368JFjvuTYKClGcY18JaQrPTFhbAu7rlzkuij/HfxC+qKAWU0kTVnlP3WqDO/R1jdi/CNZdwhP1pf8Q3SkL79v0wdepkO2t1gjsr087fHbgS4Mz7qQ0IHwIqIyri4w+/xV9vuolv+heVST3Qu1sUpk5fzf8CX8MkceTQUIVrjcaceWl4eWwyMtODcP2lK5HZbAndR0PscbLbHYMx78bipvuyMPrh9QyCv5TB8ZuzEBTHd1AafYPHE81r6nj4UXuVzFdWkNtz3F7XBu4KTugIfYvrX23Gw3edjZio69Cv3yBMm/Yz40f3s8FsJJu9euUf8KEAZ95Ple7luMCKFSv5hmhkNOHc5RrZl9ewAcdhaxnFzppoNm6eIhD3JVkU14ODawm6asz4tTXOuKElmjb24PorNqFP3xw0aeKiFxcXcQ+pQExCCa68aDb6dg/HFz/0pYmsPTuBTTYHFmB3lARi8z07ur775wRqLlbHkMLBwbFcMqcDqkq/Q1TIDbjt2jj85cYbcPTR/bFo0UIb9FKKBdLuUyAA5t2n1V7duWTpSlx6UWMkxuVSk6wsitAofiWnQGajpDSBThYCswSkHQNpd14qrXWoqxL5hS1w92MMfjA3B+eeugHRiZsIlkwC1kVHDi7q7klBRXEjhEVH4pKRm7FyTS2WrXAh2FVKsO5bh7I75dx+j0CtMXkZpYUu1IjXIi7iLtx7awtktDseN/3f9SgrLeU17zIu258LHP0eBQJg/j3q7OM1+SOXl1eiWdM0ipT5VExF0ifbg7ioBWibbWHuPDqQEM1ec44RRffspRLn7aVgOV5evTYI331ThcfuK6Kii8qwSubNtQ1CGRlKwe9DyL1DQhiqqKoFx+9T0b+XCxU1fYgrLdauqCcHetSl5reFZeqIalq0kuLG4tPXB+Kbbyfi9TdetgkRGD/vfnsIgHn3abXLO6W0MbOGdLP8kSMiI5CUGGs/a1nVBFciwUXRu2YyNuZrjSet/CgN8N5UhbTX9HsO2YyKqgyK2MqrHMcMSUNUTC1jepFjk+GKc2s8TGGZoA6iOM7xMyWCxqlRKNwaRaWUPLG0jrZXDObNBzBJIqBkENyeiwHMwlHtf8Hop6/HX/5yiz1+FpjlWBJIu6bA3rSgXef6B7pjRwA2kwo0mV9LjWzKnUeF9RYCKY2A0ThwI1pmBaOoOBE15QUEvUxEezM+JPhkKyZAN+XF4JZnQ3H5RYXIzizlO6opCexIfJemWPbiZDRN+QVNk6fyOJFbNLmzyrB3EgIf3IekKZfyHmtLl/VPMOp0NwYNOxWXX3IBuDBDQNzeTcoeaLlqN4t1aN8mTmE8ljSuM+BVqdX41q5dhzlzfgVXzkThlirUlsyhrzJnFYWlkMtwedWgNCqocrFyXCIqqo9GQuxyVHsSCSZ7UL3bHy/vrtBQrR3VFHMWkHttKqJDBsXVhDLakLl06E666uBgD7264lmGxUhPk5gexzz2RVu920X+nRvlqVbD2WRNkRQ/AaP/eSU69xyH1159Abfedjc7IG8whIDb585JGADzzmlT74rAqwYlsU8NyjnjRwHJ5a7JhfYwZcoUMI5xvWcvPI+xqCu3IiJiA0ETa49jo6NyERvTDUuW1XBeMMVvemh5lWC7yxmlMHOxLMXYtLmapqjmuOKyRPTvo/ML2Gmk8dqOzU0S6S2rlo4lNDlxrF1T01Daan3DviSWIziKy/UsR6dWs/HCczfSS+xvGDZsOLr36OMDtOpB9HfWwb689Uh5NgDmndSkGoyZBKBG4+QIGhdzrR9w0S5y4Dn44YcftLpAvZzCwsKRkhyLtKZtUFmbirz8eVwHOZZulR7mG0IgByM1cS1mzkknmBezk9Djuwdk3eVhHiEhjCPGJVonTW3C5WErMOXrMiSnbEF1RRwb+s5EZj1Nry8uh5PLJbwjIsoRHxvK/MTG916jzocbKGnsTseS2ndx1vFn46NjBuCSy2/FuE9eR3aLVvXqwdnBqo7+6HbpAJgdTdCIcjol8DoBLE+u9evXY+7cufb25Zdf2pzY8TgdM+JgFtnTEjSbNxUgJjYZH31Yh1uubEGs5vD2KDZWD7XbFejRNRQffJGEsuJKREW5KGJSBOf4d1fJU+flTKHhdZj8UxFGXR6Nd17JQ58eBVy0XUowTqrYyfhXptuIqHBs3bIWL719BgZSmT2s/ySCWWPpCD538JVNsmu7PVlISZyEf92bim7H1uLmm2/D0GGDkJ7eHEcd1c0O/h4R4Z2kIXqZoY+OVW9/RGD/4cGsRqDNiM/+49+cnBzMnj0bM2fOxFtvvcUJ9+KG25PAKxALiIWFhVi9erXvYji9H5cuXQLE9qeTSCtYtTMIVq4aQa5vUUTOzqSoHdsKmwu6o2WLNairSaIA/PvjZj7KsnJtqIhKzJsXg0FntcKLT5XjzJNX8HxrivFaH0wcdmedgp0BJYUa3PdQHl4bHQZ3n1COr+voxKG8fcU/iAcS+7kAuTsSXTuyA53QH12HbsSvs+9HdGwqw/7m4U9/uoxL6XTXEi3IzMy0V650it2Ga+uc8/xB/Kj9/uo/JJj9AeysbK6qxwACy20AT548GR9+6F3RwVkTqampDMgXjUpO/5PCSyB2JnUMAl01x6KNU5OR1boRFi7KwbEDk9mwJEaKkwRTUbUZrbMqsWJNJmNUzyb8UpmNzFQ7RpSe07UwMqRlHGt3HRiP++8GLhnFMD2uVM6E0lKt4qw7ft57ntepaNtS3JP31SAiXD7XagYSy+0XcH8oJAUCDCGHboQuHRfj63dTMeKsNhh5TmN6iC3HU0895Svk+eefT1fQfjawW7duDdWPU6r6owD7DwNmU6GGAxsAO8e/XGQeEyZMsMfAvpay7YALdCE8PNzmzAJvXl6e/y2+/xLXDaASEhORzLjTOTmzeC6Gm0Aj26+L/iIcNyctxk/Tk3Dc4CQ2wFqel1bXvmUHPwRyWA3zAi77S2MMGgBcecEShHM12MoyrSS5847A+06JoNQFsJPZuEn+1tFonCIbszTFh4oSbPtneyd6sGyMKzakfw6efKQlbrprvR137Kepi+glpo4IjBj6tr3p+JhjjqHCbBhF8aPQsWNHWxx3SlvOdqA2cCSJ40csmH9PgSWOKvFZyisBmKvS29xYjcEkNQCurGeLaMXF1BhTY+0FqfcOL/fdOScTIIXpEDaYiHAXO4EN5MZN2Xi0DrO4syZZVKNdqy0YN6EtXSvT0KplEaoqogiu345b5TcRHua2XUCffikBU6aGYv7PVWiSvo7zhVP4zM4UXuaLJA1wfnNEMIpLwjFl+mxe6I60xgkMlEDfbMrYmkF1aHFndomko8cTxk7MjdNPqMS/Xg6ne6oHQwb3w+effwFxYs0Xl0QliUudsTalDh064MQTT0SvXr0YfLALl6htBq1yapLuF7iVjoRx9hEFZqPAEtDU6zpFra1bt3LBtjW20mrq1Kl4+eWXTZ369hKdufC83Sh0v2Y87Sw5gb2je8z10tISO0726SPO4m0rueVy807El1a7cWoVOrSqxLRZLdGq1SJea8uNvo0OUVn2ZJdLqzSG4qPPw/HEsxX4+M1KdOpYy4XaaZ/meHfn3JxZ2cnrLYbgAtq+s/DTjEw0bydw08GE0UEsK5x5/LYTMU8f3L086zQXuxDXXhCOux/Mw5+vOgVpTZrZnbDqOTIy0jdu1tBHCstFixbZmyn7xRdfjIEDB9pcOzs7G0lJ1FGwnZhkuLbOOc+b64f6/rAHs//41ylSSRRetmwZuBg1Jk6caHNg/wrhqvN2b11TUwNxYGmsd5a08p48urRippReApwiUEZFidt67GU2PZ76gIiJiSVgk+wJFWp0vuvU2HrqXOS2NejVZTVe+G8qThtBQZzSb02ttNVeWVtit2ZEBQeHMshAM1x+XShuuX4LjhlEGzLDh4hrSUzeVZK2OiyslnOJG2PWnDBMmxGJx+53c2lZzeTS02rU9cu+qzwP1HVRQp2jy+WmuC1vtZY0Da7jDKte+N8n62nyS7ElJ7OSqYZDGjerrsS11TEr/fe//7U3HZ9wwgkYOnQoevbsyaAI7Rg5VHZ5uZZ60+EI7MMSzP4ANr2oKkDcdMGCBbb4/O233+Knn34y9ePbSwMts4bEbWmnTWX7bnAcqILF6QVk3S+tdWSEd+ys2+R2vaVU7pHeJJCXlZVy/OqiM0YNFi9ZRt+ONC5gLjG9gnnRaYQrWHgbqJw3gtC6xUakJjfF/CXHU5EzHp7qDmxYZbwmgEnCqERlVTomTNbKEnk470wLcYk8VxZF32tpv73A95bgt796X3CQxPcl+HX+ADz5qjqfVewQXIiLr6a3mExZhyaQ7a+xP49KRSoNW7eo4bg4AdNnLsGggX0J2AgbyOrEpf9Q0qohRqeh+pO0FRUlH/RqrvPFzovpq6++sjcdSys+YsQIzqPug86dO9viuDoCk5ztTW3tUB1nHxZgVq8sgmpvRCAD4KqqKpoq1tm2X4nPH330kf3fVITZq/dWhav3lhhmxGBz3X+vRiDAm95eDSUjM5tcIBmzZ83EoEGDUesJxdSfl6F3n0wOg9eysRRh7gKZrkJtIMcQMyedchLee78AD9/O97uWcXYQF2bzSXZSPIUgIb4WpxxXhbc/iUaX9hTCoysIXkoBLn0zo3TQK2prSSaef6cW/3fNerRvE0czl4cQFkv9fSCL7UqEDo9Yy+mO3fHUSy5M/Wkr3no5AZ3bF5FTy7MtlO/YNXf3p9GB/K9OT9JFQnwZzjyhEcfFuQR3GUXtpli3dpXdLnZUHnXwW7ZssTddj42NtS0Rak/5+fl2O5DpUZtSfHw845ONRP/+/W3tuMRxPWPam9qN2oIZyh1KwD5kwWwALAKLkE4RSNxU7pOqAHHeN954Q7fVS+Kk6pGVJGqp4naVVDF6r8Zf4sICspRgyY1iUFG+iWPaVIrk4XZQjuQkia0WwvrmoNpqhtTsszHuw5/Ys9egdOtCJJPTpmd0I5BrcPaZYRh4dB4bnx1Nz1cMaWvNtMOMtGmYufB4/Dz7Rhw34GkqzVqwDCF8B+NwuSsxe84aLJ7VCY/f0RlRkZ9SFO9Aukgi8PUMvnydBx52OBGRWxnDug3e/rgp/vvWGlxy3noMG5CGsEgPlWdyjjm0gazvkU5AdRMaWkrnmGj0G3ohNqyfhj69e9hgFgh3p45LOU9am5I6awNUDbHEGLR/6aWX7E33nHbaaRg+nO6k5N5SthmmoGtKh5I4fkiB2QlggdcJYIlHS5cutZ03vvvuO3zxxRdeajp+BUJVjnpOAdiIWo5bdnpogCxtp55t1aoVtaHt2VCWoZbB3a3wZvh2ghRiXm3o7PzWeOiqYpx3eg/ExVJhErIKZx8bjbyS0/H+Rz9ixrT1yCkqxL135OKy8+OQnFROuzMDAeyIA6qRumKRHFeOe/+1DgV5A3DGifPoIMHOiLOtLCsdJeUtcMIZaejaWVMC9Rny1vI2yp19lOgpoFp1oZg5Oxj3P7IEUSmRuP5PLThG3MAph1w6Zkfl2VmGB/W8VwqRFaBFcyoNW4bglVdWoH+ot8PesqVoj0sn8GpTktQmhZj26sgN4D/99FNoUzr66KNx/PHHM5poX8Ysa09vNO8KHfZF/hhx3EiP5vyB2h8SYDYitBPAOif/Z41/p02bhm+++YYB36b+hi4Cr3pYjU/3FMDOzNTwlZcqsSkrSVx92YocLFlkYdjgYrRvl4YOf+5GF8M5DHCnyn8Zy3NG4tupfTl23YgY18c08TRFSNRRXI4lCTdflYu+PfM5Fg6yQ9XWuncCZFvpFEzx28KXX0jU24DpP3XFzddl4NzTYzlGJDdnyNtFy0Lw1SffAA9QGRbeHG7aWF2arLzTpKGJi7Qp4GoTrbiUjMAQhSf/1hgd2rJT4l85rnhNWjvNZDcvODn7rsR+Z5bmOeczOqdtRxKHFqePpNSyDF3bJfOebLRokYnVazbbCjEpvjQu3pskBqDhl5LAaNqVdCRGp6J2qE0pKysLJ510EgYPHmyPs/Vf7dApjuu+AymGH1QwC0D6WEMAEU7ukJo6OGnSJHzwwQe2ckNEcSaJVOpBVXEShU0v6rxnd48NR46NjWM+JeydU3DiCcdjQ84yBsKLxHWXBWNwX3pnEajxnKoYTZG1quYiFBR5MHPeRnRsFYzuHT/lyg4ZbAD0uQ55ilEvW3IiBSN8kLqKX+2mQ4a3gdYvlVdTrdUWQ5CbJ++vzejQGsjZtA7/Hm3h3y9n4txTOFUxzYUJU0px8omaqrie9wnEBgj189z+T84ndCLheHtTfih++Fka3fW0a9cxcIHC7Grs7rWxbn/GeaT8BTLzHifgzH3mmsuWFkRLryJN+fo/r2dMfpIuNMSI4v0CraKEaq9n2JraXBEAAEAASURBVFPSdOfhYvSK671dv8CrVOSJZhERHjRLo+cM2jCU8ArqFzQ7jGoLArIhkhiJ2pRpV5L4pEDTeYnh2q9ZswajR4+2N73z3HPPxbHHHmuL423btrXH5Tpv2riO93c6aGA2H6n9kiVL8P7779tTByVK7yhJS2xEIBG0oZLerx5dQNYEhR7dO2DtaoqjCe2pTFvNSBwx+GX+WWjcpDWCrSLMm/0S+gxojKM6J6Ffz5Xo22sJzUmNWWnUftrrLDdjk6xhhYdQ820qc+el1bi5utqFWfNTeNN0REY1wtlnn0pOs54zsb6lyG6e7cRxLl0wg/jtXJUxCEm8sDOPLwElgoAQOBiEvjoRkxd70Lv/CCqQKJrXkcOjHbdKbvVBKrCQJPwGaXOldafGnb9BfJeASrzaSffUUbEWrBPWUirrCFCedLsVgqiR/X5Ns9zOYVkmOstIqy47ejgtAgharBdxn83MjG19tU3GsPA0fh6DN9TIAuB9qQCvheCtulxKSqfjrr9l45GHbqdpqS22FCko4f7RyEvs1qYkLbeArbGyJEG1H5k31X61mfTQQw/h2muvtSU809bNtf21P2hgNh8koghM8q1VD3jXXXfVqxQ50osDy+RkxCA9aypYhNqXZJRd2S3aYEC/o7B4WR5C2ZD+fHYzXHnuSpZlE+LjLIb+qSQQauC6vAlF0+cIYDc5RBor1SJoNXvHcDmBQGXylss0fv8yekGjMW0V3xmPv9y2AW1aJiI+qRPeGDMWrVtlUflyig2sebM+w5oNNeTwbPN2oxf3slHgn+22/6E0Wa1iwyOYXPE0v6UzakIwhvbPpAJvM90jdZvyUHQPgTfYprkkJDtOmEt5r+alBL7Ga6O16hrZQPVGEvUwf8YVC12mBS/otHIs51R7SA+a6pLY6D3imnxeq3ZYDr/1YGn9CeDgdKyhBFblvpw+4hGYO+cduMIy2Blw+OLqgp49+qOi5GM0SZmNjIyWpK9Xe2x/MzsbMP53clIBubJXFHdredz9mIz0pldoOKc2q8kd2dnZtl++07no/vvvt23XTZs2tYGvZ0xb1fH+TAcNzKa3ktlA2mhpjaVckPZQoJWm+vXXX7cdPgwB5GsrUVyulf6zl8w9e7o3CpCYyEp88vUSnDI0Dnf/Xx5aZd/HToZc1m7oy7ivYbNna7U5SzgbP8PNV7Mxqd07kq2h5kkvL3Fc8B16OZ/Ex/CoSiq7WuC/H2bw6k/oN2CEze2sukk0r0mcDuK6TANxzIgL8OprH2PlisUsh8ogsdLvxXb+eqvyX8tZWiczLFELSj3r8NnXOUhK3YoKRsEMIncMYX/DqLzMQvcqIgnDG7FD1TKzpfTx3rSOUTFxDl0kt7CDTWBnFsLhxWoCKIcgLiZ4U+kSGoyCLedg/uIg5G3JokNLMGd+pSMybB3yN7yJfn0v5vpUa9lZudiY1czcqKxYjsjoP2HqzDxMX3Aulq9cjzuvj0fH9knMu4oKwlK4rfbIK4rHo890wuUXXI4TE95jx7mQAEpiPuycOGNMq1O6a75mFJISLvaegMJ8dR76lh3RhJf2IjkBrHxlHcnIyLAZjsDrnB1377332p5lcheVqL+GIviTTz6Jv/71r5DIbdr6XhRjjx45aGA2pdSHykf6s88+s8XoM8880x579O7d294L7Jp+KGAbW6CeldeOxKp9AbaLi4Or12/VMp2a46bIonb4vlvXo03rKnhqs3lNAfGqGfxOACIL8sixn+NVitMhPO+iG6UXVDxnczHew0XZYPtfC+hsXM4GZrNpApHeXGydVO7F4qWxCfh+SiH69ErCex98xQZf7FPEyXtNW5tWHMeffDIyM9iIacOuq36K7+/Od8vcxndvS3qV5jGHhKQhv6AI439gJKH8SMxf5kJRXhGefXYxMpI34qJzG9ErrYLfp+/Q7K7mWDS/DN9PZiijda05Zo/ArMWbkLe6Diec0oxB8suR2bQlOrZpweVl8rF+QzHW5LZiByMxOp/a3aVcbiYRtZVcsYLOMes2JmDai6UcpqTg8mt6IpR0ymf4pE/ejsHgYYU4cWgdLjl9Gtq3zuXMsQ8QGpZNkqqjYS8TNIE0eA8fPN+eHZsWuNtMEtIzR/TnHd6k4yT0PbqFvZgA+xsmXWs4MBsAS2MtsVoAXbVqlV5kp3vuuccGsAAuBqPh4bhx4/DMM8+YW3DHHXf4jg/EQRB7E0sujD///LMt6kqEcJqE9lchBESJdXKQv/766+2phlL3K3qHSaeffjpOZiOWk7yUXgK2JkYoLI/Ka5KALYLKFGWUFuba7+3lMqmxbdcObsxdNARj/uPCxSMnsk0kMD+Ni2qxZWsK12kqpojbnJwtgVLDRgImjO6cMeQYddSsSoEnrjOL48A42oAb89lNbFpl7JwU1kcmNomxHrjppongRpQqGKx+dgSuv5elq6xgo0zCkqXr+H0FtmgmUU5Jz6o+YjjM7NTlaCzfHIfn7l6PUWcXoLpSY1ONY00Dtx/Z9kNTGTsmj6eEzLcdge3BslXNMPHnWjz4mLdB3nKdhwuhR1JTuwr5Wwfiva9rsHV9ATJbxKBd68YMXlCA9TlrSM9iDB0yCCUVYZj4vUTuak5eSCWwK9Caq2H07pmGrIxglruKIvdSfnM8wRdFpVQE6dYMM2ctJ/hzyH1T0K5tNhonr6FysI6SAGnikYQjDbWz7IQlv8k7VTSH1zK5ecVpc1doCKWBwjKcMCqdJsQ2+GXG9wwzXJ925t493WtMrBlyBsBmrKx8NA7WcFDX1d40VVaKWieAxcHlYSgmI99wten9wZkNThWmSg4ukgoOCc6sgilp7Gz2GidrNpM2JYnfp556qj0ekdZQYrZ8rt99911MnDjRvkc/bdq0sQEgB4JdieLeRlSH9blAx87V+PmXOERHDSO+NmBTQQrW5pRh/sIKTPpJrW0twpqG4aiWWZg+eQUi0qO4MqKLIKdJLKcUzdr0RifOW3bRvfKHKRVozkkAqQwT1DQtmRymlg4NhdiwsZAVncopjxVIbByOY/qFoLBgE6ZOk0nKC16nRtYAtYxDQjmubK2KwsIlHjqwNGYnUsTx2878shlwweJqGVyqRu6f6U1CGbu7EH17BHPRtmh8O9GFZ+kLvnyhwOnCqPOaYEiPQiyKXGNP2vjm619oTmNwgJo6ZGZlYNznhTjjtGh6jXkYBDCfirUamoMq0bL1yejcgc9Y0xlIgMH1Q8lhbe5YS80/vzFhCUEvGrXgmJhSjJVL8EZyCya3N1Mu/TmqV/SXZxyQxa1+sqUP+qpvLWkNKyyNHmxllLxl+/e6ada/e/f+CYDyzRaAxWHXrl3re/CBBx6wObAAbLvnktm89957ePHFF3336EBtV21WTiUHghnWe/m2P4cEmI0W0jRk9WRSTKn3E5FERKfxXmA+66yzbHe7YcOG2eYCcWwR2Qnsli1b2sCWw4k0j/5J74mICOMsIq50mFWOGbOAT76PRf4qNQ5xsDq0JUfp2zcW69YsQiojaqYlhXN9po2cSzuXI+g42+mgjNrZlk0GchphET77YjJ9h/vb46uysnKOC+khVl3Dhh2H7Kzm1A2kcgyai6LCfHLiWsyZu4CcSJxHrp3eTs2UU/SQ9CL6zP31O+SWd8C0ea2xZEUVunebzyCA7djrV/N5P9a2LQNvZxVOOupEqD3Zo13rairaKnHOaWH4eboHX07oifmrPOSksdSkN6H32jw2Ronedbb9tFXrtnjs3g1cW3kTyitc+HFqNj74MgIJUWtwW8c1lDa2kCtHc9vIcsZSIpGCKIHrSWkoIVOVNur3qwXa0G1lNUBWufzLrv/+53SflH+MsOIqZl268dUPrTF32RLkLpuOzVvCSCe+eZtE473793/FgQU8AVgcVlNileQ0pLGuHESkxFIbFIeVNCjPMGeSLVo6F4FXbUlJZVDncDDSIQFm04gNQURAEUUNQb2diCWzlKYo6h5NoNCmpMnosvHJ3U7HMvDLTv3xxx/X8xLLzs62QaHAAk5gV1Vp3aMgTo2cZ+fXuVMbtOXMnJ9+XouBA/qxUddStC7ExtwSbMhdwPsW2PepaVrYSnGWvI1UnDRpsu/89Gk/YuYMqpr4HRVV5EhMCiGkSo6IiKJtvIzg8QJX3yj76c6SoUnOxiB0aLeFK1asxPNN0riUywBkZM1FbYVoos6Hvto0HVFI/U1WfAWTzFVqbPrDqZcpBTjzpGoM6kuFTc5GLFneBO+PC8Xn8/tywgEQR239t9+tRKf2CdQ4x2H06wl4/Cngr7eW4Ym/r6Z/eBkVeN/wteGM2d0cy1f1wCRKJJ06puHYAb/wOyvIwdW8ZBtmqX5bLBVqt5Kt+Wc+4ZyuWVvTEm+8F4qbbv8Kxw1vjm++U95a5H3XLxCAk5OTbUYhd2CjhdYQ7s4777TFVSliJVoLwAp68Morr/jKqDYoAKv9qJMVkNV21V6dyUhUpu6c1/bn8SEFZv8PFTHEnbSJQCKiAbZ3CiLqTUYfNGiQ7SSvKBMKKyMzgZRrArYC8JkkpYWStOaa9yoHBi+oLMxfsMy+FsJx2eSfptjH3h+N47TRCUSTE2zuIdsqm6tbE0AUfldj8Dquvewd8zoeZqcgblfLa14beUgIFVkcR++qwnVd36xGs2hJLiflZ2P+8ljc/68iXHNpdzqBlHOczjJT6VZba0DtfHP9Y4FKDb+2luN5arE3F7bB3CURFIcr8cjdOTjn1BA8OZo+5v1uxzHDT8IrL4/m0rBNccP1HfDLxLU4qtN0BEdSIikO53TRE/DjFDfe+DgFGc0YeK/1YnpmLeOssvUEcjy7lX1rXuoEVFZXKPUrDNiwem1TfDAuCXfcsxjXXnMqcjfLY2smOSyjn+4g8ovqVB2o3DQl6UkDLa9CpWx27ldeeaUNYInYAqa8DTXP/c0337Tv0Y+8utTWjLOIdDKqi13Vmy+DA3iwb9RuoIIaMfv3CKRrIqI2JXFgAUu9pSpL13/88Ud703Vpwy+55BJ7Irpc7jT2Ecf+/PPP7ZlVukdJopSS8pMUoAYkLqZ5x8rf/seTyl+gN2W1L9iA9h4JmMSxnUzPrD/bv0nipve6fhV4b3eTvlmNSg1ua3ElpZBEvPrGQrw6phR33XEq+nRrgR6dGNC+SR7fwWFJLeVkls35Pue7JPba30HnjrYtFqKkOBlvvM85wnltce5JoTj37BQ8Pvp/OHZIN3Tr2gXp2Ym4YmQ+unb5gVM5O2Hqj2EYPzEVS3JaollyEW65YiX69Z6H2IRlWLuqBs+POQPHDcpBK07t1HzrnSUBVWWUBl5hlERDu1PlA5RX2InR7u2qYvnCMG58UzzwtIXliybRsScLP06eTvDNt7M2QNaz2tQm5MghmmlGnZRRSjJtXnbZZbYILQ4tDiyFq7ivE8BqT+LiahNiJJLmRK/tdWlnt9Mf0252esN+unDQwSwiCURKIqCSKkNE/D3i6Tm7QfJ+KbvEvUwvrOdnzJhhb8pPE9CvuOIKewz42GOP4e6777aBLVOCpkyapArWs+qFJTp5Abz7lWjy2XG5vWKuuWdP92ZsppUytI0YMRyNkgjqN6fikRcao2/nNFx8VhhOHF7MdZmpWaYGuJaRSZxeW9vfKaCIxpu4d9MmXExF1nJy2Xi8+FYrfD0vEjV5yzhMaIvmzVvjw2c/xPMZrdGx3TBqqN3455MhtH/X4P5b59AklYsY2p+L85vh+Ze64uExHGPf6EZ6U4m+9bXQ5v3eDjOY9VXOMgYT8PHsODcyllksxRwq5WSX5tChvLwOi+ayo3kvCc+/vBmDByVjyJWjyD1fs7NSfaujE4BV/xKBpWMR9zUA79q1Ky688EJbC60xstx/xYEluTmDNeqa2p+Aa7iwXrLjujRfoo5oeweis/LpN8+Y9rn97v17dNBNUyK8wrmYuE36XKM5lEgjwqjC9oQw6hlVuUazaJQbylvT2GQK0xhb71HFqXLFseULbpLGUWosKoPebcphKsrcd6D3anBG0aNOKjMzg8qlUk4JXYfFOU3pKw7cdV0pQV3ChlXCIUCYPXYVgIyiTBMwwiOXY9nKs2kiC8XwAZ8jLZMiek0ElXIMpj8jAw88vgm5ZZ3QvjlD8NKlcmtZGM10FVizYibuuzMNN14dhoTUPLpcpuKX2dH4811NcHS3MNx4VSUnhyyhCY5AreK8a8U6Y4M3SeXQEEYrcaxY3RGfjo/Hemr527ZqjLYt11Lbn0aAe7BqdS6Vc2H44ZdkrF2yEMOG0vTiirPnrcucqfrREEl6FAFY50waMGAAzjnnHLsTNxxYdfzJJ5/U67wlXoueUpCqs9zdNmY6D9POBGB1AoYpqRwqg7h9VlaW3XacNDDl3Je9MKE27jRNHTQwCxTmAyUGaWyrucnPPvtsPZOSKkNE1nhZ9+sjxLV3N+kZgVJhZLR3eu5I233jjTfaorjEbQFbpgkB+6233vK9QuMtiWzq1ZWfyrMrycH38H44UCWKDs4kTXl60wQ6YMRj4sRaXHlZNC48uw4d2uQiMb6YY07RzjshQqahiPAqxutugmdebc7plVH408hFnE21lPG4m3AMUIG8glh892Nb3PzwFvTpko64GHpBhbrx+phV9pKxp53ADtZqRG8uTkX8uAsuPGkBLj53Ibl0BAo3JVPr3Zh+7UEYeVoRx/QlfLdXpxAaWk29QRy++b4Mf/93K+QUcA3IDev4KfLZTsNZI1tQ4VaD78evQXj8ZnRpHUK6V9DbLohOGyvtT5YYrO9XfZkkfYkcjjS8UpuRWdIA2Exh1L22PZbSlzj3ngDYANfsJQU4OxDlPWrUKDsckTpZtS11MvsrHVJg3tlHisiqBDmFvPHGG/W8bqSIUENWj+wE9p5wS/XE0lhqL42mSQLzzTffbEdylNePGoMmgEhxNnbsWHObvZf5wmjZDbB3t1evl9E+/hEt1NGIUxtunZQYA2nkC0sisWBxKP2xa3DOycEMEVSLrMxCfjfjgLEfcJNja6J/TU0Bl7cZirc+zeL6TusYAXMeWmZFcKxKTzZEYsq0YFx6/Va6gx7N6Z91pEsxfpzJSRGcqZSRHYKc1XEY+2IdLhi5ger6YCxd6Mat97emoiyMnclaBvpXpBSJ9bSPV9Rh3uJmeO2tILz8hhsD+ochb/MSgrKcIMuioikWP0z6BXEcbfXo18u2k69bt4FtYDXB67a5sRPACvWjWF4GwJKipBeR78H48eN91JXCU/UtpqG2s7vtRcAVA1Bb0yYpwIQdMplfcMEFdhkUAbR58+b7FcDmndofsmA2QDBEM4UW4aSg0DxmVZAWZjNJRJaN0IwlxSnNONfcs6u9ek4jasnWaJLyfuSRR3zAVgMS8LWe1Kuvvmpus/e6V41DjUXfIVCZ76l3437+I9pFRkawsQqEVPZ0aMWZTLXEXCy21qYjl5r7e67k2s2DImln1jxrApIzvepoPgoNL6OYmIB3P0nF/yZwgsewzRg+aDmBSJNa4hb8Oi0Wd/2jLZatrkA4x7Y1NW4u5HY0Isl43vx0LZ76qwcDjt6EzflxOOmaJPzzxi249bp1CAqjLsSdzqEKMG9RMt58vxovvs73Ukl35Z/6cIWK+fhlltdhRmWOiorhuFccmgu8VlajtEROLfWTQufKK1DDJHlayStQna4kKed6X9nUVquzE/eUVLe7ANYzqkuT1EakCHOmyy+/3I4Z1qNHD9ufwHm/qXv/tux8viGOD1kwOz9OoJQ4K6AKKCap0uSnPH36dFtxodUmnEncUs8a5dmegkpitDi2OJ0ah0mqTLnxqeIkoqlsAr6CJThtkOZ+NQblpcazJ2KceX5f96EMWCBNvGm8R/fpxYgYqeQsnDNdEIqfJ23AUd3KcNsN6eTatUhptIqvFOeR9r6c5p/mePXtJDz8+FY8/lACzjo5DM2a5OLxZ37F3Q/345CkxGdrl8NOZmYzTJ6xESsXScpZjRadz8Jb/65Ar27rufJlFqbOyGF44Ehy4nJe34xzzu5NE50bM2bO5brVG21a6ZtV11VVCpj42yGUwCsQOwE8b94821/f6dYr0Vb0z83N3SO3XrUZ1bNoJjAqD9WzM2k6o/wYNItPnN7ZNvWMJDlxbud55/MNfXxIg9kUTmKQwCOXuquuusoee4h7iuAmiXAClICt8EFOG7LuEZiURFjlK5FY+91Nel7KMQFbzgPO9PDDD9thYwRs9fgrVqywlXf+7n16RmKacXSRGWRPyuB8594cm7GdcWjQ96SmaGXKFHg4ceGHH2px7IhYnH5sLk44Jo+BGORpptlBEuE4q2lWazz2QlvMXROBy0+xsGbtJrz+5gIqoUppn+bMq5BwSgHltBB0oQTDpWkX/4oNa+ej3+BR9tzmZLpyJqUMwt1/n8DiV+GUkzjjKDqBmuZ8X8RUcVbVpSmj8zvPPvtsm/t16tTJ5sCSjgTg1157rZ5fvhSaBsBOEdyZ146O1TYMgFUvYgTanOmmm26yI4lIIy4A6z0mCcBSeqmdakwuXczjjz9utxtdE/33Z1KZVR6nAkzcRpZViz0cOybL4gfZ+wP9Y97LHtGiN45dJpVLG8eyFpVS1po1ayxWfL2iEVAWK9kil7TYAOo9p2f5wRYrzeJ42yL3tv+bfHdnTwnBatGihcUQrL/Jm6K4xXhkFpVmFhV4FrWl1nXXXfeb+8x7VAYqTva4DOb5vdnr+xs1SvpNmdq3DrPOPusM6+hBo6zQ1IHWx2MHWWXru1p1hWmWpyDLskrbWPnLYb075kar16BL+HyQ1bVLW6t58yxfXuyofMcqW7t2HSzGx7KOPe54nm9uX7v+uiusUSPPtk45hT3CtvqMiAj3HZtz2lMDbdFpw2InbbGztji8sthJWhwT17uf0wr5rnZ2nTqf1zHF23r3Oq9THLafUR3o2HlNx7RNW7fffrvd1mgBsQjKem2NALI47rboz2A9+OCDFnUrvjz0fZQI7Pt13/5OBi/CrcouHB80bTYLUC+ZnsZwZo1Z5YMt7qve26RbbrnFDl5u1hFyjlck1hLwtn35+++/x5gxY8xjvr16Y3Fc9Z7iljviCuZmjXtYKeav/ZwUZeK24hLOpDmtMkdo0rry1XQ5leENKvHEwf2TnBpUBn2vP0fwv7ch/qsX5+fY0kpoaBjF0BK0bdOajiCc/O8Ox8pcF0aeGE3z0iYqwBbShh2CmPhKhvTNw7hvzsP1d69Dj86pKC/biu8m/GAXSfQRhzMKQSOadunSkbO6ZCqiD3ejDEyfNoPHO5aMZAM2cbSkpRa3E22fe+45W5llvl0z48TtZMr0H8P615N5Rntnfe+I1hLNFVpX2nDNzpME40yqGynONMST7kb2aacSTGXXzClp0hVGSFJkgDNvkwicnJnjVLvXYaRMi4Su1xOS4NYNN9xgc0MqpywCuV5nKA6u3p0O8tY111xj56NnnJt6Z9oI7R55Rz21uVe9vTbzX3txJZWLYyiLYnm9awS2Rd9xm2NzDrbFudoWOyGLDafefSY/UwYOJXZ43dzXkPvw8O2ciStDWJdcfK7VpfsxfH9va/hxJ1sP3zvM+n7cUVb5hmRr0dTW1qCB4o5trfZtU3xl9KcJwebjllFRsbzPDv3pu9+Un34FFjs5i449FkFiUf9hc2B/6YcdtsX1ouw6Ms+avf+7zXntVR/sGOyyqEzOazpWnvfdd5/Fztaigqxeu9EftR36bdvXOW+53vOqI5VTkgE7MktlVJ6crhvgzCSEnZycmSIMHn30Udvor9lQJqmXFeeTckzc2mkzlr1Yy42odxX31L0mKW85jkgbLpdPzX5RL+1MGpPLdqjeX5zU6QDgvI+NyP7LOvedVnn0Tj0v7bskBJM0A0e9t8otpZzGWCqDbNlORZu5X9xJecvMsr85tr6lCSdtbNyYa7++dcs4aqjLkNioD4oquXRqbiU6Ji2hTboS1bVN+F019LbbRJ927+qLpsyimbizpCTVizGTmevaX3rppRgyZIg9v1dOFjJBqj4kgRl/ad2nMbKSJkFI6elMKq+T7uaazkva0iaaqQz+98l8dcYZZ9i+2Ir+Ib8DZ9JzKpP8DMRp5ddvksbLul+Sh7i0UzJQeWVK1dz7F154IcCZSXjfWN3JmWl8t3s99a6ssHo9pMa/VH5YVE5YWVnbx3GsAIuKC5tj0y/Xl6/eoaRxEAFlUXFmMd6YzV31jHPTu9Sz04PMYgOpd83/Pv9yiWNzTvX/t3cmYHIVVd+v7slkJgtkIyQsgSSABF4Ji0T2HSICLsiioAICCogifIDKK6ACIouCuILg8rKorMoiCAiyCQgIsoMQEkIgCWQjy6zdfb//r7rPTfWdJTNJZqZ7uPU8t+/tu9Ry6vzrnDp1qiqS5dX31cP3sQVo+CQS4H0fW4aTSKtRRJpu124acn5Qf3eUlwBhPKvr2vI+TIucaVjL56G2drA/77zD5tH2UzYu5SsTTZ06NfrolCnKS1GiUyf0MaGRGs528y8DZqSZR74PrIYrklNQJKcg378Ly4DWhbSjrOF9ri2P7d2H1qQvb7A23/G+rO2RjFI+Xbn8Fhmg9Asf0LcVgL3dQ+Ati4OywVtaXCBSQ92mj035SUNg9udKkMwVbQAzMFuF2hn1JlSLuQZAmi1VxihyKIjUv/HVJ2nRBtg80CorXiVG7bL0kowDsNUyRxjDLA/Jd7iffGYNDvHCHOE3NCTa7yh68cUXIzk6+MZFPuPegBS+Z9cwLeAOy23PVuUc5lnDWj6PGM0szjGjM9EouRvbf4CjIbw2XQueA67jjz/eA1hLPfluhqRcdMkll7QBKt0TAAxtLW47h3mye5wBEMYr0k/S097TMFb0ox/9KNL61pFmxZWgWzwBXkngCF4goE5rAk6cPuUmX6jOGCstThoZ0rU8cLY8VhKYl4/3KIfVFkRQn2XUOgwUFlhGhfFHVG1UbAJqNO+rDr2BgntiDr8rAR5fbEFy3HHH+aEmvsWD6IEHHuA1P1XSX+gHNRh1ElUcVR1jB4F4LVi+eIchNIIY3S/uhhcbeUW95CAwBIKx7/DDD/fGGLoEGFtQ92w8Pdx6hfFw0mUopj2V1kfaxZ8w30ztJO/QbOBAhvUKcgRh8sBwdROGePUVFTMcApLdwI8Bs5yOrP7eSwtHDVxzKVcYBBSfb9Rq3HctGL0sL3bmOXWECk9Xhu4L6dMFCQPGJ7pY5AGDFn7bFqCTxYcRkBCmZ/fwJGMzuTBf9q697z+u4J+qBXNYSSHRuW+MTyUkK4L/VoFUsoEdpsESyYFVGi8fLNKM4/3jH//wCw6STrjcL8CmwaAvBXBJm2DMw7Wlzzv0xwgwJ9ZZgD1D1ndWcuQg4FJKw4KfL2Ot9NFY0JB+ti3IEPoEk1/Sg8k76uf7iLv4Q1zQgk0BaLSId+HC+f6wKFjXSmq3738CYBoq8kkjyGiD0YH3cbZhxKAzAIf04hvqB/sDAKbBJA/hiAbvHHbYYW539cHZuXGCvL2gpQXS5wjr2p5xDtOz+jELNWW355w5wvKE8VTadVWCGWMFBgkIT0UzFGSEh8AGVgNqR0QPK5vveZ8z8Uqt9QfMgvEGYLM1CaCyxc5DYGPUMeZDchkDEJ8FYxyAb8YvvsEggzQB2FJJ/cE3J510kpfYGFc4WHgRgyBSz1wXAZEFhlVID8NRd4ENzUzrgKYMEYVBXQW/Fhb7LAEeGiTSZt8vVukIAwCmjjBisU6bBSs//0O68J/0oQFGLBo+8sARBuYiM4REXsaPH+/zYM8NwNSdHfass7Plw3iG/3YPbQ7HFpyIDOydxdXXz6oKzEZkJIFJJyoBNZnKpPWGEey97hA3BDbfhcAGqDAoxxe/+EU/H5rxbw7z1QZAZn0FFICURgaGtEYlzJcxNpLHJDblQuohlbB6s+qjrfzItE0mFrCwIQfWe1RC5m3booe4MVowmpA++WgvQDuYFQkMs5pGY++yDhbg4YxFlzJBd8bPk8vIMtHAJHBXAQxY1Pf1YKGBCxtHy4OGFb3HHbQHwOTBwsoC2L4Pz1Y30IJGhTONsvEZdUOwRjr8tlKuqwrMtLgQE6ZhhgoMD1BsLSeYg/5kWOErS2hrqfk+BDbqHMNfHDg8oBYjLQEVTgMEmNIYE2DDCEhK7iGxCMY8Bmru0RAxtEXgG1RxGIvy4UTBQUBiy1LrNw2Q55GT0ck7WtAlMGAbTXgf11PoRvrQDgDTPeA/wzFhoIvBwVAOw2lIShoJ+pOsFR0GAEyfnbToClgIy2TltGfUkXVPAHBS4lF3LOdD+gZg8mohrIvuSGD7vqMzaaCNUU9JmqA5UTccOMlAw0oMVQVm6xchbWBsmBQ1j74kEx8ACi2pjSHTuq6OEAI7lAYwuhwQ/EEfF5Axdgqorr76ai+VAQwHAQmP1IUZYGLOIbOHIIBxTBUnHSQ2wMY4Fkps/NfZCQQDGmeAzTRAtAZbSQP13AJxJJmVPjrGI9ZOg6akhwqNz3t7ACbf9IG7CmAAYADGeJVMH6MVRiwaB/JAQ803FkIAh3Vhz1flTINAQKsKNRO0ERpMJnnQ6DDVkUBXhqWIqKuw7vzDPv6pCjAb4ahIGA0ww3RYRznoS8H4SEdAbXNZYeLVTfBQGhiwyR8Nh4bH/AFjyjvNS0vyxGQQHAtCVRz1ksYJRgXYSIQwryGwUZNNYiO5aED4FokZbgyONR5AM7sHAxX/mShCX5+lYglmiUZlh2GZiQQtyT8SFmeW0GGCb7AbYEnuLoBZJIB46f6Yukp8BKQddKIRwfEiOZGhJwFczEHxl0aTQP3QmABe6EKeMC5S34w+GNDDRqYYQ+X8VgWYjck5U8kEk74ACrWR4SgO+rQ2kwnmC0GxusneEbCpcIZsODBcIS0BlTU2DDvRIHEQACaMQ1lgGoBjZeZ5WAbKbTO5UA1NYiNJmblls7eO0ZpnABaVGXDzH59n0qQBRIUmn3zHcjrMVAsDaq6p0Eh5C2FewjzyHOCiqqJKI4HDPjzPAQtDQBjR6EKQB5OMPO8tAFsZyD/dMho9NCtmYGFrsEB9EIzXuLZ7XFdaqAowG9GoBKsIGMaC9UOR3EgDDlpXLLKotQT7zr5Z3eeOgE2exstww8Gc3GOPPdaPPQNohrzoJiC5bOgFKzFqJoyGxIaRQtCE5UCam8TG4srkE7MyY5gz4xxGJBo6+tfQgz272DCAKXthQAITJ40gDY+FMM0wLzwnXQBMOSlD2FfnOeO/qKsAGY0CCRyG3gJwmKaVhzxj96AxDRsV46fwPfve7tn/SjovR0Ql5aoLeTGmgrgGbO5ZRXAPiU3gfm9WQmfARqXlgMnpHrCCCZKP4SaMV/TPOAh0KWgECDRMSDsrN/fCMiHN5U3GbQ8wk9hIR3yGOTQBJFYleY+4ASJ9YLokXZXA5IvvKCeSnn58GJC+u+yyi1fPkcD4rYehLwAcpg/doCNgprtDML7hnvFTJUvhsDx2XbVgtgJwNrAmgU1lwHAh04ff9cZ1CGzyad0EGAZjCgeqMCuUMl6LRERq08elrzxDY88E4gF8nAE2fd/OgG0Sm29Rs1n9FKnN9/vvv7/vxwPKrhqxeBeV1NLHCBQG9gEzAKOu0m0IgwEYsHD0dTCeIF8h3/R1vlYl/X4B5vYIQAVVAtOEeQuZJglsJB0Hqi6WU4a8GK8F2MzLpmEyYBMnjhsAC8kIuNsDNunxnRlv+M831pe18Wfu8X0YB2kwPAaACaQRps893E/pzqBC4wnW3kwk3qsUAJOXZKg0Hknmrzv/+y2Yu0OEvni3M2AzjMOBpxMT508++WS/XjTj2ajLSJNw+ieGNiQ91nKsxklQGsMaYO0/ICaE6iR9akBJ/jCO4fkWBjQIDFhYwUmXfIahPXU1fJ5e9xwFUjD3HG27HHNHwAZ09OlsCA5fbcaVzfPLnEiw3ltgzBYrNRIbMBKS4Lb/BjzSQCsg0P+lHx8G0qRhYQyY+BkvD4PFQ345KE8aep8CKZh7n+adppgEtgEFKYraq2mD/kAVZ1ID4+vPPvus9xnHySMEIsAjPvq7YTCJjARmOAnpC/jDgAUc9RkAo9LjbBIG8kXcxIVWYFLf4g7fTa97hwIpmHuHziuVigHbDHkWiQEJIxPDcPSz8dfGAw0/b/bQwuAVAptviY8DABPCVVyQzozRExerUTI8ZsN6vAtYzVhkACZfJuUtbt5NQ99QIAVz39C9y6mGQMaCjZWacWJUa4CLVEQNx4KMBxqb0ONZhbRlHJuDedEEvmccmWEwAv7luHICYDyecOLA4m1hRQBOSmHGmckfcTDmnYbepUAK5t6ld7dSA0wAhjMumZdffrn3+U5GgiS2AJCxhDPbicPGsulnA1hU69/97nd+LJpGAAkcquHdBTBGN/rZxI9fOqtX4qxiYCY+pHYaep4CKZh7nsYrlYKBAIcOxpzZa5pgUyQBiLkZ0pcG9EheNpbnYILEaaed5qUtEhcnFQuo0WHoCMCmFYQSmHcZpsLJhAkdD2g1FhamD0Oyfx0+S697jgIpmHuOtisdswGZCNhmFiAzMQErMip2R0sFAXB8qgEhm8vTx2XeMX1frm1IinhDAHMfdZ3vOgMwjiJIYPrjWqiPaHzApZNGBgcYjHBmtLPn6bl3KJCCuXfo3OVUQiBjpcZqjUsk0hFV2wxNnHmXwDWB/3iQ4cCBmstWOlikMY7xPYAOpawB2O6Hz4gLCcyccQOwzbwiLfrFNDCAnyEwVGzLB8/T0PsUSMHc+zTvUor4Wht48DFnfS0kIPcJBuTktQ01MbGfgAqMgcvcK0PAEUcIYICJtxh9YBoSJLDlgbjoW9NIIHnxIgtXFOE5jUMa+o4CKfX7jvadpgyoLrzwQu9OaYsUGJA7+9BUcCQq4MM4pv2TPJgNyICYaw6uWSwAV02kK7O4br755jgJs5YDYCRwOJxl8XGmIUhD31IgBXPf0r8sdQMZN201DvrJoetm2Qed/GHmFbOVGKKyuJDC1ifmUxoJwIsRKwlghq1MhW4PwOSVg2Cg9n/Snz6jQArmPiN95wnb5AjUZpO2nX9R/hQgmsGL4SMDsZ3pJ2P11sL7/kNbcwwJjH83hjYLBtYQwOEzA7UZvux9eyc99w4FUjD3Dp27nQoT5gkABF/r7gIaQBnIbOpjmAmemYMIUzDxFgv7wAbIFQHY0sCDzGZYhemk171HgRTMvUfrFaZkAOJFAwZjySwP1F0wYyyznR9sEgXAszTsTFr0r21aJPe7CmDyyHAUUp4xZ1bwJHSlb+9fTH9WKwVSMK9Wcq56ZAY4AMiw1HXXXecnO2Cc6orKjRTH0QRHEQBmy9WSM1TsEMQmVYkXQxdagN3jfQM213bfAExcrCkWLtRHfhnnRtJbCNOze+m5ZyhQtWDu70yCmo0rJmBGHWZCBWuC0Q8GSAQDmNECAxdAxmhma4cz+2mCZj0R7D3/J/ghnjAuu7Yz0tcWHGQVyxDAhx56qPfvZjZXewsUBMmklz1MgaoCszEXNDGG5rojJuVZtQXKQjk5swgf63ax9C3SDkOWrfMVlsvogrrLZAv8r5lMwUogOIwQeBY2BOH3pGU0tLgALyDmP04jpobznQEYizcApqGx73lu+ee6PwSjCWUJryutbFUBZhgFIiJ5YEqCOSigGnKfI2SoSiN0d/Jj5aXfyyojLO9z0UUX+ShY4YOy4ofN8BN0wRKNAYr7rOnFOs8sZHD++ed7oNHw8ayjQH8cOqJC2+J7qPW2uAHfoULvvvvufi51RwAmHfLeWVod5aHS7sNnHHRBbFSAPFZy2aoCzNYaQlyzwMJ8BPqIBN7hnjFTfwA2ZQKkTJpAjT3zzDPLhowoN8wVaincY8cLlhtCQhMHtOiMHqjhvAuAQxWaZWiZIslsq/Hjx/slgsJ4iDsEcMj05KPaAmXhgKaUxcpDOS2YMLH/lXSuCjAbwZgva+BlAgJqJ/7BLFyOxdekNRUC0WE8qxCLo1rO5N3AguQFWKjd+Gfj2sm+zRigKCsSlcX28cNmgT18uSm3MWEIwLD8Ri92trRgAKbxMADbM86WJ+JM0pdn0B0wVLIEC8sTAjjMN/dZP5whOxxrLOCvTjDa2v1KOFcVmGEUvJnoy9nWp6idLPOK1ZZF1m2rlWphps6YwABDuQEnEpSDLVSggw09AXYkazj1EGa07ztKwxxT2KiNPnkogcNvugJgA7Y1EHzDvUoP7QH4tdde82Pu7HZpw22MLkAvo3kllquqwAxzwCQYYxh6YUM2PJXMW4n1qjD4GLBNYlci4buTJ4AMOAkwH1MawyV9wrjC98L7dh0CjB0u2GUDoxnqfBhCAJNmqOHwjAaGAHgNwPw311Eal2oIdM3oWrBqC3zE5BLbq8zyzyouZgCEDlZ2e14p54oEszGcEc3+G9FQtakAJBLzaAn4GdPn4yBguLjgggv8djAwfrVICp/5dn5M0wCsVhajC//tnr3XThT+ln3Dezazyt4lDpPo3QEw3R2WMUKiYX1ngggrnhAsX5ZGJZwpI+XjzC4ihxxySJts2bRTBAblM7pZefge/iSOSgkVCWbrF9uSrkmCQViIGm6XyjRBpAHjrACZzdUuu+wyPzzTkRSrlEroTj5gomQwRkve7+y/fbOyAIb29CdxTKHPzUL9FlhnrJIDZSYARtvRg+4aZWJ8HvDaTDXes22OuCbwvQkac7tFsPR1qEgw295FSFlaSAiG8YsZQAyjcAB4GJIDsGOYMOOELYvDPN72mL+viV4p6RtTd1WFhr4Me9nSvuFcZ8pEv5vxbYyR1RJsEX8afOuukXf4CvoY/5iLKryG3YKxdRotU7/b24ivt2lQMWA2ojEHF68l+sT0X2wlSQiDgYbnjK8CeKSwMSTfUwG0mCYZrAJ6m6jVkh70IoSSJtkHNgDjOMIqnzBtGNCGYGwaW+qDYFIrfK9Sry2vxis0bNDD+Mq0QtYgZ1iU/4DepqViGDvllFP8/l3WMBhde7vMFQNmawk5M8TCypHspIA0RhVCCphKBJEANqoNzhMmsY141jDY//TcPgVgZJg2CWDcRun/ohkB4BtuuKEsAobCYFycWTB4mdGLUQZCXzFzWSa7+cfybODmc3OO4Trc4hat8IwzzvBDhRgPoQdCxoLFZf9761wxYKbAIREgGN5IHIydHnbYYR60TNNjMTnGWy2wlA2tJsCmr9PdGUYWTzWckQwwHLSyRot7gJL/ocq8ovKE7wJIs+iiDd10001lnyOB6Dsyi4t3Q+cS0jUJVvZRFf0xEANgysl/JDCCgoDwYEN2um7mMouHXiWFigKzESZUc2AUJAe+whzMysE3GDUHYP/pT38qU8WxbrOhN9bVsHGwuKv1DFg4oIWB2MoS/jcvuBCo9l7yjMGHiRPQEQl86623lr0CU6NCmwS2cWleMtqGdVX2cZX9gbfwNccRxwCMzwJdvh133NEDGFpgXA2DlR96GE3C5715XZFgDgljxIIoBmzUGg7UcYBtE+tRxfGOsr2JUX36msCrozKREoCT8gNoPJOQjpz5j9S0xs7UPUDNN8ny8z7x0L+99tpr3Te+8Y2yLMKwjCJgdwC8SGsLFldYJzzjPvcshNd2r5LOVg7yZCMnt99+u88iNgBowk6XSGBouyIAh/H1ZTkrEswhQSCUEStkIhgSZoXYHCGwaV2PO+44d88991SVMSYsN9dWXsoJoLEZUCa8ksJuBu9i9cePet999/U7WdjYuoGXdwgGNO6bpEUioT5jBOIefeb2gn3Ls7BOiCu8ZwDxNyvwJyyHTSa59NJLvWSGjl2RwFb+SipexYM5JFZ7wLZ7IbDp1+DiSb/OJmaE8VTDtTEcjRYMx/atrIPdUcBWwMF7zHBiRU5ACn2SgLY4bPwdG0O4Law9T56Ngcmb5Q+1n34mw4fmRYbtopIDNCVQHoysX//6133XDB4Kg5XTeMzKH75TSddVBeaQcEZg7rVHdFM77ZtKrwjLp5XH8suSPsccc4wfpuMZ3Qus+KjR9GUJjOva0kIM2bGgAcejjz7q1UWYFxpZnP4j/RAHwYw//k/ix74xGvMYpp+gsVYs2kh0+t1hYPJLJQcrEw1RMq9WTt6xo5LLEuatasEcFiIkerIywveq7Zo9k1k9k/F2HGEY86WfHFqSk2Wiz8cIAOPC2BOYLIBvMdI5KXmMqe1scdl/oyX3QwDTiOD5ZQHVHp94NCKMj6HHlMVl71bi2cpJXu2oxHyuKE/9AsxhIcPKoJKqgZnC/Id5BsRIWKypDJPQp+2sPDzDMEa/FxsCfWzGiFG56ccC6I6+t/vG2OQJiY6zBOozAA4lcAhgdpI0h4mwLNVwbfS28ldDnjvKY78Dc1jQaq4gpDD9XwJ9UICMdOxMJYYxASCgtX4rCxogNRknJfBOe8HuQzMDMGm2B2DG/QGw+c6H8YXxhPcr9bqaeSRJ034N5mRhq+G/MRdgfkA7TQAsdl8kdAZkKxtAJmA0Y5yUrVfxHwbMxG1g453wmnQAZxLANARMlWR8HxXajFx8b4F4OIjf8m/P0nPvUSAFc+/ReoUpGSB40Rz4GTfGyNTdACgxlhFQvQlJMNsQEkN7jM9bCAGMBLaZQfacc9gQpCAOKdN31ymY+472naYMGAmmNnf6cjsPQ7DZhJQQzFwzOYIAkBnK40ACdxXA7SSb3upDCqRg7kPid5a0TVrA8MQc22XLlnX2eptneC2ZjzpOEICXYGfAvvHGGzucJaZOnepVaBt3DiMLGwX7NnyeXlcOBVIwV05dxGowoLHhHWYvAezughnVmDFqAmAmhMNTqNhMHGhv7nEKYE+uqvtpu2xF1RWhf2XYgER/19bKxsOKkPQRbq/k1g+29a+POuoo72PMu8Rt0hX1PQQyz+zgHTvaSyO9V5kUSMFcYfUCyAh4Jx144IH+GgcNpnmiNjM8ZUBLnnlG/xjwm2MJrp2MAQNUi9tHqh8DL+cwLnuenquLAimYK7C+ABeBPi0TKzBUsboKC/AxPBWCMLzmGetdYwFnSIpx6j322MPHZYD1f0o/KYBDalT/ddpnrsA6BGQGvn322ce7c+61116+D4xrJgYxgEs/mvf4jwqOVDY3y9/+9rd+4XykNX3lpFSuwGKnWVpFCqRgXkUC9tTnIaD33HNPN2PGDHfNNde4s846q9MkmQXEhHqWXSKkQO6UXP3qYQrmCq7OENCM/eKaecQRR/hlhLFUs1Km9ZGZxcRkeiQ3/W0CUjuVyBVcwas5aymYVzNBV3d0ADoMrFrKQTBnkI6s3Mlvw3jS6/5HgRTMVVynNgxVxUVIs74aKZBas1cjMdOoUgr0JQX6h2QuzRTSYCn+in1JzzTtjijAcFvEjC7VT2ksvaNX0/srR4H+AeaQOQranTAjhSMF9cpxRE98BZB9Q2trbOl/QUdYbz2R7gcszuoFszGIwNs6Q1bd2W+73MzXXeHN/7ihR/yvG7CujET2To9VqhgSSVPVoYfLUKqD/KL5ruW1l1xh0QLX8uQ9buB2U92QvT7VJcpFTQ1uyXU/dZxdjVjWNDEag9YWrZc7wA359LFuwNj1XaTx94zG1j+IoWrBHKlCqTQqeOm1l7im717lMtursR8mDB9+es/VZVkDUYVAJv+EWHPp2TJEamwzAmDLtP+6RR/d1WV3FRYfkrvqTVOK+ehCWxLltH/YPT91+Xdnu8xgfcaWVhzi3ug9FUVbSw+a+rlSfKXyFf99oH6r1gBWxoJDRrjs3gLyxI+6zIjagFF7oC4NBIWcixrlgdVS2duXllHAGqJSGch7QWWIJZ3rQSCo4c3urDraeDeX+YhyVRoLL8tfJ3+ixtlaP0kvMAV7qap45LouM/YjLisFLLvOevqpWlbupNTde1S1krmsmKhdWnU2am2U0lvcibDs+Wr80/T0o67lhSddftZrLvfy39yws//sBm6yhRJXHuirV2qARmL4wuJFruGx+11+xkuu9bHr3IDtj3DDjj7FZQZq36S83ukpFZV2QustUEeO9s80hC7QK6PpmoOP+4MazlaXUSMQtTa75of+ojI8KgVD/3MLFF8XIurnr1QtmDVhr01vtUxar86KM4mmNBtuvcI1n3u1y+6nPYfeV3/NmBJm6rEMrHphvK+3osm9N9st+9FBLlqiP9OF3a2Ka2+TQo8XoV3A6aZPuGPiZerq3dD9DyOLpZB3+bfUmD59m6TzBGkWM+3BB/pcwaKknXox4OhRuZFD3CBeaJdXLJrgW7tVduZ5R++Yaq1EsqPGCchKboR2ixhCRkpMaOeySLv5p6P0uxlN+68X85kZUOtqNtrbZcdrgb8N9KaXxF0sw4ry1xkNw0yVkvO3oFtIu47S0H3sJAQktGaaFBUh/34YoX+l85/O8tlR+p3HWBFPq0MyQ2CrdKmz9PWiXKvLDlnTq12ZAZKSqt8Mam57iLbvIXmuRd+qv1t6z0crNc7V6OhKyCshhNkaksqMghkf2XlFcdDX1uymiKGZUsjUaKN41Nw4Mnuy+s5xD0D5jFrU6WxZrLOSVBKZbDHznSa/umhIIlKzM7XF3RSjFuneHqRaEKG+jsyUCg19ivnyN/Rd/I84OJaTsPRNF05hOfI5V/A2DxZjUJTSAOL0w/e6EG0lvFL5YC719ZxA0PSfJ1zTw3eov/qKi5bOczUTPuJqN5ns8vNkHNHKOFHrYjFJgqylSml++VnX/NRDLj9TwyPvvukKy8TQWW2PWl/rsutv5uqm7O3qp+ziskNlDieU0s3Nfcs13PsXvavhDtV4btpzLrOG3skL0UMHuWV33uBqxj7uG5ciGMUVzY2udvOt3KCP7qFMieP0XX7he67xkftcbsaLrqD8F96f7xuVjIZVssPWcgO22tMN2n4vVzt+k2L6q8pMwfdNT//TNf/7YZcdOcblVZ6oSZYkATgzTm3ba/92i/94hWfkSMM8WJ69BCy0uCEf+6yrGT02pkW3aVgsyfJfkcblZNdYV6c3XnJL7/iDa3nibldYONdrWgM23c7V77K/q/swFjK9HJShGAkRrGSwuFQXhYalrunfosnj2lhw+jMazpLGNaje1UzcxtXv/HFXN3mKhIQYyXhvJZPs7c8qG8w4gAhESOIl11/hGo74hsvsKhINH6G61oLwrz7smq/X5Xo6RnzERe+/oTHHgISqQN++qwKbHrvXNRxzurd6u8H63uXELgKnDCjulXtc868ucw377uKGn3m1G7DeePGRhr6cDEYL57uG007yjYWj4V5vDTH+aDGaxFrtuq755vNctFDRGSWF+egp54ZcdWERzKXsFJYucUs+eZjL7qUbg5RJtTqZrHaZ0If5txa5lltudI0aYhl67s0C0Wf0UnvMXIqsKydjXlGg5b8vuGVfOcNld1SsymdmtFAs+mWGbOLyb4ouj94uSa1IGZ5VGb3m8awup+3rwWwysunxv7uGo0/rMg19NpPSU1pBZszmrvnOc1yTuro0KK5uqH5qXeu/7nSNP/yuG/LjX7s1DvmyHq4iDXwG9BPTQgqcfBEWX3qKa73+DpdhX4DBa+v5UtXDYJd75k7X9I3zXP0vz3FritfQ/PzQGg15FQR0Gk9uJrFXVMA6XCJiwz/ucA3Hirhf3EHDT+LIvNCzYJ4qW6+MGyYVdbxaUbjREFUqiTGD/tZu/D8uu5MK64c29P2SJS5aoD9LF2iYY1NXM/VjLvf4w27x5d93UbO2gcE5gaA8ZCYVmS6zjs4D1iwyhwebAD+8zjMk0sYfvAOTDJTKSCgxc82otd2AoyVxpGK6BqnqSxpctEgSUovdZ2qHuppddteucAPc0h8c5Jqe/Zci0ac0ZqshoNIqOg3hbODzq6tirJH6nQNGyoik5MC3ypAdq8aKxlFkLmoaOpe6BLU6DrG0AAAmEklEQVQbbd4NGi43rBUTK/1SJ6qrzJDxLrOR7kGPRQK4xp1qNvmoy+62nVv29a+4hofu8h9guFtdIff2DLfojD3UaNzhag6YqkZEMc/XmuKL5IyyeJ7KvYWrOXpP1/jVsyU8fi0+U4MPDyKhKzQEuI0GiFjUc1TazkR2pSKovfUTwvdRoE8p4eFyc2e5xruudpntxFu1da4w7QFXu8tRrm6XT3gitzz9oGt9+hY4X5woidem7os3asdt7OqP/IEbMEEVtjbIU8FUSc3PPCLp+v+kes50NR/Z07X8+feu5bMnStXb1pc8O3RNV//5c/X+AFVsxnsvFeZIbNVKuufmu9qdT5D0Ws+rzJ75oVnTMlc7US0AoURCGof6vY90br8T3YCJmys6RKTUb8p3ixwipt0nibmtKuIp1/TPe139ltsVG5RAqhQj7OJvXHcZN2DcBDfoUmklo9ZzhffeVhkkiTVEFDW94WrGTXW1W31VDWKd78v7oR8ZlwBcdggSk7AKNIzzUYzJ90kLGmIaPMoN3P0IV7vp1sWhpnv/oKE+WadHiDY7rucarvuhq996e5ddQ3SOaUA+usmTJVWZvvnSm650+cdmqeH+uCu8eJernfpVN0hdiay6TS0vP+Ma//g1KVxLXM3BG4knTnfN6iah8ttIQKkEfXoyXBpOhVtfOR7HmsguMeFrK/r9739fWLhwYUEP4qCVKuLrXrsgzVK6DY/9I5ojHp975C7RnB1dNP97X4nyC+fFWSksXRQt+MGJ0Zxd9M6hk6N3D1F9zJxWfN7FvC/5yzXRnN1IY6do9niN2tx5Uxx/8mLhpd+K5uypdw/bMpq7t9J6/fnkK93+3/LWtOjdQ9eI5n52cjRnHxfN++ZhUX7Buz6eQi7X7fg6+6Bl5uvRu0fvEM09cMNo9hbqIfzs+1GUa+nsky49a0vDG/13lv+GZ/4VzREu5n5xSjR7G7VZ1/+6LN7cvNnRe19RHX9qdDT3cx+O5uzgooanHimLw3ii0NIULbxE9bCr4jt4fDT3oAFR8xuvFt9tbV0eb1D/TS8+Hc3ZTu8ftbvnowUXnRYVGpYsf1dXjU88WKzbL2wfzVYb8/71V+puif/z+bJ3e/tPEofg9Oqrry4Iv4A5AsdZ7dF7lCa3z6K5OeqoozJ77rlnRtuAFrQSpEe8TXBX5nmld0LcEhdcbtZ0PyaKuhPNUT9un0NddvgoL0V8ZhDfdYMlSWjAO8hj8r5a60hGqsISqbkKGL4ya0nnapbarSgKjcF2MHyrw8fNNS29Fw661hlfYII3GpXe5X1/+Cft/+D4EMkQgypXu/5EN3C/c13haRnXhk2U+j/dFZpKaipxrWpQHFjwCT6/Fqe0bfKNu6R/xjsk117+7Rv/pn5WSMNS/k2QxsVQojJgZ+oZ1yvmh7zVjBrrBh10sotek39mrepT3+WmvejfycTeXRaZv73inyDPLS885SJp1K5VdSuFY9DeB7rMIF3wDnWqULf1Dm7gx05zhVcfV9dLVTPteRlKl/hn2FD6IhhPGw7BJfgEp1p1JsMe28Lv2+CYjuF1euGvWij9f7Ux2FefeeaZIVo8Lnv00UdHp5xySkFLvGaJiCMZcU8VjnSotkhbtOTnTJc1SdfNDS67qWw0I0aVJwuRS33Ldqua56Xhjtw7b3pn/9zsWa4w/22vDmfWWl/fq0LrJkhN13CJDEBRY7ECw4QwlrlMzJHBo2Kq/jepUgZvcSlJ4Fpefd7l3npTfsaz1H+fJ64a6rLKQ+6tGS6zIWV+Q4CTahkMXSWi6f5f8lXKmy9HRzH493hYLFP8Ggxf+r77NEzERWtBT06NGMH7C5TAxOSYjAYKfH0KzziG+ODTXp6H4s2u/9Jw596eqeFEfRNJxR+xqerhOVdYquG5ZnXasexraNI38Ivny0V0QwGfEQ/ZNUoNnW/kup7kKr/ZHtZefvnlwmWXXZa54oor1CI6t8022zS+9dZbv9YWvufp7zzAjBlg0bx5876p4xrtBvg97YbwGa3umOG48MILI629HK233noe1Hq310BNqwmxfV3mdF5TxhnGhAnGI/6h/Sk+sl9vkS4ZMJbdfZNbdtlnXeExPUUoiFmwA0XiFwxA2R3GyjgkK7XnsUR8JUb2icbXlkrpnPgk8dS1vvGKW/yzb7rWe9RfxfoN1dV2RMKzkzdidhfFPkG65UxlcDSRiXk7DXoevtJRvpJxtJfPzr4FaEhGNZjL7r652zRsLzmfbxtPDhqKTH19Ecz5Fk/qgt9vi0IqFitrEGHpiZ7bw0RhS+ViMk703hvOyXaZqa1XY/2Oa/juCS76r4+57KPMbrq3wUddNONNF229UNhXXno5eGEW1Il29Cz86U9/chKuHsRbb701W/beoT27z1LW/lPKXh1gxp7Imfby+WnTph2k8wHaAvRs6elTvvWtb2U4FFlBG2xnhg0bJiFdpGgyUX23egMVzUGg8vOSmPa/g/orvlz6Lb2z7L5b3ZIvftZldl7LZT/zP7Jcvqwx14kC7zgxqtT39991hXmvFCWCihbwS1l0/o+l3+ZJx1/l33vHLfrWZjJ2icjbq8O9ZKaYSkmvvZlALVWveZkktZgNNd+3VSsqHM9XlNE2GSzeaDfq0s02RVBjWkzJLbvvtm7SsBinfd9BblQMJWo01VkGdpWsmBGNCHf4WfkD3i+VofxB8Z8eeUkHFOSv4GrqXXabTZ3bCn1fBPf8LPaP9Gzp69LY3tKIA1EC5DZEKcbZA7+GJ8PXkiVLIq2bHh188MEexJtuuikqtZTnZ5DEsvr6gFgQ1VwzICYgjzgkKzwF79Am23/V9iUnaeH1UyXex2lfouyuu+7qzjvvvIJ2CsyytUlPqd4x+WRZzwwagmaksd0hriA6F1tr5dIqzzNC+xWJCldYNM81YQ2fojiGqwIXPOgGn3Cjq5+8rSy4GrKpG+Ra//u8W3zx51V3yzyYiixMGhYClrQW05K0zPo+lad5iTmWf9P45D9d/hHx0KdkRX3jLvXLvq35t190NUMZsx6kdJvckpuudk2//46G2qQmrLB/VkqU7gUHHnAEaGH5K97p+Jf3wIqXkBYf35cKpufFucEDVpKGxaSNPGUZ8TdL6QBgSX9fV2xdO19vjhF/AmqccwxM8TelGJW/OG7KYOWGdp4n9GmJHnh2ZYav68VW1CS1qHYNN/SEH7va8Ru7/OL3iyMLYQbR5uRhmKkf5GqGqcuj4LsD4Tur8do3NKRRKgM7lzz11FOFc845J3v33Xf7YgqHs7Ua66UC+CV6FfAifDkQxj4YmO2/NUXqObqm5ubmy/7973//Scu8fmfttdc+5qGHHhosQGdPOumkSGszR2opekb1LhUKRq9Zd4Kf9paRkaswQzSeIb14CwGx5A7ofYupTPFGRAXDI3Etq9TaCaIgyZsZvI4rvPBPDU99zw3d92Arrz8PWH8jAUIM1KqWWuQJPi+9F9xhSIk05D0WYeMpGcBsTLz0gU72TeSHn9xEfbZoOiNcbujBR7vaDTdZ/qqusmuPc+4lXUwcpRc7kEgxWCPX/NJ/XOPDd6uWGtzAbXaSg8quvmHwxpzYYFSWRPEP3ZSBQwVUaQHUPu6MRm81fnYdfpmXt1zhfXlpdYeGJayG8RSvRZe4EdEd6ox0FVpff7mIP+Uff4ABEzUbTcGDnTL58usTfAAGD/P0z9So3paJbc3GABBL5bFzZtBgOQJNdC1vKbJNx7ho1j8F1HpXO25imY+RT6y9n5ju7T1c+XtJEBOTNgosXHnlle7iiy9WgZ2bMmVKk/rE/yccnqu/b3NPAXwCYkAdB/9B/K94QTWIqz3qB+k8V2s0n/Tkk0/uLmPYX9Xpdj/96U8zm222WfYXv/hFAX2ez2hVTFJbJrm/UoHKLBlFasd/yOGsES2Tc8U2ck665SIZsYpWzjZxQ3RCyEhULKpVQY4JMoAUliz0hg//XslwhmXZA4hGIWjY/Tv2U4o7u8bIog6DP7Oo1PLay/ZGfM4veC+2lHsGBJy+LZUE5XIhHWWFUvr+Wj7j9Om8qudvJH4Chmp+4Wm36OPbuKYfneGarjvXvb/rvm6p3Ep98Ezvq6Q8glL+aRQzg1UGrfiR3WhTl3v2Nj9i4F8ugQCPu/y8Od4AWYxkJWhYnnrxn68X/XBWlGFokXbUdP3XNN9ZjVyz6koYHThpy+IrVq/2gQBbM0qSVqMbrn4tP9rR8uLT/qk1DIVli13+/QWlLzJu4GaKS2lmaLTVni299Euu8YkHvFbk68E3oNISJJGZWZab+/by/rI1Dpb+ajgnVep33323cPnllxe09nkWINMvVlf3HuFuL22AcLySBMiAmJYPfIZcrr/FttlftPMD+yF7arXnUfb1119/8sUXXzxA/z8rkX+GOuBbfv3rX8/qcH/5y1/ye+65Z1b7+wrPxVqyzLYTb9dulSpwoBiudt/jXMslV7iaww+Qqn2He/+i4zVEdYSrGSMnCPk852e+LBfBkcKjQImrZUD8mqGyFo/awOVefcJlN9/Ttd53mVusoa169V3xw6bVbp0mkYh1tVaWMeFt+VDI8qxaeWo2nOSNVpkN1HhJTWv4/Ql+jnDNWmtL2hUE4sWu+S+nuMHHXOeG7P1JIvNSIcKpa/IYvStG+s15rnCQnE3GjitKUwE5/46ktvjY5RaL4QS2oAw+FwZmaQJNMKEYcsB+B4kZG1xhzbtcy6N3uvxu+7makaN9PjIDEu10CTxZ7UOVXWuMy2mYJjtpoiu8fJdbfOX5rm77qUXHEaXT+sqzLv/yrW7YWbd6x5GaIUOKNPzvky672UrSkPIgGvIyZE6QFH76YbdM0hHjWn6+ukI3nqjGbW1J3DXk0PG0qzv8VEfdE5iIkgwDxm3oFyvIMIw1YoRr+O3hLr9grhuw/gQ1lgtc6+O3qUz7SQv6sv904GaTXd0JJ7rmS3/haj6jwfx3n3aLv7WHa9r/dFc76SNKQ90KSfeC1O7mW090tTue7oYdf7b/dnUuRWR8ZDjRFkPRAw88UDj00ENrGtTNGD9+PFvwviA1+0Ilfi0ZkBAdKOxxCYg7DChaKwqtAjLv0Cqghl8vkf9nbTl62nbbbfe1f/3rX+t8+tOfrtGOhZEMZXm1KDUsym5Smg8t41x3NXhAibGya45wgz/1JZf75xUuLze87OZT5MX0ult21le8+s0Ei8zEQbKCflj9rWclTVC5itoHlZAdNsrV7Xaga73lJlcYcr9fnaL5/852TZefrSEK5UYYpmSZEeMFbFk6VdT2LJglLLi6TT/slm2gd+Y85TKjxGw141zDeWJEdffiIKbNTYf4ArNC3RZbu5pPKFuv3+sya0+Sc/+dbvGX7nSZ9f1jL7Uz0q69FfXNJ1ykPp5pJm0aYDKiBiKapifLZG3NNfnxdw9+NIsOgndL1LPskDXcwK12di1n/cwVNtF46vgd5JN8tWu9+upi0057D00l3KNmqlvfDF/L1e36GdHwZlcY3D0axkJYdRLNVrxj1Uddc7IWRrjCtfz2iqJVX3WQnbK5Hqpheu1pV/PhTd3Qz31V/yWEzJpORoIGrm7SZDfgsF1d7j/3uuwm26p1aHaNl5zinBopP0owU1Xzq+35ypMwq0Zi6BdOVqN+t8s/pW823kga33h5el2sLoveGaPjPR2b6fXHlJ+NZnt/gxpms5UEi56udADEBMMC48MyZOW12X32j3/8I9LWbb/99u/OnDnzVwLyRfoLR1HbdQJypyDWOz74SOzPCs6wPZED6ma1KA+//fbbN0vdXlPDWZP+/ve/11511VVwU0Hj1ZE2C1e+l6veuh8XhOsVBioOAujMQm3ZSXtpwT6BVbN8cIzPrCuJO05SeJik8UIdS95Rn1TglVCr3+9kV6NGgO9pFGo33MgVRo5yuX/fo9E4cRTA0aQG76KM7Qg6z12kmzNdJAzWfmZ/uVN+dHkWyUspP9k19eHoya7lkRtU+fOlu7ynfIj719F0TPlWZ8eI7spOdtyH3KBd91Mcmq6xxnD5He/lWp+7VxLhDd+AZMatqZf0oiSsH6aSxHZLpNrN1W2VbdDUo9WQKS1Ji1hT8PkQiQWM5vt/p0Zguqr8LeceV5m/dqIbtO1OSi7rK8nnd3kJfP69hBE9akZr9tRIOeTcfr/KPsvnITteLcuYgfLfVsM4Qo3JI02u7sgvuAHrFFuc2g0kxUetBA2pA+U7N/cdTYq5Sg2G6PyeCikxkpmwtlxYB4tmGlFg3H/ZIle7m1Y+OfXnMk59qBzIVpYST3h7ygabSyO5SsNO74gO78qvXAaz9ddUGcTWA7X97aaT3aApuyotEVmNAj4KA7eVdleQnXzGXdKwtKYY1fChddSAqfuxoepvrQ3VBWGseS1Xv9P+0t70glTwuA4sH108A2IOtgkyIL/xxhuFX/3qV4XDDz+8RobmjAzKzcOHD/+DwH2kDFy3KGqZfIt6TOm6S6kBzpUJSHQOazF2k+r9HbU2+zz77LM+vt/85jf5Aw44ICPDGQD3QUNdvlD2v0vnoGXOqy/T+MRDknr/lYVVzWiTECB/7cywMZLAI1VZIzUl8sNaxud/vMpYTFRSGqOI+s1Nzz3lWp5/SsNAAv4SfY8ElyU4M0jq9poatho+TH2x0epfbeNq11OldhKan9d0zKcedeTJLZE4gMlYi2zkWPl+j9U0uu2kJk4q3geECrnZM13Tkw+rjyqHhIX6Tj7c3oA3UIy0htIXeGtGDHcDxm8qDUCLHzC/tsS8PgK7Vr4bHr3PNd33Z2kRzTKA7eqG7PNp32iscJZPiZ6Fpe+7Ri0f1PLK8xqam6dG6f0iLYav47LQUVMx67baztVIKsdxKt2m557sHg1LecaTqlnqc27may6/SM4ai95VHWgaqOaHZ0p0GzhpC1e/raahSnuIjV6+4B3/tE5/VZMy/ibnIjVqS9W4DlKjOmy0jFvjvUcX3nXFhliqBs0cdaEuVfNLz/gjP3e2yq/GRcODrm4N1d86vv4GSvIP/JAWcJARtqwOOs5KmydJfpchK/rb3/6Wl+cW2PHb72pU6AFJ4h/o799LESAsUS0BdK+GOoEY2eJDfX39UTvuuOMLo0ePFme7SJ356K677mpVaxM7eKuAEhDd9HMt6P3EN4XGJVH+/fkRvtlRvh3/5cAvt83zfGuUX7JQBt3S9y2Najy7GMJ4+UR+wvnFC/xRaGpoPxK+SeZffsE+/8pH0kc4jiSZFg+Ce4XmhmL57YNEGna7zTnxHukX89IBLYkgSePu0DDIc5yX1mafd2iXpJv5c8fvtndBnEG80KIY17K2b4fvtfF1L0QylhV5IeGr7SMKvm0bcft34G/43ALjxffee2/rtttu63Gh/bMj4eRl+WwcW4KO23333QF4nf3vqzNiR81XHNaQ2n2OMjtHd3zmjzrqqLxan1b8Si0kC2z3OztTyR1WtIhXgIg42geEjOPjGd8nGDl+zjfE0Vka9rJ/r4N0iManFTj8l74r5Fo7Tp93iNe+JT8dhVI+48eUqaNyxS8lLnw67TSCvGbxJ+MsfbNSNORb1Y3/toOy+bpNNhqJbJf/pb4UZzvxLa/HdugY5qU8Qv+vWAeiDUKkGyEpqKSpRvLSyn35y19G0nos7LTTTu9NmjTph/qvfmAcwE9RfYtvdf9ilSMIkpQu651OsIATJmmP4DOlRhwkIxmqgzv//PNzcj7JTJgwgXd9EAF8X8L6E3a/0zOqG0MJkIcSeDVWFyV1ttNv+ciPSRJH6XtTv/iwS3GUUvD5IB4iUuBbO4p32v9N5n9l00dlphAYvrqT7zBXybz4eFZES6W50jSEXmTb/xSvjWarVAbi1dGduOI88K3y5Hmp+7QU3pV0+fa5Gs4t3HjjjYXTTz/dq9QaL26RALtF4D5fKT1fqgJAjDqdK/2vuNNADWWF6sK+O+ywwwNqjSCXP6677roWxtXCRq/bqnf4cXqdUqCPKJDkW81vwI+aYQDP68ICKvXD+q/xjGIo4QPTa9WE+kMOOSSWwJqoccLOO+/8inLvC7nbbrsV7rvvvtalS5fG1QBhksSJH6YXKQUqiAJJXmW8+MEHH2z9+Mc/HqvU4vfXtZf2SeJ5j4Pvfe97GIPDLmnVgJmMkvnBQY7Xnjx58kVqqWQ+LYJarqGtsoC30r+wAKHa6wfZ8/ScUqCvKJDsF8Orzz//fO7UU09FXfaCSvy9QHx+qf6vG/A+OAAPVR+weIct0jYaW7terqExAX7yk5+0yG2tzOIAwFNQ9xXbpukmKRAKHJ5pLnFeLs2xSr3lllvm5fjBOPF2htj1118fvo9HfOx+fziXDWXJU+xAqSL/XHfddX2LpgJGN910UzP9DiNksiW0++k5pUBvUSCpKS5YsKDw5z//uVk+FJ5v5SAViY8f11DToQbS0pCtN/zavf54xmYYSuk6zb46eZdddnlN9z1x5B6a0wytFvmqxvWV7KPED9KLlAI9RIEkzzU2NkaPPPJIi/yoY41SfDtdXpCni3fD7iT8DZ9/YAJGgZAAG6g1+4n8vRfqvgf1GWec0Ux/BKJaSFVvo0R67ikKoA2GKjX/Nac/d/bZZ8v/tsib6ia+r+Gmn+v/RB0WALEfirIbH7TzwPHjx4fqyI4aWL958803Lw2iukhTw5ron4SVFxI7vJ9epxRYFQokhcWsWbMKmnMQg1haJCr1bQLprgbUahxqsrz31LlsKEv96M9JhXlciXkpLVUmf+uttzarvxLXVVINih+kFykFukmBJC8tWrQo+utf/9osbTEeahI/PqWhpi8YAKp9qMnK0VPn5FDWmrIQfkum/hlK0IP6yCOPbHn00Udbmpqa4uqiNQ1V8fhBepFSYAUUSKrUWl0nksdiy7HHHhtLY/HfW5rae5Z4UHPy4oBK3S+GmuIS9dAF/Y7QSPYhmfx/JYIu0X0P6nPPPbeJfkxYV0kVKXyWXqcUCCmQBDHPtMZW7oILLmAmoOcxCZIGAflK/d9chwW6hP1yqMkK2FPnOlZZCCLfQ6rO7fIm88TW/UjLATfRr7GKaq+S7Fl6TikABZKN/jvvvMPuEDGItdJHpLXu/jZkyJCpxnuloabQTdkepeduUCA5lJWVn/eR9F8Uhwe1XENb6d/Qz7GQqt5GifRsFKArBl9YYJ8mzS9u1hLSseOHjFv/0dpbx4i3Qqv0B26oqRv4XKlXGcoKVe/RGho4U0MEs3Tfg1orhjY9/vjjZVMtW5l2184UOavQ9Nz/KUD9wwcWuNZCea1avy6WxpprPFvDot8XL40NuBN+837Vwb30cjVSgP5KqO5soaGsKyWtmXrpQa1+T+Orr75aNpQVVqZVanru/xRIqtRazy7/4x//OOYVLaDRIv75nXhnK+PRdKjJKNF757pwVtY666yzr1Tvvyl5D2htsZO/5pprGtUfijk2qWbFD9KLfkcBQByq1HPnzo20cF6ThpaYO+x5RCr13/X/AGPZ0lBT6PNgj9JzL1CAoYGQ+HVaEOHLmj/N5G9fYZ/61KeatStAM0u3WEBKp0NZRo3+daZeQy2MKbZabBIXzFil1sjIyxoZOUE8EnogwkfpUJOI0NcBY0Woeq+nCjtXQwssnupBrSlqDeonlbmGUulpf7p/gDnZL+Y/S/Z8+9vfZslazwMybM1XQ/9D/d9AhwX4JjR22f303McUGFgaQrBsbKP+0P9JBY9dQ7VOcYP6TfFQVqp6Vz+YUadDTeuNN94o/PznP4/7xSwwKT64TgvpxVMTSwvohcOexjPpuYIowFBWKKWd/Gk/KUl9v+77FnqLLbZo0dIuTVq6KObkJEPED9KLiqVAUqXW1Fmm0DbJMh0PNUkSPyjj6GcS/Al/fKBmNSXKX3V/GVIIQT1UQ1knaEGEV3Tfg1qLkDfSnwqnWqaqd8ViN85YUqVmauL999/fqvWoY2msPvHrqm+W7NHK+HGAH9Khppgc1XdBfyh0v9tQLnoXTJw4UVsrFEFNv0r9q3QoK4ZL5V4kG1stOZU/88wz436xrNNLVL8/Ut1uFLAq9R/yQPAovaxGCtA/iq2VWs5lO6lgf9A9L6V1ztPPmj59etyfTg5vVC6L9/+cJetCS0xF2uIFSRwPNak+b9Sa7TvpngXqO+0XGzX62TnZn87K4n2g+liPqJwe1GrVm2644Ybm+fPnxwhBGoQGlvhBetHjFEj2ixcuXBjdcsstLTJgxUNNUqn/pXpkyZ5QhUaljhvvfsbHaXECClDpYYs9gv6VDCUzdN+DWlMtG7TVZitT4iwkVTy7n55XPwWS/WJ2Q9FSUjlNTYxVanlvzZIL5mmqM+3cFwfqNQR1/CC96N8UoB8VVvwmsnpfogXaYkPKWWed1fDcc8/FqndSUqx+Nk5jTGpC2tK0cM4558Qg1mymFtXTz7Qf+KSAPanHtF8cEOSDeInqXcYEmna5syQ1S6Zaf7pF/bMm7Z0bIw2Gox+XhtVHgWRDqS2Do1//+tdNalzjhQLkR3C7nD92TzAq0jgdakoQ5YP8l/5VCOpaAfqzYhxtCF0E9V577dVIf42pcxZQ/1AJ07DyFIB+4aaCixcvjrREVOv+++8fS2MtG/Ws6oMle8LuEfWV9otFhDS0TwHUtdC9by0x0alaEGGO7ntJrX7bsocffjgfSmYkdRq6T4HQDoFk1pJQ+eOPPz4Gsbz33lO/+Nui/ZiguqifsI6CR+llSoG2FKDVj1U3rSA6SVZvlla1Bd5y3//+9xteeumlmIOTwyfxg/SiDQWStHrllVeiH/zgB2VDTXLwuULTEcMle9p0idpWW3onpUD7FGjDPBoG2U3uoH/V615Ka4mZJvXrmmfPnh0zbNKAEz9IL/wQX6jFMDVRSz81b7jhhrHRUV2be0TnvRJVUta4Jp6lf1MKdJkC9MtCtW4g/Td5kb2g+x7UU6dObVA/L8dugBbS/rRRgv3by1f7wIX2jjvuyH3yk5+MVWppP6+Irl8STcMVZaB72i8WEdKweilAfzpmrDFjxqwt6+qZQ4cOXaD7HtRauqjhscceiy1iSQvtcvb+4FwlNRVNRS1o909A7Gezac+xxVKpvyfpvE5QXdAZeqchpUCPUQDVO5TSTkNZm0v1/o3ue0Dr3Kz+X9Nrr70WIzbJ0PGDfnyRbMimTZsWXXjhhXhuxUNNUqmv1jFZ98IAfaFzGlIK9AoF2oBa/by9ZbD5h1L3oB43blyD+oOtTM2z8EFQvZNDTbjGXnvtta2aihqr1OqiPCxpvG+iplKVOkGQ9G/vUiCpDg4SqI/Wdp/xrpYaL12mpYDztgtHsv9oQO8PZzQQykeg4dKSTXkt3bRMVeIbODmAzBCIj9P/IUE1JWkYPEovUwr0PgXo38WqoVTHMVK9z9U9Y+TciSee2Kj+YozZ5PBM/KAKL5JleeaZZ6JTTjklHGpqUnfkAjV06wZVA73SfnFAkPSycijQhjllINtCEwL+oCxaf7pJ/caW6dOnx5Ct5v50sl+My6uWsmWlj3ioaZNNNrlRs5q2TlRTWeOXeJb+TSlQMRRoozZOnjx5X3mRPaYcelBrGKZB/chcuAtHqKLGSK/Qi2RXARdXLcWUk/SN+8Xy3npK5f5EolYAMfRJQ0qBqqIATBszrhZEGCT1+3gNZb2j+x7U6k823HfffQXUVEJS0lUilskr+bT8Pvjgg4WDDz44BrEWzpur/bVPErCHBrWF1hLTIrifXqYUqCoKlDGxVM71ZPVmaRtbJaPl5JNPbnr++edj7Fai6p1saHBl/eY3v8kwUzzUJJX6p+pahEvZUlFl5edGGlIKVDMF2kgmGcg+ouGrW1Uo6083aing1nAXjkpQvZMq9Zw5c6Kf/exnrcp3LI2lddwplXq7RAUBYsqdhpQC/ZICbUCt6X0HasjmOZXWg5rxWC1dlA9dQwF1X4QwXVwwNQW0IIt0DOKRI0e+JJX60ERNAeJUGieIkv7tvxQok1pSTQdL9T6lvr7eXEPz2lKlUUvlxOO2yeGfngR3Mi1NTYy+8IUv4L3lZ43V1ta+r8XzvqnF5dcIqqhNQxU8Sy9TCvRrCrRhfhmNNpDq/UuV2lTvZvVLW7SrZYzdnuxPJ1VqXFK/853vMNQUL6AnlfoqqdQTEjVT1jglnqV/Uwp8YCjQBtSS0jvIi+xeUcBA3fjLX/4yF+7CAajN2ypG+ipchCo1LphXXHEFUjgeL9Y2Lw9ozHznRK2kIE4QJP2bUgAKAGqOOGg8+rDhw4fHrqEa2mq87bbbCqFrqA1rrSyO+d4aBVww5Xpa0FTEWBIr/elaXP6IOFPFizZ5TTxP/6YUSCkgCpQBRVJ6zbFjx56tPaeX6hmSOvf5z3+++YknnojxCyBt7De+uYIL3g8bAu3qEX3pS19CpcZSHWk8vEmOH+dqm9zh+m+hLG92Mz2nFEgp0DkFyoAjUG+klU2uGTx4sKnezd/97ndbQ9fQUMp2hGWkcAjiN998MzrvvPMY8/bSuK6uLpJKfT1LJQXZK8tLcD+9TCmQUqCLFDAQcfZBUnoPDWU9ls1mDdRNmmqZD11DQ7CGoA7v44J5zTXXsEBArFIr3ifVV9+nlJSdLA/2Pz2nFEgpsAoUaAMojfEeIwk6S3F6UGuvpeZ77rknMkMWEthUb87WLwbQ2jUx2mOPPWLPLcUzd8SIEScccsgh4Sym1Li1ChWWfppSYEUUANSAzAcNE40cNmzYhVrCiL4uoG495phjWrU7YiyQDdDceOGFFyItbUSf2PeLJeXzMnBdovNoH2HxJwVxQIz0MqVAT1OgDNQyVm0uSX2LDFamerecf/75+VmzZnlQ4yJ68cUXM9TkQS/wRlKpb9dWL1sGGU1BHBAjvUwp0NsUKAN1TU3NJ9TnfU6HB7UWkG+VcasgTy0PYgE4khR/jveCjKYgDoiRXqYU6GsKhICskbvlN6SCz1emTFJH+r9AlupTdY81qAllDUHxVvqbUiClQKVQIDRgjVZ/+jeSxs3qF/9eGRwbZDJ8L7idXlYrBf4/B1v9N/OqlDUAAAAASUVORK5CYII=;" parent="1" vertex="1">
                    <mxGeometry x="1030" y="26.319999999999993" width="103" height="118.68" as="geometry"/>
                </mxCell>
                <mxCell id="pycYAeiRtVD3F7O0svnU-1" value="dt" style="shape=table;startSize=20;container=1;collapsible=0;childLayout=tableLayout;fontStyle=1;align=center;fillStyle=auto;gradientColor=none;fillColor=#333333;swimlaneLine=1;strokeColor=#000000;fontSize=10;fontColor=#FFFFFF;strokeWidth=2;" parent="1" vertex="1">
                    <mxGeometry x="295" y="178" width="571" height="176" as="geometry"/>
                </mxCell>
                <mxCell id="pycYAeiRtVD3F7O0svnU-2" style="shape=tableRow;horizontal=0;startSize=0;swimlaneHead=0;swimlaneBody=0;top=0;left=0;bottom=0;right=0;collapsible=0;dropTarget=0;fillColor=none;points=[[0,0.5],[1,0.5]];portConstraint=eastwest;fillStyle=auto;fontSize=10;fontColor=#000000;" parent="pycYAeiRtVD3F7O0svnU-1" vertex="1">
                    <mxGeometry y="20" width="571" height="32" as="geometry"/>
                </mxCell>
                <mxCell id="pycYAeiRtVD3F7O0svnU-3" value="variable_name_1" style="shape=partialRectangle;html=1;whiteSpace=wrap;connectable=0;fillColor=none;top=0;left=0;bottom=0;right=0;overflow=hidden;fillStyle=auto;fontSize=10;shadow=1;gradientColor=default;fontColor=#000000;" parent="pycYAeiRtVD3F7O0svnU-2" vertex="1">
                    <mxGeometry width="81" height="32" as="geometry">
                        <mxRectangle width="81" height="32" as="alternateBounds"/>
                    </mxGeometry>
                </mxCell>
                <mxCell id="pycYAeiRtVD3F7O0svnU-4" value="variable_name_2" style="shape=partialRectangle;html=1;whiteSpace=wrap;connectable=0;fillColor=none;top=0;left=0;bottom=0;right=0;overflow=hidden;fillStyle=auto;fontColor=#000000;fontSize=10;gradientColor=default;" parent="pycYAeiRtVD3F7O0svnU-2" vertex="1">
                    <mxGeometry x="81" width="83" height="32" as="geometry">
                        <mxRectangle width="83" height="32" as="alternateBounds"/>
                    </mxGeometry>
                </mxCell>
                <mxCell id="pycYAeiRtVD3F7O0svnU-5" value="variable_name_3" style="shape=partialRectangle;html=1;whiteSpace=wrap;connectable=0;fillColor=none;top=0;left=0;bottom=0;right=0;overflow=hidden;fillStyle=auto;fontColor=#000000;fontSize=10;gradientColor=default;" parent="pycYAeiRtVD3F7O0svnU-2" vertex="1">
                    <mxGeometry x="164" width="81" height="32" as="geometry">
                        <mxRectangle width="81" height="32" as="alternateBounds"/>
                    </mxGeometry>
                </mxCell>
                <mxCell id="pycYAeiRtVD3F7O0svnU-6" value="variable_name_4" style="shape=partialRectangle;html=1;whiteSpace=wrap;connectable=0;fillColor=none;top=0;left=0;bottom=0;right=0;overflow=hidden;fillStyle=auto;fontSize=10;fontColor=#000000;gradientColor=default;" parent="pycYAeiRtVD3F7O0svnU-2" vertex="1">
                    <mxGeometry x="245" width="81" height="32" as="geometry">
                        <mxRectangle width="81" height="32" as="alternateBounds"/>
                    </mxGeometry>
                </mxCell>
                <mxCell id="pycYAeiRtVD3F7O0svnU-7" value="vn5" style="shape=partialRectangle;html=1;whiteSpace=wrap;connectable=0;fillColor=none;top=0;left=0;bottom=0;right=0;overflow=hidden;fillStyle=auto;fontSize=10;fontColor=#000000;gradientColor=default;" parent="pycYAeiRtVD3F7O0svnU-2" vertex="1">
                    <mxGeometry x="326" width="83" height="32" as="geometry">
                        <mxRectangle width="83" height="32" as="alternateBounds"/>
                    </mxGeometry>
                </mxCell>
                <mxCell id="pycYAeiRtVD3F7O0svnU-8" value="vn7" style="shape=partialRectangle;html=1;whiteSpace=wrap;connectable=0;fillColor=none;top=0;left=0;bottom=0;right=0;overflow=hidden;fillStyle=auto;fontSize=10;fontColor=#000000;gradientColor=default;" parent="pycYAeiRtVD3F7O0svnU-2" vertex="1">
                    <mxGeometry x="409" width="81" height="32" as="geometry">
                        <mxRectangle width="81" height="32" as="alternateBounds"/>
                    </mxGeometry>
                </mxCell>
                <mxCell id="lAj4TY80lOdJknfIAPNc-2" value="vn8" style="shape=partialRectangle;html=1;whiteSpace=wrap;connectable=0;fillColor=none;top=0;left=0;bottom=0;right=0;overflow=hidden;fillStyle=auto;fontSize=10;fontColor=#000000;gradientColor=default;" parent="pycYAeiRtVD3F7O0svnU-2" vertex="1">
                    <mxGeometry x="490" width="81" height="32" as="geometry">
                        <mxRectangle width="81" height="32" as="alternateBounds"/>
                    </mxGeometry>
                </mxCell>
                <mxCell id="pycYAeiRtVD3F7O0svnU-9" value="" style="shape=tableRow;horizontal=0;startSize=0;swimlaneHead=0;swimlaneBody=0;top=0;left=0;bottom=0;right=0;collapsible=0;dropTarget=0;fillColor=none;points=[[0,0.5],[1,0.5]];portConstraint=eastwest;fillStyle=auto;fontSize=10;fontColor=#000000;" parent="pycYAeiRtVD3F7O0svnU-1" vertex="1">
                    <mxGeometry y="52" width="571" height="31" as="geometry"/>
                </mxCell>
                <mxCell id="pycYAeiRtVD3F7O0svnU-10" value="&lt;font color=&quot;#000000&quot; style=&quot;font-size: 10px;&quot;&gt;integer&lt;/font&gt;" style="shape=partialRectangle;html=1;whiteSpace=wrap;connectable=0;fillColor=#E6E6E6;top=0;left=0;bottom=0;right=0;overflow=hidden;fillStyle=auto;fontSize=10;shadow=0;gradientColor=none;strokeColor=#000000;fontFamily=Lucida Console;sketch=1;curveFitting=1;jiggle=2;" parent="pycYAeiRtVD3F7O0svnU-9" vertex="1">
                    <mxGeometry width="81" height="31" as="geometry">
                        <mxRectangle width="81" height="31" as="alternateBounds"/>
                    </mxGeometry>
                </mxCell>
                <mxCell id="pycYAeiRtVD3F7O0svnU-11" value="numeric (dbl)" style="shape=partialRectangle;html=1;whiteSpace=wrap;connectable=0;fillColor=#E6E6E6;top=0;left=0;bottom=0;right=0;overflow=hidden;fillStyle=auto;fontColor=#000000;fontSize=10;gradientColor=none;fontFamily=Lucida Console;strokeColor=#000000;sketch=1;curveFitting=1;jiggle=2;" parent="pycYAeiRtVD3F7O0svnU-9" vertex="1">
                    <mxGeometry x="81" width="83" height="31" as="geometry">
                        <mxRectangle width="83" height="31" as="alternateBounds"/>
                    </mxGeometry>
                </mxCell>
                <mxCell id="pycYAeiRtVD3F7O0svnU-12" value="character" style="shape=partialRectangle;html=1;whiteSpace=wrap;connectable=0;fillColor=#E6E6E6;top=0;left=0;bottom=0;right=0;overflow=hidden;fillStyle=auto;fontColor=#000000;fontSize=10;gradientColor=none;fontFamily=Lucida Console;strokeColor=#000000;sketch=1;curveFitting=1;jiggle=2;" parent="pycYAeiRtVD3F7O0svnU-9" vertex="1">
                    <mxGeometry x="164" width="81" height="31" as="geometry">
                        <mxRectangle width="81" height="31" as="alternateBounds"/>
                    </mxGeometry>
                </mxCell>
                <mxCell id="pycYAeiRtVD3F7O0svnU-13" value="factor" style="shape=partialRectangle;html=1;whiteSpace=wrap;connectable=0;fillColor=#E6E6E6;top=0;left=0;bottom=0;right=0;overflow=hidden;fillStyle=auto;fontSize=10;fontColor=#000000;gradientColor=none;fontFamily=Lucida Console;strokeColor=#000000;sketch=1;curveFitting=1;jiggle=2;" parent="pycYAeiRtVD3F7O0svnU-9" vertex="1">
                    <mxGeometry x="245" width="81" height="31" as="geometry">
                        <mxRectangle width="81" height="31" as="alternateBounds"/>
                    </mxGeometry>
                </mxCell>
                <mxCell id="pycYAeiRtVD3F7O0svnU-14" value="logic" style="shape=partialRectangle;html=1;whiteSpace=wrap;connectable=0;fillColor=#E6E6E6;top=0;left=0;bottom=0;right=0;overflow=hidden;fillStyle=auto;fontSize=10;fontColor=#000000;gradientColor=none;fontFamily=Lucida Console;strokeColor=#000000;sketch=1;curveFitting=1;jiggle=2;" parent="pycYAeiRtVD3F7O0svnU-9" vertex="1">
                    <mxGeometry x="326" width="83" height="31" as="geometry">
                        <mxRectangle width="83" height="31" as="alternateBounds"/>
                    </mxGeometry>
                </mxCell>
                <mxCell id="pycYAeiRtVD3F7O0svnU-15" value="mixed with missing values" style="shape=partialRectangle;html=1;whiteSpace=wrap;connectable=0;fillColor=#E6E6E6;top=0;left=0;bottom=0;right=0;overflow=hidden;fillStyle=auto;fontSize=10;fontColor=#000000;gradientColor=none;fontFamily=Lucida Console;strokeColor=#000000;sketch=1;curveFitting=1;jiggle=2;" parent="pycYAeiRtVD3F7O0svnU-9" vertex="1">
                    <mxGeometry x="409" width="81" height="31" as="geometry">
                        <mxRectangle width="81" height="31" as="alternateBounds"/>
                    </mxGeometry>
                </mxCell>
                <mxCell id="lAj4TY80lOdJknfIAPNc-3" value="Date/Time" style="shape=partialRectangle;html=1;whiteSpace=wrap;connectable=0;fillColor=#E6E6E6;top=0;left=0;bottom=0;right=0;overflow=hidden;fillStyle=auto;fontSize=10;fontColor=#000000;gradientColor=none;fontFamily=Lucida Console;strokeColor=#000000;sketch=1;curveFitting=1;jiggle=2;" parent="pycYAeiRtVD3F7O0svnU-9" vertex="1">
                    <mxGeometry x="490" width="81" height="31" as="geometry">
                        <mxRectangle width="81" height="31" as="alternateBounds"/>
                    </mxGeometry>
                </mxCell>
                <mxCell id="pycYAeiRtVD3F7O0svnU-16" value="" style="shape=tableRow;horizontal=0;startSize=0;swimlaneHead=0;swimlaneBody=0;top=0;left=0;bottom=0;right=0;collapsible=0;dropTarget=0;fillColor=none;points=[[0,0.5],[1,0.5]];portConstraint=eastwest;fillStyle=auto;fontColor=#000000;fontSize=10;" parent="pycYAeiRtVD3F7O0svnU-1" vertex="1">
                    <mxGeometry y="83" width="571" height="30" as="geometry"/>
                </mxCell>
                <mxCell id="pycYAeiRtVD3F7O0svnU-17" value="&lt;font color=&quot;#000000&quot; style=&quot;font-size: 10px;&quot;&gt;1&lt;/font&gt;" style="shape=partialRectangle;html=1;whiteSpace=wrap;connectable=0;fillColor=none;top=0;left=0;bottom=0;right=0;overflow=hidden;fillStyle=auto;strokeColor=#000000;fontSize=10;" parent="pycYAeiRtVD3F7O0svnU-16" vertex="1">
                    <mxGeometry width="81" height="30" as="geometry">
                        <mxRectangle width="81" height="30" as="alternateBounds"/>
                    </mxGeometry>
                </mxCell>
                <mxCell id="pycYAeiRtVD3F7O0svnU-18" value="2.0" style="shape=partialRectangle;html=1;whiteSpace=wrap;connectable=0;fillColor=none;top=0;left=0;bottom=0;right=0;overflow=hidden;fillStyle=auto;fontSize=10;fontColor=#000000;" parent="pycYAeiRtVD3F7O0svnU-16" vertex="1">
                    <mxGeometry x="81" width="83" height="30" as="geometry">
                        <mxRectangle width="83" height="30" as="alternateBounds"/>
                    </mxGeometry>
                </mxCell>
                <mxCell id="pycYAeiRtVD3F7O0svnU-19" value="A" style="shape=partialRectangle;html=1;whiteSpace=wrap;connectable=0;fillColor=none;top=0;left=0;bottom=0;right=0;overflow=hidden;fillStyle=auto;fontSize=10;fontColor=#000000;" parent="pycYAeiRtVD3F7O0svnU-16" vertex="1">
                    <mxGeometry x="164" width="81" height="30" as="geometry">
                        <mxRectangle width="81" height="30" as="alternateBounds"/>
                    </mxGeometry>
                </mxCell>
                <mxCell id="pycYAeiRtVD3F7O0svnU-20" value="female / 1" style="shape=partialRectangle;html=1;whiteSpace=wrap;connectable=0;fillColor=none;top=0;left=0;bottom=0;right=0;overflow=hidden;fillStyle=auto;fontSize=10;fontColor=#000000;" parent="pycYAeiRtVD3F7O0svnU-16" vertex="1">
                    <mxGeometry x="245" width="81" height="30" as="geometry">
                        <mxRectangle width="81" height="30" as="alternateBounds"/>
                    </mxGeometry>
                </mxCell>
                <mxCell id="pycYAeiRtVD3F7O0svnU-21" value="TRUE" style="shape=partialRectangle;html=1;whiteSpace=wrap;connectable=0;fillColor=none;top=0;left=0;bottom=0;right=0;overflow=hidden;fillStyle=auto;fontSize=10;fontColor=#000000;" parent="pycYAeiRtVD3F7O0svnU-16" vertex="1">
                    <mxGeometry x="326" width="83" height="30" as="geometry">
                        <mxRectangle width="83" height="30" as="alternateBounds"/>
                    </mxGeometry>
                </mxCell>
                <mxCell id="pycYAeiRtVD3F7O0svnU-22" value="2.0" style="shape=partialRectangle;html=1;whiteSpace=wrap;connectable=0;fillColor=none;top=0;left=0;bottom=0;right=0;overflow=hidden;fillStyle=auto;fontSize=10;fontColor=#000000;" parent="pycYAeiRtVD3F7O0svnU-16" vertex="1">
                    <mxGeometry x="409" width="81" height="30" as="geometry">
                        <mxRectangle width="81" height="30" as="alternateBounds"/>
                    </mxGeometry>
                </mxCell>
                <mxCell id="lAj4TY80lOdJknfIAPNc-4" value="2013" style="shape=partialRectangle;html=1;whiteSpace=wrap;connectable=0;fillColor=none;top=0;left=0;bottom=0;right=0;overflow=hidden;fillStyle=auto;fontSize=10;fontColor=#000000;" parent="pycYAeiRtVD3F7O0svnU-16" vertex="1">
                    <mxGeometry x="490" width="81" height="30" as="geometry">
                        <mxRectangle width="81" height="30" as="alternateBounds"/>
                    </mxGeometry>
                </mxCell>
                <mxCell id="pycYAeiRtVD3F7O0svnU-23" value="" style="shape=tableRow;horizontal=0;startSize=0;swimlaneHead=0;swimlaneBody=0;top=0;left=0;bottom=0;right=0;collapsible=0;dropTarget=0;fillColor=none;points=[[0,0.5],[1,0.5]];portConstraint=eastwest;fillStyle=auto;fontSize=10;" parent="pycYAeiRtVD3F7O0svnU-1" vertex="1">
                    <mxGeometry y="113" width="571" height="31" as="geometry"/>
                </mxCell>
                <mxCell id="pycYAeiRtVD3F7O0svnU-24" value="100" style="shape=partialRectangle;html=1;whiteSpace=wrap;connectable=0;fillColor=none;top=0;left=0;bottom=0;right=0;overflow=hidden;fillStyle=auto;fontColor=#000000;fontSize=10;" parent="pycYAeiRtVD3F7O0svnU-23" vertex="1">
                    <mxGeometry width="81" height="31" as="geometry">
                        <mxRectangle width="81" height="31" as="alternateBounds"/>
                    </mxGeometry>
                </mxCell>
                <mxCell id="pycYAeiRtVD3F7O0svnU-25" value="-3.1415926" style="shape=partialRectangle;html=1;whiteSpace=wrap;connectable=0;fillColor=none;top=0;left=0;bottom=0;right=0;overflow=hidden;fillStyle=auto;fontColor=#000000;fontSize=10;" parent="pycYAeiRtVD3F7O0svnU-23" vertex="1">
                    <mxGeometry x="81" width="83" height="31" as="geometry">
                        <mxRectangle width="83" height="31" as="alternateBounds"/>
                    </mxGeometry>
                </mxCell>
                <mxCell id="pycYAeiRtVD3F7O0svnU-26" value="hello" style="shape=partialRectangle;html=1;whiteSpace=wrap;connectable=0;fillColor=none;top=0;left=0;bottom=0;right=0;overflow=hidden;fillStyle=auto;fontSize=10;fontColor=#000000;" parent="pycYAeiRtVD3F7O0svnU-23" vertex="1">
                    <mxGeometry x="164" width="81" height="31" as="geometry">
                        <mxRectangle width="81" height="31" as="alternateBounds"/>
                    </mxGeometry>
                </mxCell>
                <mxCell id="pycYAeiRtVD3F7O0svnU-27" value="male / 2" style="shape=partialRectangle;html=1;whiteSpace=wrap;connectable=0;fillColor=none;top=0;left=0;bottom=0;right=0;overflow=hidden;fillStyle=auto;fontColor=#000000;fontSize=10;" parent="pycYAeiRtVD3F7O0svnU-23" vertex="1">
                    <mxGeometry x="245" width="81" height="31" as="geometry">
                        <mxRectangle width="81" height="31" as="alternateBounds"/>
                    </mxGeometry>
                </mxCell>
                <mxCell id="pycYAeiRtVD3F7O0svnU-28" value="FALSE" style="shape=partialRectangle;html=1;whiteSpace=wrap;connectable=0;fillColor=none;top=0;left=0;bottom=0;right=0;overflow=hidden;fillStyle=auto;fontColor=#000000;fontSize=10;" parent="pycYAeiRtVD3F7O0svnU-23" vertex="1">
                    <mxGeometry x="326" width="83" height="31" as="geometry">
                        <mxRectangle width="83" height="31" as="alternateBounds"/>
                    </mxGeometry>
                </mxCell>
                <mxCell id="pycYAeiRtVD3F7O0svnU-29" value="&quot;abc&quot;" style="shape=partialRectangle;html=1;whiteSpace=wrap;connectable=0;fillColor=none;top=0;left=0;bottom=0;right=0;overflow=hidden;fillStyle=auto;fontColor=#000000;fontSize=10;" parent="pycYAeiRtVD3F7O0svnU-23" vertex="1">
                    <mxGeometry x="409" width="81" height="31" as="geometry">
                        <mxRectangle width="81" height="31" as="alternateBounds"/>
                    </mxGeometry>
                </mxCell>
                <mxCell id="lAj4TY80lOdJknfIAPNc-5" value="2022-09-10" style="shape=partialRectangle;html=1;whiteSpace=wrap;connectable=0;fillColor=none;top=0;left=0;bottom=0;right=0;overflow=hidden;fillStyle=auto;fontColor=#000000;fontSize=10;" parent="pycYAeiRtVD3F7O0svnU-23" vertex="1">
                    <mxGeometry x="490" width="81" height="31" as="geometry">
                        <mxRectangle width="81" height="31" as="alternateBounds"/>
                    </mxGeometry>
                </mxCell>
                <mxCell id="pycYAeiRtVD3F7O0svnU-30" style="shape=tableRow;horizontal=0;startSize=0;swimlaneHead=0;swimlaneBody=0;top=0;left=0;bottom=0;right=0;collapsible=0;dropTarget=0;fillColor=none;points=[[0,0.5],[1,0.5]];portConstraint=eastwest;fillStyle=auto;fontSize=10;" parent="pycYAeiRtVD3F7O0svnU-1" vertex="1">
                    <mxGeometry y="144" width="571" height="32" as="geometry"/>
                </mxCell>
                <mxCell id="pycYAeiRtVD3F7O0svnU-31" value="-567" style="shape=partialRectangle;html=1;whiteSpace=wrap;connectable=0;fillColor=none;top=0;left=0;bottom=0;right=0;overflow=hidden;fillStyle=auto;fontColor=#000000;fontSize=10;" parent="pycYAeiRtVD3F7O0svnU-30" vertex="1">
                    <mxGeometry width="81" height="32" as="geometry">
                        <mxRectangle width="81" height="32" as="alternateBounds"/>
                    </mxGeometry>
                </mxCell>
                <mxCell id="pycYAeiRtVD3F7O0svnU-32" value="100" style="shape=partialRectangle;html=1;whiteSpace=wrap;connectable=0;fillColor=none;top=0;left=0;bottom=0;right=0;overflow=hidden;fillStyle=auto;fontColor=#000000;fontSize=10;" parent="pycYAeiRtVD3F7O0svnU-30" vertex="1">
                    <mxGeometry x="81" width="83" height="32" as="geometry">
                        <mxRectangle width="83" height="32" as="alternateBounds"/>
                    </mxGeometry>
                </mxCell>
                <mxCell id="pycYAeiRtVD3F7O0svnU-33" value="hello world" style="shape=partialRectangle;html=1;whiteSpace=wrap;connectable=0;fillColor=none;top=0;left=0;bottom=0;right=0;overflow=hidden;fillStyle=auto;fontColor=#000000;fontSize=10;" parent="pycYAeiRtVD3F7O0svnU-30" vertex="1">
                    <mxGeometry x="164" width="81" height="32" as="geometry">
                        <mxRectangle width="81" height="32" as="alternateBounds"/>
                    </mxGeometry>
                </mxCell>
                <mxCell id="pycYAeiRtVD3F7O0svnU-34" value="any categorical data" style="shape=partialRectangle;html=1;whiteSpace=wrap;connectable=0;fillColor=none;top=0;left=0;bottom=0;right=0;overflow=hidden;fillStyle=auto;fontColor=#000000;fontSize=10;" parent="pycYAeiRtVD3F7O0svnU-30" vertex="1">
                    <mxGeometry x="245" width="81" height="32" as="geometry">
                        <mxRectangle width="81" height="32" as="alternateBounds"/>
                    </mxGeometry>
                </mxCell>
                <mxCell id="pycYAeiRtVD3F7O0svnU-35" value="TRUE" style="shape=partialRectangle;html=1;whiteSpace=wrap;connectable=0;fillColor=none;top=0;left=0;bottom=0;right=0;overflow=hidden;fillStyle=auto;fontColor=#000000;fontSize=10;" parent="pycYAeiRtVD3F7O0svnU-30" vertex="1">
                    <mxGeometry x="326" width="83" height="32" as="geometry">
                        <mxRectangle width="83" height="32" as="alternateBounds"/>
                    </mxGeometry>
                </mxCell>
                <mxCell id="pycYAeiRtVD3F7O0svnU-36" value="NA" style="shape=partialRectangle;html=1;whiteSpace=wrap;connectable=0;fillColor=#999999;top=0;left=0;bottom=0;right=0;overflow=hidden;fillStyle=dashed;fontColor=#000000;fontSize=10;labelBackgroundColor=none;sketch=1;curveFitting=1;jiggle=2;shadow=0;" parent="pycYAeiRtVD3F7O0svnU-30" vertex="1">
                    <mxGeometry x="409" width="81" height="32" as="geometry">
                        <mxRectangle width="81" height="32" as="alternateBounds"/>
                    </mxGeometry>
                </mxCell>
                <mxCell id="lAj4TY80lOdJknfIAPNc-6" value="09:12:37" style="shape=partialRectangle;html=1;whiteSpace=wrap;connectable=0;fillColor=none;top=0;left=0;bottom=0;right=0;overflow=hidden;fillStyle=dashed;fontColor=#000000;fontSize=10;labelBackgroundColor=none;shadow=0;" parent="pycYAeiRtVD3F7O0svnU-30" vertex="1">
                    <mxGeometry x="490" width="81" height="32" as="geometry">
                        <mxRectangle width="81" height="32" as="alternateBounds"/>
                    </mxGeometry>
                </mxCell>
                <mxCell id="5HgWxlClIFBf7GO_4MEs-3" value="" style="group" parent="1" vertex="1" connectable="0">
                    <mxGeometry x="184" y="24" width="350" height="131" as="geometry"/>
                </mxCell>
                <mxCell id="pycYAeiRtVD3F7O0svnU-37" value="Structure of the dataset" style="text;strokeColor=none;align=center;fillColor=none;html=1;verticalAlign=middle;whiteSpace=wrap;rounded=0;fontSize=17;fontColor=#000000;fontStyle=4" parent="5HgWxlClIFBf7GO_4MEs-3" vertex="1">
                    <mxGeometry x="33" y="-5" width="246.61" height="31.19" as="geometry"/>
                </mxCell>
                <mxCell id="pycYAeiRtVD3F7O0svnU-38" value="str(dt)&amp;nbsp;&lt;br style=&quot;font-size: 13px;&quot;&gt;head(dt)&lt;br style=&quot;font-size: 13px;&quot;&gt;summary(dt)&lt;br style=&quot;font-size: 13px;&quot;&gt;names(dt)&lt;br style=&quot;font-size: 13px;&quot;&gt;setnames('old', 'new')&lt;br&gt;setorder(vn5, vn6)&lt;br&gt;sapply(dt, function(x) sum(is.na(x))" style="text;strokeColor=none;align=left;fillColor=none;verticalAlign=middle;rounded=0;fontSize=13;fontColor=#000000;fontFamily=Lucida Console;labelBorderColor=none;labelBackgroundColor=none;whiteSpace=wrap;html=1;" parent="5HgWxlClIFBf7GO_4MEs-3" vertex="1">
                    <mxGeometry x="67.00451612903225" y="27.18654456654457" width="294" height="107.0873015873016" as="geometry"/>
                </mxCell>
                <mxCell id="5HgWxlClIFBf7GO_4MEs-4" value="" style="group" parent="1" vertex="1" connectable="0">
                    <mxGeometry x="10" y="20" width="252" height="127" as="geometry"/>
                </mxCell>
                <mxCell id="5HgWxlClIFBf7GO_4MEs-1" value="library(data.table)&lt;br style=&quot;font-size: 13px;&quot;&gt;library(magrittr)&lt;br style=&quot;font-size: 13px;&quot;&gt;library(knitr)&lt;br style=&quot;font-size: 13px;&quot;&gt;library(ggplot2)" style="text;strokeColor=none;align=left;fillColor=none;verticalAlign=middle;rounded=0;fontSize=13;fontColor=#000000;fontFamily=Lucida Console;labelBorderColor=none;labelBackgroundColor=none;whiteSpace=wrap;html=1;" parent="5HgWxlClIFBf7GO_4MEs-4" vertex="1">
                    <mxGeometry x="41" y="14" width="210" height="103" as="geometry"/>
                </mxCell>
                <mxCell id="5HgWxlClIFBf7GO_4MEs-2" value="Import key packages" style="text;strokeColor=none;align=center;fillColor=none;html=1;verticalAlign=middle;whiteSpace=wrap;rounded=0;fontSize=17;fontColor=#000000;fontStyle=4" parent="5HgWxlClIFBf7GO_4MEs-4" vertex="1">
                    <mxGeometry x="-4" width="250" height="30" as="geometry"/>
                </mxCell>
                <mxCell id="lAj4TY80lOdJknfIAPNc-11" value="" style="group" parent="1" vertex="1" connectable="0">
                    <mxGeometry x="523" y="15" width="616" height="147" as="geometry"/>
                </mxCell>
                <mxCell id="5HgWxlClIFBf7GO_4MEs-5" value="Check unique or duplicated values" style="text;strokeColor=none;align=center;fillColor=none;html=1;verticalAlign=middle;whiteSpace=wrap;rounded=0;fontSize=17;fontColor=#000000;fontStyle=4" parent="lAj4TY80lOdJknfIAPNc-11" vertex="1">
                    <mxGeometry width="300" height="40" as="geometry"/>
                </mxCell>
                <mxCell id="lAj4TY80lOdJknfIAPNc-10" value="dt %&amp;gt;%&lt;br style=&quot;font-size: 13px;&quot;&gt;&amp;nbsp; &amp;nbsp; unique(by = c(&quot;variables&quot;)&lt;br style=&quot;font-size: 13px;&quot;&gt;dt %&amp;gt;%&lt;br style=&quot;font-size: 13px;&quot;&gt;&amp;nbsp; &amp;nbsp; .[duplicated(variable)]&lt;br style=&quot;font-size: 13px;&quot;&gt;# print out all duplicates&lt;br style=&quot;font-size: 13px;&quot;&gt;dt %&amp;gt;%&lt;br style=&quot;font-size: 13px;&quot;&gt;&amp;nbsp; &amp;nbsp; .[duplicated(variablle) | duplicated(variable, fromLast = TRUE)]" style="text;strokeColor=none;align=left;fillColor=none;verticalAlign=middle;rounded=0;fontSize=13;fontColor=#000000;fontFamily=Lucida Console;labelBorderColor=none;labelBackgroundColor=none;whiteSpace=wrap;html=1;" parent="lAj4TY80lOdJknfIAPNc-11" vertex="1">
                    <mxGeometry x="20" y="37" width="550" height="110" as="geometry"/>
                </mxCell>
                <mxCell id="4nFrVSEkVQtRMvxXKvwa-4" value="Manipulate rows with i" style="text;strokeColor=none;align=center;fillColor=none;html=1;verticalAlign=middle;whiteSpace=wrap;rounded=0;fontSize=17;fontColor=#000000;fontStyle=4" vertex="1" parent="1">
                    <mxGeometry x="41" y="375" width="190" height="40" as="geometry"/>
                </mxCell>
                <mxCell id="4nFrVSEkVQtRMvxXKvwa-5" value="&lt;i&gt;# extract rows based on index&lt;/i&gt;&lt;br&gt;dt[5:17, ]&amp;nbsp; # all columns&lt;br&gt;dt[1:9, 2:4]&amp;nbsp; # row 1 to 9, column 2 to 4&lt;br&gt;# subset rows based on conditions&lt;br&gt;dt %&amp;gt;%&lt;br&gt;&amp;nbsp; &amp;nbsp; .[vn2 &amp;gt;= 20]&lt;br&gt;&lt;br&gt;&lt;br&gt;# logical operators to use in i&lt;br&gt;&lt;br&gt;&amp;gt;&amp;nbsp; &amp;nbsp;&amp;lt;&amp;nbsp; &amp;nbsp;&amp;gt;=&amp;nbsp; &amp;nbsp;&amp;lt;=&amp;nbsp; &amp;nbsp;is.na()&amp;nbsp; &amp;nbsp;!&amp;nbsp;&lt;br&gt;&lt;br&gt;&amp;amp;&amp;nbsp; &amp;nbsp;|&amp;nbsp; &amp;nbsp;%in%&amp;nbsp; &amp;nbsp; %like%&amp;nbsp; &amp;nbsp;%between%" style="text;strokeColor=none;align=left;fillColor=none;verticalAlign=middle;rounded=0;fontSize=13;fontColor=#000000;fontFamily=Lucida Console;labelBorderColor=none;labelBackgroundColor=none;whiteSpace=wrap;html=1;" vertex="1" parent="1">
                    <mxGeometry x="50" y="428" width="379" height="210" as="geometry"/>
                </mxCell>
                <mxCell id="4nFrVSEkVQtRMvxXKvwa-6" value="subgroup with by" style="text;strokeColor=none;align=center;fillColor=none;html=1;verticalAlign=middle;whiteSpace=wrap;rounded=0;fontSize=17;fontColor=#000000;fontStyle=4" vertex="1" parent="1">
                    <mxGeometry x="690" y="375" width="300" height="40" as="geometry"/>
                </mxCell>
                <mxCell id="4nFrVSEkVQtRMvxXKvwa-7" value="&lt;i&gt;# summarize vn2 by vn4&lt;/i&gt;&lt;br&gt;dt %&amp;gt;%&lt;br&gt;&amp;nbsp; &amp;nbsp; .[, .(vn2_mean = mean(vn2), by = vn4]&lt;br&gt;&lt;br&gt;# one of the most common way to use by&lt;br&gt;# is that we need do some operation on one # or several variables based on another&lt;br&gt;# categorical variables, such as&lt;br&gt;&lt;br&gt;- dt[, .(c=sum(b)), by = a]&lt;br&gt;- dt[, .(c=mean(b)), by = .(a, d)]&lt;br&gt;&lt;br&gt;&lt;br&gt;&lt;br&gt;&lt;br&gt;&lt;br&gt;&lt;br&gt;" style="text;strokeColor=none;align=left;fillColor=none;verticalAlign=middle;rounded=0;fontSize=13;fontColor=#000000;fontFamily=Lucida Console;labelBorderColor=none;labelBackgroundColor=none;whiteSpace=wrap;html=1;" vertex="1" parent="1">
                    <mxGeometry x="780" y="519" width="340.4" height="100" as="geometry"/>
                </mxCell>
                <mxCell id="4nFrVSEkVQtRMvxXKvwa-9" value="" style="group" vertex="1" connectable="0" parent="1">
                    <mxGeometry x="351.5" y="375" width="481.5" height="369" as="geometry"/>
                </mxCell>
                <mxCell id="4nFrVSEkVQtRMvxXKvwa-1" value="Manipulate columns with j" style="text;strokeColor=none;align=center;fillColor=none;html=1;verticalAlign=middle;whiteSpace=wrap;rounded=0;fontSize=17;fontColor=#000000;fontStyle=4" vertex="1" parent="4nFrVSEkVQtRMvxXKvwa-9">
                    <mxGeometry width="300" height="40" as="geometry"/>
                </mxCell>
                <mxCell id="4nFrVSEkVQtRMvxXKvwa-2" value="&lt;i&gt;# extract columns&lt;/i&gt;&lt;br&gt;dt %&amp;gt;%&lt;br&gt;&amp;nbsp; &amp;nbsp; .[, .(vn5, vn7)]&lt;br&gt;dt %&amp;gt;%&lt;br&gt;&amp;nbsp; &amp;nbsp; .[, c(2:6)]&amp;nbsp; &lt;i&gt;# using column index&lt;/i&gt;&lt;br&gt;&lt;i&gt;# extract columns based on names&lt;/i&gt;&lt;br&gt;dt %&amp;gt;%&lt;br&gt;&amp;nbsp; &amp;nbsp; .[, .SD, .SDcols = patterns(&quot;^q&quot;)]&lt;br&gt;&lt;i&gt;# extract columns based on type&lt;/i&gt;&lt;br&gt;dt %&amp;gt;%&lt;br&gt;&amp;nbsp; &amp;nbsp; .[, .SD, .SDcols = is.integer]&lt;br&gt;&lt;i&gt;# extract and transfom at the same time&lt;/i&gt;&lt;br&gt;dt %&amp;gt;%&lt;br&gt;&amp;nbsp; &amp;nbsp; .[, lapply(.SD, tolower), .SDcols = is.character]&amp;nbsp;&lt;br&gt;&lt;i&gt;# create a new columns on original data&lt;/i&gt;&lt;br&gt;dt %&amp;gt;%&lt;br&gt;&amp;nbsp; &amp;nbsp; .[, vn9 := vn2 + 2]&lt;br&gt;# create or transform columns on original data&lt;br&gt;# using name vector, .SDcols, and lapply with :=&amp;nbsp;" style="text;strokeColor=none;align=left;fillColor=none;verticalAlign=middle;rounded=0;fontSize=13;fontColor=#000000;fontFamily=Lucida Console;labelBorderColor=none;labelBackgroundColor=none;html=1;spacing=2;whiteSpace=wrap;" vertex="1" parent="4nFrVSEkVQtRMvxXKvwa-9">
                    <mxGeometry x="51.5" y="39" width="430" height="330" as="geometry"/>
                </mxCell>
                <mxCell id="4nFrVSEkVQtRMvxXKvwa-10" value="&lt;i&gt;# class&lt;/i&gt;&lt;br&gt;class(variable)&lt;br&gt;&lt;i&gt;# is function&lt;/i&gt;&lt;br&gt;is.factor()&lt;br&gt;is.integer()&lt;br&gt;is.character()&lt;br&gt;&lt;i&gt;# as function&lt;/i&gt;&lt;br&gt;as.character()&lt;br&gt;as.integer()&lt;br&gt;as.POSIXct()&lt;br&gt;as.factor()&lt;br&gt;..." style="text;strokeColor=none;align=left;fillColor=none;verticalAlign=middle;rounded=0;fontSize=13;fontColor=#000000;fontFamily=Lucida Console;labelBorderColor=none;labelBackgroundColor=none;whiteSpace=wrap;html=1;" vertex="1" parent="1">
                    <mxGeometry x="925" y="220" width="130" height="106.27" as="geometry"/>
                </mxCell>
                <mxCell id="lAj4TY80lOdJknfIAPNc-1" value="dt[&lt;span style=&quot;font-weight: normal; background-color: rgb(230, 230, 230);&quot;&gt;i&lt;/span&gt;, &lt;span style=&quot;font-weight: normal; background-color: rgb(230, 230, 230);&quot;&gt;j&lt;/span&gt;,&lt;span style=&quot;font-weight: normal;&quot;&gt; &lt;span style=&quot;background-color: rgb(230, 230, 230);&quot;&gt;by&lt;/span&gt;&lt;/span&gt;]" style="text;html=1;strokeColor=none;fillColor=none;align=left;verticalAlign=middle;whiteSpace=wrap;rounded=0;shadow=1;sketch=0;fillStyle=auto;fontSize=30;fontColor=#000000;fontFamily=Courier New;fontStyle=1" parent="1" vertex="1">
                    <mxGeometry x="38" y="162" width="248" height="58" as="geometry"/>
                </mxCell>
                <mxCell id="4nFrVSEkVQtRMvxXKvwa-12" value="# common functions in pipe&lt;br&gt;%&amp;gt;%&lt;br&gt;with()&lt;br&gt;kable()&lt;br&gt;plot()&lt;br&gt;par(mfrow = c(2, 2))&lt;br&gt;&lt;br&gt;# ask ChatGPT always" style="text;strokeColor=none;align=left;fillColor=none;verticalAlign=middle;rounded=0;fontSize=13;fontColor=#000000;fontFamily=Lucida Console;labelBorderColor=none;labelBackgroundColor=none;whiteSpace=wrap;html=1;" vertex="1" parent="1">
                    <mxGeometry x="44" y="234" width="210" height="103" as="geometry"/>
                </mxCell>
                <mxCell id="SyKskTQlgrRNRfmTMtEy-1" value="# use keyby if you want to&lt;br&gt;# sort within the group&lt;br&gt;&lt;br&gt;# special functions that&lt;br&gt;# could bring magics&lt;br&gt;.N, .I .SD" style="text;strokeColor=none;align=left;fillColor=none;verticalAlign=middle;rounded=0;fontSize=13;fontColor=#000000;fontFamily=Lucida Console;labelBorderColor=none;labelBackgroundColor=none;whiteSpace=wrap;html=1;" vertex="1" parent="1">
                    <mxGeometry x="889.4" y="638" width="231" height="80" as="geometry"/>
                </mxCell>
                <mxCell id="SyKskTQlgrRNRfmTMtEy-2" value="# any functions from dplyr&lt;br&gt;# could be combined within&lt;br&gt;# the pipe line&amp;nbsp;" style="text;strokeColor=none;align=left;fillColor=none;verticalAlign=middle;rounded=0;fontSize=13;fontColor=#000000;fontFamily=Lucida Console;labelBorderColor=none;labelBackgroundColor=none;whiteSpace=wrap;html=1;" vertex="1" parent="1">
                    <mxGeometry x="50" y="650" width="288" height="100" as="geometry"/>
                </mxCell>
            </root>
        </mxGraphModel>
    </diagram>
</mxfile>